G04 #@! TF.FileFunction,Legend,Top*
%FSLAX46Y46*%
G04 Gerber Fmt 4.6, Leading zero omitted, Abs format (unit mm)*
G04 Created by KiCad (PCBNEW 4.0.5+dfsg1-4~bpo8+1) date Mon Sep 25 13:54:36 2017*
%MOMM*%
%LPD*%
G01*
G04 APERTURE LIST*
%ADD10C,0.100000*%
%ADD11C,0.150000*%
%ADD12C,0.400000*%
%ADD13C,0.299720*%
%ADD14C,0.152400*%
G04 APERTURE END LIST*
D10*
D11*
X144300000Y-81500000D02*
X142800000Y-81500000D01*
X142800000Y-81500000D02*
X142800000Y-82000000D01*
X165300000Y-81500000D02*
X166800000Y-81500000D01*
X166800000Y-81500000D02*
X166800000Y-82000000D01*
X164800000Y-86000000D02*
X164800000Y-86500000D01*
X164800000Y-86500000D02*
X167300000Y-86500000D01*
X167300000Y-86500000D02*
X167300000Y-87750000D01*
X167300000Y-87750000D02*
X167050000Y-88000000D01*
X167050000Y-88000000D02*
X142550000Y-88000000D01*
X142550000Y-88000000D02*
X142300000Y-87750000D01*
X142300000Y-87750000D02*
X142300000Y-86500000D01*
X142300000Y-86500000D02*
X144800000Y-86500000D01*
X144800000Y-86500000D02*
X144800000Y-86000000D01*
X140429000Y-62143000D02*
X140429000Y-62778000D01*
X140429000Y-62778000D02*
X139794000Y-62778000D01*
X133571000Y-62778000D02*
X134206000Y-62778000D01*
X133571000Y-62778000D02*
X133571000Y-62143000D01*
X139794000Y-59222000D02*
X140429000Y-59222000D01*
X140429000Y-59222000D02*
X140429000Y-59857000D01*
X133571000Y-59222000D02*
X133571000Y-59857000D01*
X133571000Y-59222000D02*
X134206000Y-59222000D01*
X140429000Y-70143000D02*
X140429000Y-70778000D01*
X140429000Y-70778000D02*
X139794000Y-70778000D01*
X133571000Y-70778000D02*
X134206000Y-70778000D01*
X133571000Y-70778000D02*
X133571000Y-70143000D01*
X139794000Y-67222000D02*
X140429000Y-67222000D01*
X140429000Y-67222000D02*
X140429000Y-67857000D01*
X133571000Y-67222000D02*
X133571000Y-67857000D01*
X133571000Y-67222000D02*
X134206000Y-67222000D01*
X140429000Y-78143000D02*
X140429000Y-78778000D01*
X140429000Y-78778000D02*
X139794000Y-78778000D01*
X133571000Y-78778000D02*
X134206000Y-78778000D01*
X133571000Y-78778000D02*
X133571000Y-78143000D01*
X139794000Y-75222000D02*
X140429000Y-75222000D01*
X140429000Y-75222000D02*
X140429000Y-75857000D01*
X133571000Y-75222000D02*
X133571000Y-75857000D01*
X133571000Y-75222000D02*
X134206000Y-75222000D01*
X104400000Y-66900000D02*
X105100000Y-66900000D01*
X105100000Y-68100000D02*
X104400000Y-68100000D01*
X101200000Y-82550000D02*
X101200000Y-74450000D01*
X96800000Y-74550000D02*
X96800000Y-82550000D01*
X114650000Y-60600000D02*
X114650000Y-59900000D01*
X115850000Y-59900000D02*
X115850000Y-60600000D01*
X109100000Y-63350000D02*
X108400000Y-63350000D01*
X108400000Y-62150000D02*
X109100000Y-62150000D01*
X90700000Y-69950000D02*
X98800000Y-69950000D01*
X98700000Y-65550000D02*
X90700000Y-65550000D01*
X116850000Y-65100000D02*
X116150000Y-65100000D01*
X116150000Y-63900000D02*
X116850000Y-63900000D01*
X102400000Y-76600000D02*
X102400000Y-75900000D01*
X103600000Y-75900000D02*
X103600000Y-76600000D01*
X105400000Y-62150000D02*
X106100000Y-62150000D01*
X106100000Y-63350000D02*
X105400000Y-63350000D01*
X82450000Y-94950000D02*
X90550000Y-94950000D01*
X90450000Y-90550000D02*
X82450000Y-90550000D01*
X94150000Y-105350000D02*
X94150000Y-104650000D01*
X95350000Y-104650000D02*
X95350000Y-105350000D01*
X102650000Y-71400000D02*
X103350000Y-71400000D01*
X103350000Y-72600000D02*
X102650000Y-72600000D01*
X90650000Y-105350000D02*
X90650000Y-104650000D01*
X91850000Y-104650000D02*
X91850000Y-105350000D01*
X102650000Y-69150000D02*
X103350000Y-69150000D01*
X103350000Y-70350000D02*
X102650000Y-70350000D01*
X87150000Y-105350000D02*
X87150000Y-104650000D01*
X88350000Y-104650000D02*
X88350000Y-105350000D01*
X86100000Y-102850000D02*
X85400000Y-102850000D01*
X85400000Y-101650000D02*
X86100000Y-101650000D01*
X81900000Y-106100000D02*
X81900000Y-105400000D01*
X83100000Y-105400000D02*
X83100000Y-106100000D01*
X160400000Y-60850000D02*
X160400000Y-60150000D01*
X161600000Y-60150000D02*
X161600000Y-60850000D01*
X77850000Y-100600000D02*
X77150000Y-100600000D01*
X77150000Y-99400000D02*
X77850000Y-99400000D01*
X73850000Y-104650000D02*
X73850000Y-105350000D01*
X72650000Y-105350000D02*
X72650000Y-104650000D01*
X171150000Y-70350000D02*
X171150000Y-69650000D01*
X172350000Y-69650000D02*
X172350000Y-70350000D01*
X167000180Y-66650240D02*
X167000180Y-65949200D01*
X167200840Y-66650240D02*
X167000180Y-66650240D01*
X169999820Y-66650240D02*
X169750900Y-66650240D01*
X169999820Y-65949200D02*
X169999820Y-66650240D01*
X167200840Y-66650240D02*
X167249100Y-66650240D01*
X162900000Y-59000000D02*
X162900000Y-62000000D01*
X166100000Y-59000000D02*
X166100000Y-62000000D01*
X67747000Y-102250000D02*
G75*
G03X67747000Y-102250000I-7747000J0D01*
G01*
X88550000Y-65100000D02*
X88250000Y-64500000D01*
X87950000Y-65100000D02*
X88550000Y-65100000D01*
X88250000Y-64500000D02*
X87950000Y-65100000D01*
X101070000Y-60500000D02*
X100750000Y-60500000D01*
X101070000Y-57080000D02*
X101070000Y-60500000D01*
X100750000Y-57000000D02*
X101070000Y-57080000D01*
X100430000Y-57080000D02*
X100750000Y-57000000D01*
X100430000Y-60500000D02*
X100430000Y-57080000D01*
X100750000Y-60500000D02*
X100430000Y-60500000D01*
X98570000Y-60500000D02*
X98250000Y-60500000D01*
X98570000Y-57080000D02*
X98570000Y-60500000D01*
X98250000Y-57000000D02*
X98570000Y-57080000D01*
X97930000Y-57080000D02*
X98250000Y-57000000D01*
X97930000Y-60500000D02*
X97930000Y-57080000D01*
X98250000Y-60500000D02*
X97930000Y-60500000D01*
X96070000Y-60500000D02*
X95750000Y-60500000D01*
X96070000Y-57080000D02*
X96070000Y-60500000D01*
X95750000Y-57000000D02*
X96070000Y-57080000D01*
X95430000Y-57080000D02*
X95750000Y-57000000D01*
X95430000Y-60500000D02*
X95430000Y-57080000D01*
X95750000Y-60500000D02*
X95430000Y-60500000D01*
X93570000Y-60500000D02*
X93250000Y-60500000D01*
X93570000Y-57080000D02*
X93570000Y-60500000D01*
X93250000Y-57000000D02*
X93570000Y-57080000D01*
X92930000Y-57080000D02*
X93250000Y-57000000D01*
X92930000Y-60500000D02*
X92930000Y-57080000D01*
X93250000Y-60500000D02*
X92930000Y-60500000D01*
X91070000Y-60500000D02*
X90750000Y-60500000D01*
X91070000Y-57080000D02*
X91070000Y-60500000D01*
X90750000Y-57000000D02*
X91070000Y-57080000D01*
X90430000Y-57080000D02*
X90750000Y-57000000D01*
X90430000Y-60500000D02*
X90430000Y-57080000D01*
X90750000Y-60500000D02*
X90430000Y-60500000D01*
X88570000Y-60500000D02*
X88250000Y-60500000D01*
X88570000Y-57080000D02*
X88570000Y-60500000D01*
X88250000Y-57000000D02*
X88570000Y-57080000D01*
X87930000Y-57080000D02*
X88250000Y-57000000D01*
X87930000Y-60500000D02*
X87930000Y-57080000D01*
X88250000Y-60500000D02*
X87930000Y-60500000D01*
X87050000Y-61500000D02*
X101950000Y-61500000D01*
X87050000Y-60500000D02*
X101950000Y-60500000D01*
X101950000Y-62500000D02*
X103450000Y-62500000D01*
X101950000Y-57600000D02*
X101950000Y-62500000D01*
X103450000Y-57600000D02*
X101950000Y-57600000D01*
X87050000Y-62500000D02*
X85550000Y-62500000D01*
X87050000Y-57600000D02*
X87050000Y-62500000D01*
X85550000Y-57600000D02*
X87050000Y-57600000D01*
X101950000Y-64700000D02*
X101950000Y-62500000D01*
X103450000Y-64700000D02*
X101950000Y-64700000D01*
X103450000Y-56100000D02*
X103450000Y-64700000D01*
X85550000Y-56100000D02*
X103450000Y-56100000D01*
X85550000Y-64700000D02*
X85550000Y-56100000D01*
X87050000Y-64700000D02*
X85550000Y-64700000D01*
X87050000Y-62500000D02*
X87050000Y-64700000D01*
X66366000Y-58650000D02*
X66366000Y-50014000D01*
X66366000Y-67032000D02*
X66366000Y-61952000D01*
X54174000Y-58650000D02*
X54174000Y-50014000D01*
X54174000Y-67032000D02*
X54174000Y-61952000D01*
X54174000Y-50014000D02*
X66366000Y-50014000D01*
X66366000Y-67032000D02*
X54174000Y-67032000D01*
X112575000Y-60750000D02*
X112575000Y-59750000D01*
X113925000Y-59750000D02*
X113925000Y-60750000D01*
X116575000Y-60750000D02*
X116575000Y-59750000D01*
X117925000Y-59750000D02*
X117925000Y-60750000D01*
X110500000Y-65425000D02*
X109500000Y-65425000D01*
X109500000Y-64075000D02*
X110500000Y-64075000D01*
X118575000Y-60750000D02*
X118575000Y-59750000D01*
X119925000Y-59750000D02*
X119925000Y-60750000D01*
X110575000Y-60750000D02*
X110575000Y-59750000D01*
X111925000Y-59750000D02*
X111925000Y-60750000D01*
X96000000Y-101575000D02*
X97000000Y-101575000D01*
X97000000Y-102925000D02*
X96000000Y-102925000D01*
X92500000Y-101575000D02*
X93500000Y-101575000D01*
X93500000Y-102925000D02*
X92500000Y-102925000D01*
X89000000Y-101575000D02*
X90000000Y-101575000D01*
X90000000Y-102925000D02*
X89000000Y-102925000D01*
X82000000Y-101575000D02*
X83000000Y-101575000D01*
X83000000Y-102925000D02*
X82000000Y-102925000D01*
X77000000Y-101575000D02*
X78000000Y-101575000D01*
X78000000Y-102925000D02*
X77000000Y-102925000D01*
X172425000Y-65500000D02*
X172425000Y-66500000D01*
X171075000Y-66500000D02*
X171075000Y-65500000D01*
X169675000Y-79500000D02*
X169675000Y-80500000D01*
X168325000Y-80500000D02*
X168325000Y-79500000D01*
X173675000Y-79500000D02*
X173675000Y-80500000D01*
X172325000Y-80500000D02*
X172325000Y-79500000D01*
X164500000Y-76925000D02*
X163500000Y-76925000D01*
X163500000Y-75575000D02*
X164500000Y-75575000D01*
X164500000Y-74925000D02*
X163500000Y-74925000D01*
X163500000Y-73575000D02*
X164500000Y-73575000D01*
X164500000Y-72925000D02*
X163500000Y-72925000D01*
X163500000Y-71575000D02*
X164500000Y-71575000D01*
X164500000Y-70925000D02*
X163500000Y-70925000D01*
X163500000Y-69575000D02*
X164500000Y-69575000D01*
X123200000Y-67200000D02*
X123200000Y-67400000D01*
X123200000Y-67400000D02*
X123400000Y-67400000D01*
X124600000Y-67200000D02*
X124600000Y-67400000D01*
X124600000Y-67400000D02*
X124400000Y-67400000D01*
X123400000Y-62600000D02*
X123200000Y-62600000D01*
X123200000Y-62600000D02*
X123200000Y-62800000D01*
X124600000Y-62800000D02*
X124600000Y-62600000D01*
X124600000Y-62600000D02*
X124400000Y-62600000D01*
X121450000Y-75200000D02*
X121450000Y-75400000D01*
X121450000Y-75400000D02*
X121650000Y-75400000D01*
X122850000Y-75200000D02*
X122850000Y-75400000D01*
X122850000Y-75400000D02*
X122650000Y-75400000D01*
X121650000Y-70600000D02*
X121450000Y-70600000D01*
X121450000Y-70600000D02*
X121450000Y-70800000D01*
X122850000Y-70800000D02*
X122850000Y-70600000D01*
X122850000Y-70600000D02*
X122650000Y-70600000D01*
X116200000Y-83200000D02*
X116200000Y-83400000D01*
X116200000Y-83400000D02*
X116400000Y-83400000D01*
X117600000Y-83200000D02*
X117600000Y-83400000D01*
X117600000Y-83400000D02*
X117400000Y-83400000D01*
X116400000Y-78600000D02*
X116200000Y-78600000D01*
X116200000Y-78600000D02*
X116200000Y-78800000D01*
X117600000Y-78800000D02*
X117600000Y-78600000D01*
X117600000Y-78600000D02*
X117400000Y-78600000D01*
X82000000Y-83750000D02*
X83250000Y-83750000D01*
X82000000Y-83750000D02*
X82000000Y-82250000D01*
X92000000Y-83750000D02*
X92000000Y-82250000D01*
X92000000Y-83750000D02*
X90750000Y-83750000D01*
D12*
X114930278Y-65575000D02*
G75*
G03X114930278Y-65575000I-180278J0D01*
G01*
D11*
X108450000Y-73575000D02*
X108450000Y-73000000D01*
X108450000Y-73575000D02*
X109000000Y-73575000D01*
X108475000Y-66475000D02*
X108475000Y-67000000D01*
X109000000Y-66475000D02*
X108475000Y-66475000D01*
X115525000Y-66450000D02*
X115000000Y-66450000D01*
X115525000Y-66450000D02*
X115525000Y-67000000D01*
X115000000Y-73550000D02*
X115550000Y-73550000D01*
X115550000Y-73550000D02*
X115550000Y-73000000D01*
X78350000Y-105850000D02*
G75*
G03X78350000Y-105850000I-50000J0D01*
G01*
X76300000Y-106200000D02*
X76300000Y-103800000D01*
X76300000Y-103800000D02*
X78700000Y-103800000D01*
X78700000Y-103800000D02*
X78700000Y-106200000D01*
X78700000Y-106200000D02*
X76300000Y-106200000D01*
D13*
X109650300Y-60550860D02*
G75*
G03X109650300Y-60550860I-200660J0D01*
G01*
X110049080Y-61150300D02*
X104450920Y-61150300D01*
X104450920Y-61150300D02*
X104450920Y-56349700D01*
X104450920Y-56349700D02*
X110049080Y-56349700D01*
X110049080Y-56349700D02*
X110049080Y-61150300D01*
D11*
X167050000Y-60750000D02*
X169950000Y-60750000D01*
X169950000Y-60750000D02*
X169950000Y-60250000D01*
X169950000Y-60250000D02*
X167050000Y-60250000D01*
X167050000Y-60250000D02*
X167050000Y-60750000D01*
X166900000Y-60800000D02*
G75*
G03X166900000Y-60800000I-100000J0D01*
G01*
X163600000Y-67500000D02*
X163600000Y-64500000D01*
X165400000Y-67500000D02*
X165400000Y-64500000D01*
X62280477Y-122224036D02*
G75*
G03X57730000Y-122230000I-2280477J3994036D01*
G01*
X64000000Y-118230000D02*
G75*
G03X64000000Y-118230000I-4000000J0D01*
G01*
X57730000Y-122230000D02*
X62270000Y-122230000D01*
X71125000Y-111650000D02*
X71125000Y-112850000D01*
X69375000Y-112850000D02*
X69375000Y-111650000D01*
X139511905Y-88452381D02*
X139511905Y-87452381D01*
X139892858Y-87452381D01*
X139988096Y-87500000D01*
X140035715Y-87547619D01*
X140083334Y-87642857D01*
X140083334Y-87785714D01*
X140035715Y-87880952D01*
X139988096Y-87928571D01*
X139892858Y-87976190D01*
X139511905Y-87976190D01*
X140940477Y-87785714D02*
X140940477Y-88452381D01*
X140702381Y-87404762D02*
X140464286Y-88119048D01*
X141083334Y-88119048D01*
X130872334Y-64024143D02*
X130824715Y-64071762D01*
X130681858Y-64119381D01*
X130586620Y-64119381D01*
X130443762Y-64071762D01*
X130348524Y-63976524D01*
X130300905Y-63881286D01*
X130253286Y-63690810D01*
X130253286Y-63547952D01*
X130300905Y-63357476D01*
X130348524Y-63262238D01*
X130443762Y-63167000D01*
X130586620Y-63119381D01*
X130681858Y-63119381D01*
X130824715Y-63167000D01*
X130872334Y-63214619D01*
X131300905Y-64119381D02*
X131300905Y-63119381D01*
X131681858Y-63119381D01*
X131777096Y-63167000D01*
X131824715Y-63214619D01*
X131872334Y-63309857D01*
X131872334Y-63452714D01*
X131824715Y-63547952D01*
X131777096Y-63595571D01*
X131681858Y-63643190D01*
X131300905Y-63643190D01*
X132824715Y-64119381D02*
X132253286Y-64119381D01*
X132539000Y-64119381D02*
X132539000Y-63119381D01*
X132443762Y-63262238D01*
X132348524Y-63357476D01*
X132253286Y-63405095D01*
X130872334Y-72024143D02*
X130824715Y-72071762D01*
X130681858Y-72119381D01*
X130586620Y-72119381D01*
X130443762Y-72071762D01*
X130348524Y-71976524D01*
X130300905Y-71881286D01*
X130253286Y-71690810D01*
X130253286Y-71547952D01*
X130300905Y-71357476D01*
X130348524Y-71262238D01*
X130443762Y-71167000D01*
X130586620Y-71119381D01*
X130681858Y-71119381D01*
X130824715Y-71167000D01*
X130872334Y-71214619D01*
X131300905Y-72119381D02*
X131300905Y-71119381D01*
X131681858Y-71119381D01*
X131777096Y-71167000D01*
X131824715Y-71214619D01*
X131872334Y-71309857D01*
X131872334Y-71452714D01*
X131824715Y-71547952D01*
X131777096Y-71595571D01*
X131681858Y-71643190D01*
X131300905Y-71643190D01*
X132253286Y-71214619D02*
X132300905Y-71167000D01*
X132396143Y-71119381D01*
X132634239Y-71119381D01*
X132729477Y-71167000D01*
X132777096Y-71214619D01*
X132824715Y-71309857D01*
X132824715Y-71405095D01*
X132777096Y-71547952D01*
X132205667Y-72119381D01*
X132824715Y-72119381D01*
X130872334Y-80024143D02*
X130824715Y-80071762D01*
X130681858Y-80119381D01*
X130586620Y-80119381D01*
X130443762Y-80071762D01*
X130348524Y-79976524D01*
X130300905Y-79881286D01*
X130253286Y-79690810D01*
X130253286Y-79547952D01*
X130300905Y-79357476D01*
X130348524Y-79262238D01*
X130443762Y-79167000D01*
X130586620Y-79119381D01*
X130681858Y-79119381D01*
X130824715Y-79167000D01*
X130872334Y-79214619D01*
X131300905Y-80119381D02*
X131300905Y-79119381D01*
X131681858Y-79119381D01*
X131777096Y-79167000D01*
X131824715Y-79214619D01*
X131872334Y-79309857D01*
X131872334Y-79452714D01*
X131824715Y-79547952D01*
X131777096Y-79595571D01*
X131681858Y-79643190D01*
X131300905Y-79643190D01*
X132205667Y-79119381D02*
X132824715Y-79119381D01*
X132491381Y-79500333D01*
X132634239Y-79500333D01*
X132729477Y-79547952D01*
X132777096Y-79595571D01*
X132824715Y-79690810D01*
X132824715Y-79928905D01*
X132777096Y-80024143D01*
X132729477Y-80071762D01*
X132634239Y-80119381D01*
X132348524Y-80119381D01*
X132253286Y-80071762D01*
X132205667Y-80024143D01*
X104583334Y-66357143D02*
X104535715Y-66404762D01*
X104392858Y-66452381D01*
X104297620Y-66452381D01*
X104154762Y-66404762D01*
X104059524Y-66309524D01*
X104011905Y-66214286D01*
X103964286Y-66023810D01*
X103964286Y-65880952D01*
X104011905Y-65690476D01*
X104059524Y-65595238D01*
X104154762Y-65500000D01*
X104297620Y-65452381D01*
X104392858Y-65452381D01*
X104535715Y-65500000D01*
X104583334Y-65547619D01*
X105535715Y-66452381D02*
X104964286Y-66452381D01*
X105250000Y-66452381D02*
X105250000Y-65452381D01*
X105154762Y-65595238D01*
X105059524Y-65690476D01*
X104964286Y-65738095D01*
X98833334Y-73857143D02*
X98785715Y-73904762D01*
X98642858Y-73952381D01*
X98547620Y-73952381D01*
X98404762Y-73904762D01*
X98309524Y-73809524D01*
X98261905Y-73714286D01*
X98214286Y-73523810D01*
X98214286Y-73380952D01*
X98261905Y-73190476D01*
X98309524Y-73095238D01*
X98404762Y-73000000D01*
X98547620Y-72952381D01*
X98642858Y-72952381D01*
X98785715Y-73000000D01*
X98833334Y-73047619D01*
X99214286Y-73047619D02*
X99261905Y-73000000D01*
X99357143Y-72952381D01*
X99595239Y-72952381D01*
X99690477Y-73000000D01*
X99738096Y-73047619D01*
X99785715Y-73142857D01*
X99785715Y-73238095D01*
X99738096Y-73380952D01*
X99166667Y-73952381D01*
X99785715Y-73952381D01*
X115083334Y-58607143D02*
X115035715Y-58654762D01*
X114892858Y-58702381D01*
X114797620Y-58702381D01*
X114654762Y-58654762D01*
X114559524Y-58559524D01*
X114511905Y-58464286D01*
X114464286Y-58273810D01*
X114464286Y-58130952D01*
X114511905Y-57940476D01*
X114559524Y-57845238D01*
X114654762Y-57750000D01*
X114797620Y-57702381D01*
X114892858Y-57702381D01*
X115035715Y-57750000D01*
X115083334Y-57797619D01*
X115416667Y-57702381D02*
X116035715Y-57702381D01*
X115702381Y-58083333D01*
X115845239Y-58083333D01*
X115940477Y-58130952D01*
X115988096Y-58178571D01*
X116035715Y-58273810D01*
X116035715Y-58511905D01*
X115988096Y-58607143D01*
X115940477Y-58654762D01*
X115845239Y-58702381D01*
X115559524Y-58702381D01*
X115464286Y-58654762D01*
X115416667Y-58607143D01*
X111833334Y-63107143D02*
X111785715Y-63154762D01*
X111642858Y-63202381D01*
X111547620Y-63202381D01*
X111404762Y-63154762D01*
X111309524Y-63059524D01*
X111261905Y-62964286D01*
X111214286Y-62773810D01*
X111214286Y-62630952D01*
X111261905Y-62440476D01*
X111309524Y-62345238D01*
X111404762Y-62250000D01*
X111547620Y-62202381D01*
X111642858Y-62202381D01*
X111785715Y-62250000D01*
X111833334Y-62297619D01*
X112690477Y-62535714D02*
X112690477Y-63202381D01*
X112452381Y-62154762D02*
X112214286Y-62869048D01*
X112833334Y-62869048D01*
X94533994Y-71406603D02*
X94486375Y-71454222D01*
X94343518Y-71501841D01*
X94248280Y-71501841D01*
X94105422Y-71454222D01*
X94010184Y-71358984D01*
X93962565Y-71263746D01*
X93914946Y-71073270D01*
X93914946Y-70930412D01*
X93962565Y-70739936D01*
X94010184Y-70644698D01*
X94105422Y-70549460D01*
X94248280Y-70501841D01*
X94343518Y-70501841D01*
X94486375Y-70549460D01*
X94533994Y-70597079D01*
X95438756Y-70501841D02*
X94962565Y-70501841D01*
X94914946Y-70978031D01*
X94962565Y-70930412D01*
X95057803Y-70882793D01*
X95295899Y-70882793D01*
X95391137Y-70930412D01*
X95438756Y-70978031D01*
X95486375Y-71073270D01*
X95486375Y-71311365D01*
X95438756Y-71406603D01*
X95391137Y-71454222D01*
X95295899Y-71501841D01*
X95057803Y-71501841D01*
X94962565Y-71454222D01*
X94914946Y-71406603D01*
X118083334Y-63357143D02*
X118035715Y-63404762D01*
X117892858Y-63452381D01*
X117797620Y-63452381D01*
X117654762Y-63404762D01*
X117559524Y-63309524D01*
X117511905Y-63214286D01*
X117464286Y-63023810D01*
X117464286Y-62880952D01*
X117511905Y-62690476D01*
X117559524Y-62595238D01*
X117654762Y-62500000D01*
X117797620Y-62452381D01*
X117892858Y-62452381D01*
X118035715Y-62500000D01*
X118083334Y-62547619D01*
X118940477Y-62452381D02*
X118750000Y-62452381D01*
X118654762Y-62500000D01*
X118607143Y-62547619D01*
X118511905Y-62690476D01*
X118464286Y-62880952D01*
X118464286Y-63261905D01*
X118511905Y-63357143D01*
X118559524Y-63404762D01*
X118654762Y-63452381D01*
X118845239Y-63452381D01*
X118940477Y-63404762D01*
X118988096Y-63357143D01*
X119035715Y-63261905D01*
X119035715Y-63023810D01*
X118988096Y-62928571D01*
X118940477Y-62880952D01*
X118845239Y-62833333D01*
X118654762Y-62833333D01*
X118559524Y-62880952D01*
X118511905Y-62928571D01*
X118464286Y-63023810D01*
X102833334Y-74357143D02*
X102785715Y-74404762D01*
X102642858Y-74452381D01*
X102547620Y-74452381D01*
X102404762Y-74404762D01*
X102309524Y-74309524D01*
X102261905Y-74214286D01*
X102214286Y-74023810D01*
X102214286Y-73880952D01*
X102261905Y-73690476D01*
X102309524Y-73595238D01*
X102404762Y-73500000D01*
X102547620Y-73452381D01*
X102642858Y-73452381D01*
X102785715Y-73500000D01*
X102833334Y-73547619D01*
X103166667Y-73452381D02*
X103833334Y-73452381D01*
X103404762Y-74452381D01*
X106333334Y-64607143D02*
X106285715Y-64654762D01*
X106142858Y-64702381D01*
X106047620Y-64702381D01*
X105904762Y-64654762D01*
X105809524Y-64559524D01*
X105761905Y-64464286D01*
X105714286Y-64273810D01*
X105714286Y-64130952D01*
X105761905Y-63940476D01*
X105809524Y-63845238D01*
X105904762Y-63750000D01*
X106047620Y-63702381D01*
X106142858Y-63702381D01*
X106285715Y-63750000D01*
X106333334Y-63797619D01*
X106904762Y-64130952D02*
X106809524Y-64083333D01*
X106761905Y-64035714D01*
X106714286Y-63940476D01*
X106714286Y-63892857D01*
X106761905Y-63797619D01*
X106809524Y-63750000D01*
X106904762Y-63702381D01*
X107095239Y-63702381D01*
X107190477Y-63750000D01*
X107238096Y-63797619D01*
X107285715Y-63892857D01*
X107285715Y-63940476D01*
X107238096Y-64035714D01*
X107190477Y-64083333D01*
X107095239Y-64130952D01*
X106904762Y-64130952D01*
X106809524Y-64178571D01*
X106761905Y-64226190D01*
X106714286Y-64321429D01*
X106714286Y-64511905D01*
X106761905Y-64607143D01*
X106809524Y-64654762D01*
X106904762Y-64702381D01*
X107095239Y-64702381D01*
X107190477Y-64654762D01*
X107238096Y-64607143D01*
X107285715Y-64511905D01*
X107285715Y-64321429D01*
X107238096Y-64226190D01*
X107190477Y-64178571D01*
X107095239Y-64130952D01*
X86283994Y-96406603D02*
X86236375Y-96454222D01*
X86093518Y-96501841D01*
X85998280Y-96501841D01*
X85855422Y-96454222D01*
X85760184Y-96358984D01*
X85712565Y-96263746D01*
X85664946Y-96073270D01*
X85664946Y-95930412D01*
X85712565Y-95739936D01*
X85760184Y-95644698D01*
X85855422Y-95549460D01*
X85998280Y-95501841D01*
X86093518Y-95501841D01*
X86236375Y-95549460D01*
X86283994Y-95597079D01*
X86760184Y-96501841D02*
X86950660Y-96501841D01*
X87045899Y-96454222D01*
X87093518Y-96406603D01*
X87188756Y-96263746D01*
X87236375Y-96073270D01*
X87236375Y-95692317D01*
X87188756Y-95597079D01*
X87141137Y-95549460D01*
X87045899Y-95501841D01*
X86855422Y-95501841D01*
X86760184Y-95549460D01*
X86712565Y-95597079D01*
X86664946Y-95692317D01*
X86664946Y-95930412D01*
X86712565Y-96025650D01*
X86760184Y-96073270D01*
X86855422Y-96120889D01*
X87045899Y-96120889D01*
X87141137Y-96073270D01*
X87188756Y-96025650D01*
X87236375Y-95930412D01*
X97007143Y-105642857D02*
X97054762Y-105690476D01*
X97102381Y-105833333D01*
X97102381Y-105928571D01*
X97054762Y-106071429D01*
X96959524Y-106166667D01*
X96864286Y-106214286D01*
X96673810Y-106261905D01*
X96530952Y-106261905D01*
X96340476Y-106214286D01*
X96245238Y-106166667D01*
X96150000Y-106071429D01*
X96102381Y-105928571D01*
X96102381Y-105833333D01*
X96150000Y-105690476D01*
X96197619Y-105642857D01*
X97102381Y-104690476D02*
X97102381Y-105261905D01*
X97102381Y-104976191D02*
X96102381Y-104976191D01*
X96245238Y-105071429D01*
X96340476Y-105166667D01*
X96388095Y-105261905D01*
X96102381Y-104071429D02*
X96102381Y-103976190D01*
X96150000Y-103880952D01*
X96197619Y-103833333D01*
X96292857Y-103785714D01*
X96483333Y-103738095D01*
X96721429Y-103738095D01*
X96911905Y-103785714D01*
X97007143Y-103833333D01*
X97054762Y-103880952D01*
X97102381Y-103976190D01*
X97102381Y-104071429D01*
X97054762Y-104166667D01*
X97007143Y-104214286D01*
X96911905Y-104261905D01*
X96721429Y-104309524D01*
X96483333Y-104309524D01*
X96292857Y-104261905D01*
X96197619Y-104214286D01*
X96150000Y-104166667D01*
X96102381Y-104071429D01*
X99607143Y-71107143D02*
X99559524Y-71154762D01*
X99416667Y-71202381D01*
X99321429Y-71202381D01*
X99178571Y-71154762D01*
X99083333Y-71059524D01*
X99035714Y-70964286D01*
X98988095Y-70773810D01*
X98988095Y-70630952D01*
X99035714Y-70440476D01*
X99083333Y-70345238D01*
X99178571Y-70250000D01*
X99321429Y-70202381D01*
X99416667Y-70202381D01*
X99559524Y-70250000D01*
X99607143Y-70297619D01*
X100559524Y-71202381D02*
X99988095Y-71202381D01*
X100273809Y-71202381D02*
X100273809Y-70202381D01*
X100178571Y-70345238D01*
X100083333Y-70440476D01*
X99988095Y-70488095D01*
X101511905Y-71202381D02*
X100940476Y-71202381D01*
X101226190Y-71202381D02*
X101226190Y-70202381D01*
X101130952Y-70345238D01*
X101035714Y-70440476D01*
X100940476Y-70488095D01*
X93507143Y-105642857D02*
X93554762Y-105690476D01*
X93602381Y-105833333D01*
X93602381Y-105928571D01*
X93554762Y-106071429D01*
X93459524Y-106166667D01*
X93364286Y-106214286D01*
X93173810Y-106261905D01*
X93030952Y-106261905D01*
X92840476Y-106214286D01*
X92745238Y-106166667D01*
X92650000Y-106071429D01*
X92602381Y-105928571D01*
X92602381Y-105833333D01*
X92650000Y-105690476D01*
X92697619Y-105642857D01*
X93602381Y-104690476D02*
X93602381Y-105261905D01*
X93602381Y-104976191D02*
X92602381Y-104976191D01*
X92745238Y-105071429D01*
X92840476Y-105166667D01*
X92888095Y-105261905D01*
X92697619Y-104309524D02*
X92650000Y-104261905D01*
X92602381Y-104166667D01*
X92602381Y-103928571D01*
X92650000Y-103833333D01*
X92697619Y-103785714D01*
X92792857Y-103738095D01*
X92888095Y-103738095D01*
X93030952Y-103785714D01*
X93602381Y-104357143D01*
X93602381Y-103738095D01*
X99857143Y-68857143D02*
X99809524Y-68904762D01*
X99666667Y-68952381D01*
X99571429Y-68952381D01*
X99428571Y-68904762D01*
X99333333Y-68809524D01*
X99285714Y-68714286D01*
X99238095Y-68523810D01*
X99238095Y-68380952D01*
X99285714Y-68190476D01*
X99333333Y-68095238D01*
X99428571Y-68000000D01*
X99571429Y-67952381D01*
X99666667Y-67952381D01*
X99809524Y-68000000D01*
X99857143Y-68047619D01*
X100809524Y-68952381D02*
X100238095Y-68952381D01*
X100523809Y-68952381D02*
X100523809Y-67952381D01*
X100428571Y-68095238D01*
X100333333Y-68190476D01*
X100238095Y-68238095D01*
X101142857Y-67952381D02*
X101761905Y-67952381D01*
X101428571Y-68333333D01*
X101571429Y-68333333D01*
X101666667Y-68380952D01*
X101714286Y-68428571D01*
X101761905Y-68523810D01*
X101761905Y-68761905D01*
X101714286Y-68857143D01*
X101666667Y-68904762D01*
X101571429Y-68952381D01*
X101285714Y-68952381D01*
X101190476Y-68904762D01*
X101142857Y-68857143D01*
X90007143Y-105642857D02*
X90054762Y-105690476D01*
X90102381Y-105833333D01*
X90102381Y-105928571D01*
X90054762Y-106071429D01*
X89959524Y-106166667D01*
X89864286Y-106214286D01*
X89673810Y-106261905D01*
X89530952Y-106261905D01*
X89340476Y-106214286D01*
X89245238Y-106166667D01*
X89150000Y-106071429D01*
X89102381Y-105928571D01*
X89102381Y-105833333D01*
X89150000Y-105690476D01*
X89197619Y-105642857D01*
X90102381Y-104690476D02*
X90102381Y-105261905D01*
X90102381Y-104976191D02*
X89102381Y-104976191D01*
X89245238Y-105071429D01*
X89340476Y-105166667D01*
X89388095Y-105261905D01*
X89435714Y-103833333D02*
X90102381Y-103833333D01*
X89054762Y-104071429D02*
X89769048Y-104309524D01*
X89769048Y-103690476D01*
X85107143Y-100707143D02*
X85059524Y-100754762D01*
X84916667Y-100802381D01*
X84821429Y-100802381D01*
X84678571Y-100754762D01*
X84583333Y-100659524D01*
X84535714Y-100564286D01*
X84488095Y-100373810D01*
X84488095Y-100230952D01*
X84535714Y-100040476D01*
X84583333Y-99945238D01*
X84678571Y-99850000D01*
X84821429Y-99802381D01*
X84916667Y-99802381D01*
X85059524Y-99850000D01*
X85107143Y-99897619D01*
X86059524Y-100802381D02*
X85488095Y-100802381D01*
X85773809Y-100802381D02*
X85773809Y-99802381D01*
X85678571Y-99945238D01*
X85583333Y-100040476D01*
X85488095Y-100088095D01*
X86964286Y-99802381D02*
X86488095Y-99802381D01*
X86440476Y-100278571D01*
X86488095Y-100230952D01*
X86583333Y-100183333D01*
X86821429Y-100183333D01*
X86916667Y-100230952D01*
X86964286Y-100278571D01*
X87011905Y-100373810D01*
X87011905Y-100611905D01*
X86964286Y-100707143D01*
X86916667Y-100754762D01*
X86821429Y-100802381D01*
X86583333Y-100802381D01*
X86488095Y-100754762D01*
X86440476Y-100707143D01*
X84757143Y-106392857D02*
X84804762Y-106440476D01*
X84852381Y-106583333D01*
X84852381Y-106678571D01*
X84804762Y-106821429D01*
X84709524Y-106916667D01*
X84614286Y-106964286D01*
X84423810Y-107011905D01*
X84280952Y-107011905D01*
X84090476Y-106964286D01*
X83995238Y-106916667D01*
X83900000Y-106821429D01*
X83852381Y-106678571D01*
X83852381Y-106583333D01*
X83900000Y-106440476D01*
X83947619Y-106392857D01*
X84852381Y-105440476D02*
X84852381Y-106011905D01*
X84852381Y-105726191D02*
X83852381Y-105726191D01*
X83995238Y-105821429D01*
X84090476Y-105916667D01*
X84138095Y-106011905D01*
X83852381Y-104583333D02*
X83852381Y-104773810D01*
X83900000Y-104869048D01*
X83947619Y-104916667D01*
X84090476Y-105011905D01*
X84280952Y-105059524D01*
X84661905Y-105059524D01*
X84757143Y-105011905D01*
X84804762Y-104964286D01*
X84852381Y-104869048D01*
X84852381Y-104678571D01*
X84804762Y-104583333D01*
X84757143Y-104535714D01*
X84661905Y-104488095D01*
X84423810Y-104488095D01*
X84328571Y-104535714D01*
X84280952Y-104583333D01*
X84233333Y-104678571D01*
X84233333Y-104869048D01*
X84280952Y-104964286D01*
X84328571Y-105011905D01*
X84423810Y-105059524D01*
X158357143Y-58357143D02*
X158309524Y-58404762D01*
X158166667Y-58452381D01*
X158071429Y-58452381D01*
X157928571Y-58404762D01*
X157833333Y-58309524D01*
X157785714Y-58214286D01*
X157738095Y-58023810D01*
X157738095Y-57880952D01*
X157785714Y-57690476D01*
X157833333Y-57595238D01*
X157928571Y-57500000D01*
X158071429Y-57452381D01*
X158166667Y-57452381D01*
X158309524Y-57500000D01*
X158357143Y-57547619D01*
X159309524Y-58452381D02*
X158738095Y-58452381D01*
X159023809Y-58452381D02*
X159023809Y-57452381D01*
X158928571Y-57595238D01*
X158833333Y-57690476D01*
X158738095Y-57738095D01*
X159642857Y-57452381D02*
X160309524Y-57452381D01*
X159880952Y-58452381D01*
X73607143Y-100357143D02*
X73559524Y-100404762D01*
X73416667Y-100452381D01*
X73321429Y-100452381D01*
X73178571Y-100404762D01*
X73083333Y-100309524D01*
X73035714Y-100214286D01*
X72988095Y-100023810D01*
X72988095Y-99880952D01*
X73035714Y-99690476D01*
X73083333Y-99595238D01*
X73178571Y-99500000D01*
X73321429Y-99452381D01*
X73416667Y-99452381D01*
X73559524Y-99500000D01*
X73607143Y-99547619D01*
X74559524Y-100452381D02*
X73988095Y-100452381D01*
X74273809Y-100452381D02*
X74273809Y-99452381D01*
X74178571Y-99595238D01*
X74083333Y-99690476D01*
X73988095Y-99738095D01*
X75130952Y-99880952D02*
X75035714Y-99833333D01*
X74988095Y-99785714D01*
X74940476Y-99690476D01*
X74940476Y-99642857D01*
X74988095Y-99547619D01*
X75035714Y-99500000D01*
X75130952Y-99452381D01*
X75321429Y-99452381D01*
X75416667Y-99500000D01*
X75464286Y-99547619D01*
X75511905Y-99642857D01*
X75511905Y-99690476D01*
X75464286Y-99785714D01*
X75416667Y-99833333D01*
X75321429Y-99880952D01*
X75130952Y-99880952D01*
X75035714Y-99928571D01*
X74988095Y-99976190D01*
X74940476Y-100071429D01*
X74940476Y-100261905D01*
X74988095Y-100357143D01*
X75035714Y-100404762D01*
X75130952Y-100452381D01*
X75321429Y-100452381D01*
X75416667Y-100404762D01*
X75464286Y-100357143D01*
X75511905Y-100261905D01*
X75511905Y-100071429D01*
X75464286Y-99976190D01*
X75416667Y-99928571D01*
X75321429Y-99880952D01*
X72607143Y-108107143D02*
X72559524Y-108154762D01*
X72416667Y-108202381D01*
X72321429Y-108202381D01*
X72178571Y-108154762D01*
X72083333Y-108059524D01*
X72035714Y-107964286D01*
X71988095Y-107773810D01*
X71988095Y-107630952D01*
X72035714Y-107440476D01*
X72083333Y-107345238D01*
X72178571Y-107250000D01*
X72321429Y-107202381D01*
X72416667Y-107202381D01*
X72559524Y-107250000D01*
X72607143Y-107297619D01*
X73559524Y-108202381D02*
X72988095Y-108202381D01*
X73273809Y-108202381D02*
X73273809Y-107202381D01*
X73178571Y-107345238D01*
X73083333Y-107440476D01*
X72988095Y-107488095D01*
X74035714Y-108202381D02*
X74226190Y-108202381D01*
X74321429Y-108154762D01*
X74369048Y-108107143D01*
X74464286Y-107964286D01*
X74511905Y-107773810D01*
X74511905Y-107392857D01*
X74464286Y-107297619D01*
X74416667Y-107250000D01*
X74321429Y-107202381D01*
X74130952Y-107202381D01*
X74035714Y-107250000D01*
X73988095Y-107297619D01*
X73940476Y-107392857D01*
X73940476Y-107630952D01*
X73988095Y-107726190D01*
X74035714Y-107773810D01*
X74130952Y-107821429D01*
X74321429Y-107821429D01*
X74416667Y-107773810D01*
X74464286Y-107726190D01*
X74511905Y-107630952D01*
X174007143Y-70642857D02*
X174054762Y-70690476D01*
X174102381Y-70833333D01*
X174102381Y-70928571D01*
X174054762Y-71071429D01*
X173959524Y-71166667D01*
X173864286Y-71214286D01*
X173673810Y-71261905D01*
X173530952Y-71261905D01*
X173340476Y-71214286D01*
X173245238Y-71166667D01*
X173150000Y-71071429D01*
X173102381Y-70928571D01*
X173102381Y-70833333D01*
X173150000Y-70690476D01*
X173197619Y-70642857D01*
X173197619Y-70261905D02*
X173150000Y-70214286D01*
X173102381Y-70119048D01*
X173102381Y-69880952D01*
X173150000Y-69785714D01*
X173197619Y-69738095D01*
X173292857Y-69690476D01*
X173388095Y-69690476D01*
X173530952Y-69738095D01*
X174102381Y-70309524D01*
X174102381Y-69690476D01*
X173102381Y-69071429D02*
X173102381Y-68976190D01*
X173150000Y-68880952D01*
X173197619Y-68833333D01*
X173292857Y-68785714D01*
X173483333Y-68738095D01*
X173721429Y-68738095D01*
X173911905Y-68785714D01*
X174007143Y-68833333D01*
X174054762Y-68880952D01*
X174102381Y-68976190D01*
X174102381Y-69071429D01*
X174054762Y-69166667D01*
X174007143Y-69214286D01*
X173911905Y-69261905D01*
X173721429Y-69309524D01*
X173483333Y-69309524D01*
X173292857Y-69261905D01*
X173197619Y-69214286D01*
X173150000Y-69166667D01*
X173102381Y-69071429D01*
X170261905Y-63952381D02*
X170261905Y-62952381D01*
X170500000Y-62952381D01*
X170642858Y-63000000D01*
X170738096Y-63095238D01*
X170785715Y-63190476D01*
X170833334Y-63380952D01*
X170833334Y-63523810D01*
X170785715Y-63714286D01*
X170738096Y-63809524D01*
X170642858Y-63904762D01*
X170500000Y-63952381D01*
X170261905Y-63952381D01*
X171214286Y-63047619D02*
X171261905Y-63000000D01*
X171357143Y-62952381D01*
X171595239Y-62952381D01*
X171690477Y-63000000D01*
X171738096Y-63047619D01*
X171785715Y-63142857D01*
X171785715Y-63238095D01*
X171738096Y-63380952D01*
X171166667Y-63952381D01*
X171785715Y-63952381D01*
X165583334Y-58202381D02*
X165107143Y-58202381D01*
X165107143Y-57202381D01*
X166440477Y-58202381D02*
X165869048Y-58202381D01*
X166154762Y-58202381D02*
X166154762Y-57202381D01*
X166059524Y-57345238D01*
X165964286Y-57440476D01*
X165869048Y-57488095D01*
X59357143Y-108290381D02*
X58880952Y-108290381D01*
X58880952Y-107290381D01*
X59642857Y-108242762D02*
X59785714Y-108290381D01*
X60023810Y-108290381D01*
X60119048Y-108242762D01*
X60166667Y-108195143D01*
X60214286Y-108099905D01*
X60214286Y-108004667D01*
X60166667Y-107909429D01*
X60119048Y-107861810D01*
X60023810Y-107814190D01*
X59833333Y-107766571D01*
X59738095Y-107718952D01*
X59690476Y-107671333D01*
X59642857Y-107576095D01*
X59642857Y-107480857D01*
X59690476Y-107385619D01*
X59738095Y-107338000D01*
X59833333Y-107290381D01*
X60071429Y-107290381D01*
X60214286Y-107338000D01*
X61166667Y-108290381D02*
X60595238Y-108290381D01*
X60880952Y-108290381D02*
X60880952Y-107290381D01*
X60785714Y-107433238D01*
X60690476Y-107528476D01*
X60595238Y-107576095D01*
X87511905Y-67452381D02*
X87511905Y-66452381D01*
X87892858Y-66452381D01*
X87988096Y-66500000D01*
X88035715Y-66547619D01*
X88083334Y-66642857D01*
X88083334Y-66785714D01*
X88035715Y-66880952D01*
X87988096Y-66928571D01*
X87892858Y-66976190D01*
X87511905Y-66976190D01*
X89035715Y-67452381D02*
X88464286Y-67452381D01*
X88750000Y-67452381D02*
X88750000Y-66452381D01*
X88654762Y-66595238D01*
X88559524Y-66690476D01*
X88464286Y-66738095D01*
X59531905Y-54403381D02*
X59531905Y-53403381D01*
X59912858Y-53403381D01*
X60008096Y-53451000D01*
X60055715Y-53498619D01*
X60103334Y-53593857D01*
X60103334Y-53736714D01*
X60055715Y-53831952D01*
X60008096Y-53879571D01*
X59912858Y-53927190D01*
X59531905Y-53927190D01*
X60484286Y-53498619D02*
X60531905Y-53451000D01*
X60627143Y-53403381D01*
X60865239Y-53403381D01*
X60960477Y-53451000D01*
X61008096Y-53498619D01*
X61055715Y-53593857D01*
X61055715Y-53689095D01*
X61008096Y-53831952D01*
X60436667Y-54403381D01*
X61055715Y-54403381D01*
X113083334Y-58702381D02*
X112750000Y-58226190D01*
X112511905Y-58702381D02*
X112511905Y-57702381D01*
X112892858Y-57702381D01*
X112988096Y-57750000D01*
X113035715Y-57797619D01*
X113083334Y-57892857D01*
X113083334Y-58035714D01*
X113035715Y-58130952D01*
X112988096Y-58178571D01*
X112892858Y-58226190D01*
X112511905Y-58226190D01*
X114035715Y-58702381D02*
X113464286Y-58702381D01*
X113750000Y-58702381D02*
X113750000Y-57702381D01*
X113654762Y-57845238D01*
X113559524Y-57940476D01*
X113464286Y-57988095D01*
X117083334Y-58702381D02*
X116750000Y-58226190D01*
X116511905Y-58702381D02*
X116511905Y-57702381D01*
X116892858Y-57702381D01*
X116988096Y-57750000D01*
X117035715Y-57797619D01*
X117083334Y-57892857D01*
X117083334Y-58035714D01*
X117035715Y-58130952D01*
X116988096Y-58178571D01*
X116892858Y-58226190D01*
X116511905Y-58226190D01*
X117464286Y-57797619D02*
X117511905Y-57750000D01*
X117607143Y-57702381D01*
X117845239Y-57702381D01*
X117940477Y-57750000D01*
X117988096Y-57797619D01*
X118035715Y-57892857D01*
X118035715Y-57988095D01*
X117988096Y-58130952D01*
X117416667Y-58702381D01*
X118035715Y-58702381D01*
X112833334Y-64952381D02*
X112500000Y-64476190D01*
X112261905Y-64952381D02*
X112261905Y-63952381D01*
X112642858Y-63952381D01*
X112738096Y-64000000D01*
X112785715Y-64047619D01*
X112833334Y-64142857D01*
X112833334Y-64285714D01*
X112785715Y-64380952D01*
X112738096Y-64428571D01*
X112642858Y-64476190D01*
X112261905Y-64476190D01*
X113166667Y-63952381D02*
X113785715Y-63952381D01*
X113452381Y-64333333D01*
X113595239Y-64333333D01*
X113690477Y-64380952D01*
X113738096Y-64428571D01*
X113785715Y-64523810D01*
X113785715Y-64761905D01*
X113738096Y-64857143D01*
X113690477Y-64904762D01*
X113595239Y-64952381D01*
X113309524Y-64952381D01*
X113214286Y-64904762D01*
X113166667Y-64857143D01*
X119083334Y-58702381D02*
X118750000Y-58226190D01*
X118511905Y-58702381D02*
X118511905Y-57702381D01*
X118892858Y-57702381D01*
X118988096Y-57750000D01*
X119035715Y-57797619D01*
X119083334Y-57892857D01*
X119083334Y-58035714D01*
X119035715Y-58130952D01*
X118988096Y-58178571D01*
X118892858Y-58226190D01*
X118511905Y-58226190D01*
X119940477Y-58035714D02*
X119940477Y-58702381D01*
X119702381Y-57654762D02*
X119464286Y-58369048D01*
X120083334Y-58369048D01*
X111083334Y-58702381D02*
X110750000Y-58226190D01*
X110511905Y-58702381D02*
X110511905Y-57702381D01*
X110892858Y-57702381D01*
X110988096Y-57750000D01*
X111035715Y-57797619D01*
X111083334Y-57892857D01*
X111083334Y-58035714D01*
X111035715Y-58130952D01*
X110988096Y-58178571D01*
X110892858Y-58226190D01*
X110511905Y-58226190D01*
X111988096Y-57702381D02*
X111511905Y-57702381D01*
X111464286Y-58178571D01*
X111511905Y-58130952D01*
X111607143Y-58083333D01*
X111845239Y-58083333D01*
X111940477Y-58130952D01*
X111988096Y-58178571D01*
X112035715Y-58273810D01*
X112035715Y-58511905D01*
X111988096Y-58607143D01*
X111940477Y-58654762D01*
X111845239Y-58702381D01*
X111607143Y-58702381D01*
X111511905Y-58654762D01*
X111464286Y-58607143D01*
X96333334Y-100802381D02*
X96000000Y-100326190D01*
X95761905Y-100802381D02*
X95761905Y-99802381D01*
X96142858Y-99802381D01*
X96238096Y-99850000D01*
X96285715Y-99897619D01*
X96333334Y-99992857D01*
X96333334Y-100135714D01*
X96285715Y-100230952D01*
X96238096Y-100278571D01*
X96142858Y-100326190D01*
X95761905Y-100326190D01*
X97190477Y-99802381D02*
X97000000Y-99802381D01*
X96904762Y-99850000D01*
X96857143Y-99897619D01*
X96761905Y-100040476D01*
X96714286Y-100230952D01*
X96714286Y-100611905D01*
X96761905Y-100707143D01*
X96809524Y-100754762D01*
X96904762Y-100802381D01*
X97095239Y-100802381D01*
X97190477Y-100754762D01*
X97238096Y-100707143D01*
X97285715Y-100611905D01*
X97285715Y-100373810D01*
X97238096Y-100278571D01*
X97190477Y-100230952D01*
X97095239Y-100183333D01*
X96904762Y-100183333D01*
X96809524Y-100230952D01*
X96761905Y-100278571D01*
X96714286Y-100373810D01*
X92833334Y-100802381D02*
X92500000Y-100326190D01*
X92261905Y-100802381D02*
X92261905Y-99802381D01*
X92642858Y-99802381D01*
X92738096Y-99850000D01*
X92785715Y-99897619D01*
X92833334Y-99992857D01*
X92833334Y-100135714D01*
X92785715Y-100230952D01*
X92738096Y-100278571D01*
X92642858Y-100326190D01*
X92261905Y-100326190D01*
X93166667Y-99802381D02*
X93833334Y-99802381D01*
X93404762Y-100802381D01*
X89333334Y-100802381D02*
X89000000Y-100326190D01*
X88761905Y-100802381D02*
X88761905Y-99802381D01*
X89142858Y-99802381D01*
X89238096Y-99850000D01*
X89285715Y-99897619D01*
X89333334Y-99992857D01*
X89333334Y-100135714D01*
X89285715Y-100230952D01*
X89238096Y-100278571D01*
X89142858Y-100326190D01*
X88761905Y-100326190D01*
X89904762Y-100230952D02*
X89809524Y-100183333D01*
X89761905Y-100135714D01*
X89714286Y-100040476D01*
X89714286Y-99992857D01*
X89761905Y-99897619D01*
X89809524Y-99850000D01*
X89904762Y-99802381D01*
X90095239Y-99802381D01*
X90190477Y-99850000D01*
X90238096Y-99897619D01*
X90285715Y-99992857D01*
X90285715Y-100040476D01*
X90238096Y-100135714D01*
X90190477Y-100183333D01*
X90095239Y-100230952D01*
X89904762Y-100230952D01*
X89809524Y-100278571D01*
X89761905Y-100326190D01*
X89714286Y-100421429D01*
X89714286Y-100611905D01*
X89761905Y-100707143D01*
X89809524Y-100754762D01*
X89904762Y-100802381D01*
X90095239Y-100802381D01*
X90190477Y-100754762D01*
X90238096Y-100707143D01*
X90285715Y-100611905D01*
X90285715Y-100421429D01*
X90238096Y-100326190D01*
X90190477Y-100278571D01*
X90095239Y-100230952D01*
X82333334Y-100802381D02*
X82000000Y-100326190D01*
X81761905Y-100802381D02*
X81761905Y-99802381D01*
X82142858Y-99802381D01*
X82238096Y-99850000D01*
X82285715Y-99897619D01*
X82333334Y-99992857D01*
X82333334Y-100135714D01*
X82285715Y-100230952D01*
X82238096Y-100278571D01*
X82142858Y-100326190D01*
X81761905Y-100326190D01*
X82809524Y-100802381D02*
X83000000Y-100802381D01*
X83095239Y-100754762D01*
X83142858Y-100707143D01*
X83238096Y-100564286D01*
X83285715Y-100373810D01*
X83285715Y-99992857D01*
X83238096Y-99897619D01*
X83190477Y-99850000D01*
X83095239Y-99802381D01*
X82904762Y-99802381D01*
X82809524Y-99850000D01*
X82761905Y-99897619D01*
X82714286Y-99992857D01*
X82714286Y-100230952D01*
X82761905Y-100326190D01*
X82809524Y-100373810D01*
X82904762Y-100421429D01*
X83095239Y-100421429D01*
X83190477Y-100373810D01*
X83238096Y-100326190D01*
X83285715Y-100230952D01*
X73607143Y-102702381D02*
X73273809Y-102226190D01*
X73035714Y-102702381D02*
X73035714Y-101702381D01*
X73416667Y-101702381D01*
X73511905Y-101750000D01*
X73559524Y-101797619D01*
X73607143Y-101892857D01*
X73607143Y-102035714D01*
X73559524Y-102130952D01*
X73511905Y-102178571D01*
X73416667Y-102226190D01*
X73035714Y-102226190D01*
X74559524Y-102702381D02*
X73988095Y-102702381D01*
X74273809Y-102702381D02*
X74273809Y-101702381D01*
X74178571Y-101845238D01*
X74083333Y-101940476D01*
X73988095Y-101988095D01*
X75178571Y-101702381D02*
X75273810Y-101702381D01*
X75369048Y-101750000D01*
X75416667Y-101797619D01*
X75464286Y-101892857D01*
X75511905Y-102083333D01*
X75511905Y-102321429D01*
X75464286Y-102511905D01*
X75416667Y-102607143D01*
X75369048Y-102654762D01*
X75273810Y-102702381D01*
X75178571Y-102702381D01*
X75083333Y-102654762D01*
X75035714Y-102607143D01*
X74988095Y-102511905D01*
X74940476Y-102321429D01*
X74940476Y-102083333D01*
X74988095Y-101892857D01*
X75035714Y-101797619D01*
X75083333Y-101750000D01*
X75178571Y-101702381D01*
X173607143Y-67202381D02*
X173273809Y-66726190D01*
X173035714Y-67202381D02*
X173035714Y-66202381D01*
X173416667Y-66202381D01*
X173511905Y-66250000D01*
X173559524Y-66297619D01*
X173607143Y-66392857D01*
X173607143Y-66535714D01*
X173559524Y-66630952D01*
X173511905Y-66678571D01*
X173416667Y-66726190D01*
X173035714Y-66726190D01*
X174559524Y-67202381D02*
X173988095Y-67202381D01*
X174273809Y-67202381D02*
X174273809Y-66202381D01*
X174178571Y-66345238D01*
X174083333Y-66440476D01*
X173988095Y-66488095D01*
X175511905Y-67202381D02*
X174940476Y-67202381D01*
X175226190Y-67202381D02*
X175226190Y-66202381D01*
X175130952Y-66345238D01*
X175035714Y-66440476D01*
X174940476Y-66488095D01*
X171352381Y-80642857D02*
X170876190Y-80976191D01*
X171352381Y-81214286D02*
X170352381Y-81214286D01*
X170352381Y-80833333D01*
X170400000Y-80738095D01*
X170447619Y-80690476D01*
X170542857Y-80642857D01*
X170685714Y-80642857D01*
X170780952Y-80690476D01*
X170828571Y-80738095D01*
X170876190Y-80833333D01*
X170876190Y-81214286D01*
X171352381Y-79690476D02*
X171352381Y-80261905D01*
X171352381Y-79976191D02*
X170352381Y-79976191D01*
X170495238Y-80071429D01*
X170590476Y-80166667D01*
X170638095Y-80261905D01*
X170447619Y-79309524D02*
X170400000Y-79261905D01*
X170352381Y-79166667D01*
X170352381Y-78928571D01*
X170400000Y-78833333D01*
X170447619Y-78785714D01*
X170542857Y-78738095D01*
X170638095Y-78738095D01*
X170780952Y-78785714D01*
X171352381Y-79357143D01*
X171352381Y-78738095D01*
X175352381Y-80642857D02*
X174876190Y-80976191D01*
X175352381Y-81214286D02*
X174352381Y-81214286D01*
X174352381Y-80833333D01*
X174400000Y-80738095D01*
X174447619Y-80690476D01*
X174542857Y-80642857D01*
X174685714Y-80642857D01*
X174780952Y-80690476D01*
X174828571Y-80738095D01*
X174876190Y-80833333D01*
X174876190Y-81214286D01*
X175352381Y-79690476D02*
X175352381Y-80261905D01*
X175352381Y-79976191D02*
X174352381Y-79976191D01*
X174495238Y-80071429D01*
X174590476Y-80166667D01*
X174638095Y-80261905D01*
X174352381Y-79357143D02*
X174352381Y-78738095D01*
X174733333Y-79071429D01*
X174733333Y-78928571D01*
X174780952Y-78833333D01*
X174828571Y-78785714D01*
X174923810Y-78738095D01*
X175161905Y-78738095D01*
X175257143Y-78785714D01*
X175304762Y-78833333D01*
X175352381Y-78928571D01*
X175352381Y-79214286D01*
X175304762Y-79309524D01*
X175257143Y-79357143D01*
X166357143Y-76702381D02*
X166023809Y-76226190D01*
X165785714Y-76702381D02*
X165785714Y-75702381D01*
X166166667Y-75702381D01*
X166261905Y-75750000D01*
X166309524Y-75797619D01*
X166357143Y-75892857D01*
X166357143Y-76035714D01*
X166309524Y-76130952D01*
X166261905Y-76178571D01*
X166166667Y-76226190D01*
X165785714Y-76226190D01*
X167309524Y-76702381D02*
X166738095Y-76702381D01*
X167023809Y-76702381D02*
X167023809Y-75702381D01*
X166928571Y-75845238D01*
X166833333Y-75940476D01*
X166738095Y-75988095D01*
X168166667Y-76035714D02*
X168166667Y-76702381D01*
X167928571Y-75654762D02*
X167690476Y-76369048D01*
X168309524Y-76369048D01*
X166357143Y-74702381D02*
X166023809Y-74226190D01*
X165785714Y-74702381D02*
X165785714Y-73702381D01*
X166166667Y-73702381D01*
X166261905Y-73750000D01*
X166309524Y-73797619D01*
X166357143Y-73892857D01*
X166357143Y-74035714D01*
X166309524Y-74130952D01*
X166261905Y-74178571D01*
X166166667Y-74226190D01*
X165785714Y-74226190D01*
X167309524Y-74702381D02*
X166738095Y-74702381D01*
X167023809Y-74702381D02*
X167023809Y-73702381D01*
X166928571Y-73845238D01*
X166833333Y-73940476D01*
X166738095Y-73988095D01*
X168214286Y-73702381D02*
X167738095Y-73702381D01*
X167690476Y-74178571D01*
X167738095Y-74130952D01*
X167833333Y-74083333D01*
X168071429Y-74083333D01*
X168166667Y-74130952D01*
X168214286Y-74178571D01*
X168261905Y-74273810D01*
X168261905Y-74511905D01*
X168214286Y-74607143D01*
X168166667Y-74654762D01*
X168071429Y-74702381D01*
X167833333Y-74702381D01*
X167738095Y-74654762D01*
X167690476Y-74607143D01*
X166357143Y-72702381D02*
X166023809Y-72226190D01*
X165785714Y-72702381D02*
X165785714Y-71702381D01*
X166166667Y-71702381D01*
X166261905Y-71750000D01*
X166309524Y-71797619D01*
X166357143Y-71892857D01*
X166357143Y-72035714D01*
X166309524Y-72130952D01*
X166261905Y-72178571D01*
X166166667Y-72226190D01*
X165785714Y-72226190D01*
X167309524Y-72702381D02*
X166738095Y-72702381D01*
X167023809Y-72702381D02*
X167023809Y-71702381D01*
X166928571Y-71845238D01*
X166833333Y-71940476D01*
X166738095Y-71988095D01*
X168166667Y-71702381D02*
X167976190Y-71702381D01*
X167880952Y-71750000D01*
X167833333Y-71797619D01*
X167738095Y-71940476D01*
X167690476Y-72130952D01*
X167690476Y-72511905D01*
X167738095Y-72607143D01*
X167785714Y-72654762D01*
X167880952Y-72702381D01*
X168071429Y-72702381D01*
X168166667Y-72654762D01*
X168214286Y-72607143D01*
X168261905Y-72511905D01*
X168261905Y-72273810D01*
X168214286Y-72178571D01*
X168166667Y-72130952D01*
X168071429Y-72083333D01*
X167880952Y-72083333D01*
X167785714Y-72130952D01*
X167738095Y-72178571D01*
X167690476Y-72273810D01*
X166357143Y-70702381D02*
X166023809Y-70226190D01*
X165785714Y-70702381D02*
X165785714Y-69702381D01*
X166166667Y-69702381D01*
X166261905Y-69750000D01*
X166309524Y-69797619D01*
X166357143Y-69892857D01*
X166357143Y-70035714D01*
X166309524Y-70130952D01*
X166261905Y-70178571D01*
X166166667Y-70226190D01*
X165785714Y-70226190D01*
X167309524Y-70702381D02*
X166738095Y-70702381D01*
X167023809Y-70702381D02*
X167023809Y-69702381D01*
X166928571Y-69845238D01*
X166833333Y-69940476D01*
X166738095Y-69988095D01*
X167642857Y-69702381D02*
X168309524Y-69702381D01*
X167880952Y-70702381D01*
X123309524Y-61952381D02*
X122976190Y-61476190D01*
X122738095Y-61952381D02*
X122738095Y-60952381D01*
X123119048Y-60952381D01*
X123214286Y-61000000D01*
X123261905Y-61047619D01*
X123309524Y-61142857D01*
X123309524Y-61285714D01*
X123261905Y-61380952D01*
X123214286Y-61428571D01*
X123119048Y-61476190D01*
X122738095Y-61476190D01*
X123738095Y-61952381D02*
X123738095Y-60952381D01*
X124309524Y-61952381D01*
X124309524Y-60952381D01*
X125309524Y-61952381D02*
X124738095Y-61952381D01*
X125023809Y-61952381D02*
X125023809Y-60952381D01*
X124928571Y-61095238D01*
X124833333Y-61190476D01*
X124738095Y-61238095D01*
X121559524Y-69952381D02*
X121226190Y-69476190D01*
X120988095Y-69952381D02*
X120988095Y-68952381D01*
X121369048Y-68952381D01*
X121464286Y-69000000D01*
X121511905Y-69047619D01*
X121559524Y-69142857D01*
X121559524Y-69285714D01*
X121511905Y-69380952D01*
X121464286Y-69428571D01*
X121369048Y-69476190D01*
X120988095Y-69476190D01*
X121988095Y-69952381D02*
X121988095Y-68952381D01*
X122559524Y-69952381D01*
X122559524Y-68952381D01*
X122988095Y-69047619D02*
X123035714Y-69000000D01*
X123130952Y-68952381D01*
X123369048Y-68952381D01*
X123464286Y-69000000D01*
X123511905Y-69047619D01*
X123559524Y-69142857D01*
X123559524Y-69238095D01*
X123511905Y-69380952D01*
X122940476Y-69952381D01*
X123559524Y-69952381D01*
X116309524Y-77952381D02*
X115976190Y-77476190D01*
X115738095Y-77952381D02*
X115738095Y-76952381D01*
X116119048Y-76952381D01*
X116214286Y-77000000D01*
X116261905Y-77047619D01*
X116309524Y-77142857D01*
X116309524Y-77285714D01*
X116261905Y-77380952D01*
X116214286Y-77428571D01*
X116119048Y-77476190D01*
X115738095Y-77476190D01*
X116738095Y-77952381D02*
X116738095Y-76952381D01*
X117309524Y-77952381D01*
X117309524Y-76952381D01*
X117690476Y-76952381D02*
X118309524Y-76952381D01*
X117976190Y-77333333D01*
X118119048Y-77333333D01*
X118214286Y-77380952D01*
X118261905Y-77428571D01*
X118309524Y-77523810D01*
X118309524Y-77761905D01*
X118261905Y-77857143D01*
X118214286Y-77904762D01*
X118119048Y-77952381D01*
X117833333Y-77952381D01*
X117738095Y-77904762D01*
X117690476Y-77857143D01*
X86238095Y-82202381D02*
X86238095Y-83011905D01*
X86285714Y-83107143D01*
X86333333Y-83154762D01*
X86428571Y-83202381D01*
X86619048Y-83202381D01*
X86714286Y-83154762D01*
X86761905Y-83107143D01*
X86809524Y-83011905D01*
X86809524Y-82202381D01*
X87809524Y-83202381D02*
X87238095Y-83202381D01*
X87523809Y-83202381D02*
X87523809Y-82202381D01*
X87428571Y-82345238D01*
X87333333Y-82440476D01*
X87238095Y-82488095D01*
X106988095Y-74452381D02*
X106988095Y-75261905D01*
X107035714Y-75357143D01*
X107083333Y-75404762D01*
X107178571Y-75452381D01*
X107369048Y-75452381D01*
X107464286Y-75404762D01*
X107511905Y-75357143D01*
X107559524Y-75261905D01*
X107559524Y-74452381D01*
X107988095Y-74547619D02*
X108035714Y-74500000D01*
X108130952Y-74452381D01*
X108369048Y-74452381D01*
X108464286Y-74500000D01*
X108511905Y-74547619D01*
X108559524Y-74642857D01*
X108559524Y-74738095D01*
X108511905Y-74880952D01*
X107940476Y-75452381D01*
X108559524Y-75452381D01*
X76738095Y-107202381D02*
X76738095Y-108011905D01*
X76785714Y-108107143D01*
X76833333Y-108154762D01*
X76928571Y-108202381D01*
X77119048Y-108202381D01*
X77214286Y-108154762D01*
X77261905Y-108107143D01*
X77309524Y-108011905D01*
X77309524Y-107202381D01*
X77690476Y-107202381D02*
X78309524Y-107202381D01*
X77976190Y-107583333D01*
X78119048Y-107583333D01*
X78214286Y-107630952D01*
X78261905Y-107678571D01*
X78309524Y-107773810D01*
X78309524Y-108011905D01*
X78261905Y-108107143D01*
X78214286Y-108154762D01*
X78119048Y-108202381D01*
X77833333Y-108202381D01*
X77738095Y-108154762D01*
X77690476Y-108107143D01*
D14*
X104637143Y-61981857D02*
X104637143Y-62344714D01*
X104383143Y-61582714D02*
X104637143Y-61981857D01*
X104891143Y-61582714D01*
X105544286Y-62344714D02*
X105108858Y-62344714D01*
X105326572Y-62344714D02*
X105326572Y-61582714D01*
X105254001Y-61691571D01*
X105181429Y-61764143D01*
X105108858Y-61800429D01*
D11*
X172166667Y-61452381D02*
X172166667Y-60452381D01*
X172500001Y-61166667D01*
X172833334Y-60452381D01*
X172833334Y-61452381D01*
X173309524Y-61452381D02*
X173309524Y-60452381D01*
X173309524Y-60928571D02*
X173880953Y-60928571D01*
X173880953Y-61452381D02*
X173880953Y-60452381D01*
X174880953Y-61452381D02*
X174309524Y-61452381D01*
X174595238Y-61452381D02*
X174595238Y-60452381D01*
X174500000Y-60595238D01*
X174404762Y-60690476D01*
X174309524Y-60738095D01*
X172166667Y-89452381D02*
X172166667Y-88452381D01*
X172500001Y-89166667D01*
X172833334Y-88452381D01*
X172833334Y-89452381D01*
X173309524Y-89452381D02*
X173309524Y-88452381D01*
X173309524Y-88928571D02*
X173880953Y-88928571D01*
X173880953Y-89452381D02*
X173880953Y-88452381D01*
X174309524Y-88547619D02*
X174357143Y-88500000D01*
X174452381Y-88452381D01*
X174690477Y-88452381D01*
X174785715Y-88500000D01*
X174833334Y-88547619D01*
X174880953Y-88642857D01*
X174880953Y-88738095D01*
X174833334Y-88880952D01*
X174261905Y-89452381D01*
X174880953Y-89452381D01*
X71166667Y-61202381D02*
X71166667Y-60202381D01*
X71500001Y-60916667D01*
X71833334Y-60202381D01*
X71833334Y-61202381D01*
X72309524Y-61202381D02*
X72309524Y-60202381D01*
X72309524Y-60678571D02*
X72880953Y-60678571D01*
X72880953Y-61202381D02*
X72880953Y-60202381D01*
X73261905Y-60202381D02*
X73880953Y-60202381D01*
X73547619Y-60583333D01*
X73690477Y-60583333D01*
X73785715Y-60630952D01*
X73833334Y-60678571D01*
X73880953Y-60773810D01*
X73880953Y-61011905D01*
X73833334Y-61107143D01*
X73785715Y-61154762D01*
X73690477Y-61202381D01*
X73404762Y-61202381D01*
X73309524Y-61154762D01*
X73261905Y-61107143D01*
X71166667Y-119452381D02*
X71166667Y-118452381D01*
X71500001Y-119166667D01*
X71833334Y-118452381D01*
X71833334Y-119452381D01*
X72309524Y-119452381D02*
X72309524Y-118452381D01*
X72309524Y-118928571D02*
X72880953Y-118928571D01*
X72880953Y-119452381D02*
X72880953Y-118452381D01*
X73785715Y-118785714D02*
X73785715Y-119452381D01*
X73547619Y-118404762D02*
X73309524Y-119119048D01*
X73928572Y-119119048D01*
X168488095Y-57202381D02*
X168488095Y-58011905D01*
X168535714Y-58107143D01*
X168583333Y-58154762D01*
X168678571Y-58202381D01*
X168869048Y-58202381D01*
X168964286Y-58154762D01*
X169011905Y-58107143D01*
X169059524Y-58011905D01*
X169059524Y-57202381D01*
X169964286Y-57535714D02*
X169964286Y-58202381D01*
X169726190Y-57154762D02*
X169488095Y-57869048D01*
X170107143Y-57869048D01*
X162952381Y-66238095D02*
X161952381Y-66238095D01*
X161952381Y-66000000D01*
X162000000Y-65857142D01*
X162095238Y-65761904D01*
X162190476Y-65714285D01*
X162380952Y-65666666D01*
X162523810Y-65666666D01*
X162714286Y-65714285D01*
X162809524Y-65761904D01*
X162904762Y-65857142D01*
X162952381Y-66000000D01*
X162952381Y-66238095D01*
X162952381Y-64714285D02*
X162952381Y-65285714D01*
X162952381Y-65000000D02*
X161952381Y-65000000D01*
X162095238Y-65095238D01*
X162190476Y-65190476D01*
X162238095Y-65285714D01*
X54952381Y-118738095D02*
X53952381Y-118738095D01*
X53952381Y-118500000D01*
X54000000Y-118357142D01*
X54095238Y-118261904D01*
X54190476Y-118214285D01*
X54380952Y-118166666D01*
X54523810Y-118166666D01*
X54714286Y-118214285D01*
X54809524Y-118261904D01*
X54904762Y-118357142D01*
X54952381Y-118500000D01*
X54952381Y-118738095D01*
X53952381Y-117833333D02*
X53952381Y-117214285D01*
X54333333Y-117547619D01*
X54333333Y-117404761D01*
X54380952Y-117309523D01*
X54428571Y-117261904D01*
X54523810Y-117214285D01*
X54761905Y-117214285D01*
X54857143Y-117261904D01*
X54904762Y-117309523D01*
X54952381Y-117404761D01*
X54952381Y-117690476D01*
X54904762Y-117785714D01*
X54857143Y-117833333D01*
X72802381Y-112892857D02*
X72326190Y-113226191D01*
X72802381Y-113464286D02*
X71802381Y-113464286D01*
X71802381Y-113083333D01*
X71850000Y-112988095D01*
X71897619Y-112940476D01*
X71992857Y-112892857D01*
X72135714Y-112892857D01*
X72230952Y-112940476D01*
X72278571Y-112988095D01*
X72326190Y-113083333D01*
X72326190Y-113464286D01*
X72802381Y-111940476D02*
X72802381Y-112511905D01*
X72802381Y-112226191D02*
X71802381Y-112226191D01*
X71945238Y-112321429D01*
X72040476Y-112416667D01*
X72088095Y-112511905D01*
X72230952Y-111369048D02*
X72183333Y-111464286D01*
X72135714Y-111511905D01*
X72040476Y-111559524D01*
X71992857Y-111559524D01*
X71897619Y-111511905D01*
X71850000Y-111464286D01*
X71802381Y-111369048D01*
X71802381Y-111178571D01*
X71850000Y-111083333D01*
X71897619Y-111035714D01*
X71992857Y-110988095D01*
X72040476Y-110988095D01*
X72135714Y-111035714D01*
X72183333Y-111083333D01*
X72230952Y-111178571D01*
X72230952Y-111369048D01*
X72278571Y-111464286D01*
X72326190Y-111511905D01*
X72421429Y-111559524D01*
X72611905Y-111559524D01*
X72707143Y-111511905D01*
X72754762Y-111464286D01*
X72802381Y-111369048D01*
X72802381Y-111178571D01*
X72754762Y-111083333D01*
X72707143Y-111035714D01*
X72611905Y-110988095D01*
X72421429Y-110988095D01*
X72326190Y-111035714D01*
X72278571Y-111083333D01*
X72230952Y-111178571D01*
M02*
