M48
;DRILL file {KiCad 4.0.5+dfsg1-4~bpo8+1} date Mon Sep 25 13:50:50 2017
;FORMAT={-:-/ absolute / inch / decimal}
FMAT,2
INCH,TZ
T1C0.012
T2C0.031
T3C0.032
T4C0.033
T5C0.035
T6C0.036
T7C0.091
T8C0.091
T9C0.126
%
G90
G05
M72
T1
X2.7657Y-4.3209
X2.8346Y-3.8681
X2.8346Y-4.1043
X2.8346Y-4.1634
X3.1791Y-4.1732
X3.248Y-3.3957
X3.248Y-4.2421
X3.4252Y-2.7657
X3.4547Y-4.2126
X3.5925Y-4.2126
X3.6417Y-3.6516
X3.7303Y-4.2126
X3.878Y-4.0256
X3.8976Y-3.3268
X3.9567Y-2.7461
X3.9567Y-2.8346
X4.0256Y-2.6575
X4.0551Y-3.0906
X4.1043Y-2.3031
X4.1043Y-2.9724
X4.1339Y-2.5197
X4.1535Y-2.7461
X4.2028Y-2.7067
X4.2224Y-2.8642
X4.2421Y-2.4016
X4.252Y-2.9134
X4.3602Y-2.4705
X4.3799Y-2.2441
X4.3996Y-2.5394
X4.3996Y-2.5787
X4.4094Y-2.7559
X4.4587Y-2.2441
X4.5177Y-2.5394
X4.5177Y-2.5787
X4.5374Y-2.2441
X4.5374Y-2.4409
X4.5669Y-2.5984
X4.6161Y-2.5787
X4.6949Y-2.2441
X4.7343Y-3.0413
X4.7343Y-3.0807
X4.7343Y-3.1201
X4.7343Y-3.1594
X4.7343Y-3.2185
X4.7343Y-3.2579
X4.7343Y-3.2972
X4.872Y-3.0118
X4.9311Y-2.9823
X4.9409Y-2.7264
X4.9409Y-2.7657
X4.9409Y-2.8051
X4.9409Y-2.8445
X4.9409Y-2.9035
X4.9409Y-2.9429
X5.0098Y-2.4114
X5.0098Y-2.4508
X5.0098Y-2.4902
X5.0098Y-2.5295
X5.0098Y-2.5886
X5.0098Y-2.628
X5.0098Y-2.6673
X5.0098Y-2.7067
X5.1575Y-2.7756
X5.1969Y-2.2638
X5.2165Y-2.4016
X5.2165Y-2.4606
X5.2165Y-2.5394
X5.2165Y-2.7165
X5.2165Y-3.0315
X5.2165Y-3.0906
X5.2559Y-2.5
X5.2657Y-2.8051
X5.2756Y-3.1496
X5.3248Y-2.2933
X5.3543Y-2.5689
X5.3839Y-3.1791
X5.4134Y-2.5689
X5.4331Y-2.2933
X5.4429Y-2.5098
X5.4429Y-2.8346
X5.5118Y-3.3268
X5.5315Y-2.9429
X5.5512Y-2.9724
X5.561Y-2.3425
X5.561Y-2.4016
X5.561Y-2.5984
X5.561Y-2.6575
X5.561Y-2.7165
X5.5709Y-2.9134
X5.5709Y-3.0315
X5.6201Y-2.8642
X5.6299Y-2.815
X5.7382Y-3.0217
X5.7579Y-2.9921
X5.7579Y-3.0906
X5.7776Y-2.9626
X5.7972Y-2.9331
X5.8169Y-2.9035
X5.8366Y-2.874
X5.8563Y-2.8445
X5.876Y-2.815
X5.8957Y-2.7854
X5.9055Y-3.2579
X5.9154Y-2.7559
X5.935Y-2.7264
X5.9547Y-2.6969
X5.9744Y-2.6673
X5.9941Y-2.6378
X6.0138Y-2.6083
X6.0335Y-2.5787
X6.0531Y-2.5492
X6.0728Y-2.5197
X6.0728Y-3.0709
X6.0925Y-2.4902
X6.1122Y-2.4606
X6.1122Y-3.2677
X6.1319Y-2.4311
X6.1516Y-2.4016
X6.1713Y-2.372
X6.2303Y-3.0709
X6.2697Y-3.2677
X6.3386Y-2.2835
X6.3386Y-2.4606
X6.3878Y-2.8445
X6.3878Y-3.002
X6.3878Y-3.0709
X6.3878Y-3.3071
X6.4075Y-3.1201
X6.4665Y-3.3071
X6.4764Y-2.2835
X6.5256Y-2.7657
X6.5354Y-2.9232
X6.5945Y-2.2835
X6.6339Y-2.4803
X6.6634Y-3.2677
X6.7421Y-2.3622
X6.7618Y-2.8346
T2
X2.3622Y-4.6047
X2.3622Y-4.7047
T3
X2.3228Y-2.4804
X2.3228Y-2.5591
X2.4228Y-2.4804
X2.4228Y-2.5591
T4
X2.3622Y-3.9156
X2.3622Y-4.1356
T5
X3.4744Y-2.4803
X3.5728Y-2.4803
X3.6713Y-2.4803
X3.7697Y-2.4803
X3.8681Y-2.4803
X3.9665Y-2.4803
T6
X2.5083Y-3.1299
X2.5083Y-3.2283
X2.5083Y-3.3071
X2.5083Y-3.4055
T7
X2.4016Y-3.0091
X2.4016Y-3.5264
T8
X2.1366Y-2.3741
X2.609Y-2.3741
T9
X3.0709Y-2.4016
X3.0709Y-4.685
X7.0472Y-2.4016
X7.0472Y-3.5039
T0
M30
