G04 #@! TF.FileFunction,Paste,Top*
%FSLAX46Y46*%
G04 Gerber Fmt 4.6, Leading zero omitted, Abs format (unit mm)*
G04 Created by KiCad (PCBNEW 4.0.5+dfsg1-4~bpo8+1) date Mon Sep 25 13:54:36 2017*
%MOMM*%
%LPD*%
G01*
G04 APERTURE LIST*
%ADD10C,0.100000*%
%ADD11R,0.300000X1.200000*%
%ADD12R,2.400000X2.400000*%
%ADD13R,0.700000X1.000000*%
%ADD14R,1.000000X0.800000*%
%ADD15R,0.800000X0.750000*%
%ADD16R,2.430000X2.370000*%
%ADD17R,0.750000X0.800000*%
%ADD18R,2.370000X2.430000*%
%ADD19R,0.800100X0.800100*%
%ADD20R,2.700000X0.800000*%
%ADD21R,0.900000X0.500000*%
%ADD22R,0.500000X0.900000*%
%ADD23R,0.500000X0.350000*%
%ADD24R,1.390000X4.600000*%
%ADD25R,10.800000X9.400000*%
%ADD26O,0.750000X0.250000*%
%ADD27O,0.250000X0.750000*%
%ADD28R,5.300000X5.300000*%
%ADD29R,0.890000X0.420000*%
%ADD30R,1.399540X1.150620*%
%ADD31R,0.650000X1.060000*%
%ADD32R,1.220000X0.910000*%
%ADD33R,1.300000X0.700000*%
G04 APERTURE END LIST*
D10*
D11*
X164550000Y-81000000D03*
X164050000Y-81000000D03*
X163550000Y-81000000D03*
X163050000Y-81000000D03*
X162550000Y-81000000D03*
X162050000Y-81000000D03*
X161550000Y-81000000D03*
X161050000Y-81000000D03*
X160550000Y-81000000D03*
X160050000Y-81000000D03*
X159550000Y-81000000D03*
X159050000Y-81000000D03*
X158550000Y-81000000D03*
X158050000Y-81000000D03*
X157550000Y-81000000D03*
X157050000Y-81000000D03*
X156550000Y-81000000D03*
X156050000Y-81000000D03*
X155550000Y-81000000D03*
X155050000Y-81000000D03*
X154550000Y-81000000D03*
X154050000Y-81000000D03*
X153550000Y-81000000D03*
X153050000Y-81000000D03*
X152550000Y-81000000D03*
X152050000Y-81000000D03*
X151550000Y-81000000D03*
X151050000Y-81000000D03*
X150550000Y-81000000D03*
X150050000Y-81000000D03*
X149550000Y-81000000D03*
X149050000Y-81000000D03*
X148550000Y-81000000D03*
X148050000Y-81000000D03*
X147550000Y-81000000D03*
X147050000Y-81000000D03*
X146550000Y-81000000D03*
X146050000Y-81000000D03*
X145550000Y-81000000D03*
X145050000Y-81000000D03*
D12*
X166700000Y-83700000D03*
X142900000Y-83700000D03*
D13*
X135095000Y-59476000D03*
X136365000Y-59476000D03*
X137635000Y-59476000D03*
X138905000Y-59476000D03*
X135095000Y-62524000D03*
X136365000Y-62524000D03*
X137635000Y-62524000D03*
X138905000Y-62524000D03*
D14*
X133825000Y-61000000D03*
X140175000Y-61000000D03*
D13*
X135095000Y-67476000D03*
X136365000Y-67476000D03*
X137635000Y-67476000D03*
X138905000Y-67476000D03*
X135095000Y-70524000D03*
X136365000Y-70524000D03*
X137635000Y-70524000D03*
X138905000Y-70524000D03*
D14*
X133825000Y-69000000D03*
X140175000Y-69000000D03*
D13*
X135095000Y-75476000D03*
X136365000Y-75476000D03*
X137635000Y-75476000D03*
X138905000Y-75476000D03*
X135095000Y-78524000D03*
X136365000Y-78524000D03*
X137635000Y-78524000D03*
X138905000Y-78524000D03*
D14*
X133825000Y-77000000D03*
X140175000Y-77000000D03*
D15*
X105500000Y-67500000D03*
X104000000Y-67500000D03*
D16*
X99000000Y-81870000D03*
X99000000Y-75630000D03*
D17*
X115250000Y-59500000D03*
X115250000Y-61000000D03*
D15*
X108000000Y-62750000D03*
X109500000Y-62750000D03*
D18*
X91380000Y-67750000D03*
X97620000Y-67750000D03*
D15*
X115750000Y-64500000D03*
X117250000Y-64500000D03*
D17*
X103000000Y-75500000D03*
X103000000Y-77000000D03*
D15*
X106500000Y-62750000D03*
X105000000Y-62750000D03*
D18*
X83130000Y-92750000D03*
X89370000Y-92750000D03*
D17*
X94750000Y-104250000D03*
X94750000Y-105750000D03*
D15*
X103750000Y-72000000D03*
X102250000Y-72000000D03*
D17*
X91250000Y-104250000D03*
X91250000Y-105750000D03*
D15*
X103750000Y-69750000D03*
X102250000Y-69750000D03*
D17*
X87750000Y-104250000D03*
X87750000Y-105750000D03*
D15*
X85000000Y-102250000D03*
X86500000Y-102250000D03*
D17*
X82500000Y-105000000D03*
X82500000Y-106500000D03*
X161000000Y-59750000D03*
X161000000Y-61250000D03*
D15*
X76750000Y-100000000D03*
X78250000Y-100000000D03*
D17*
X73250000Y-105750000D03*
X73250000Y-104250000D03*
X171750000Y-69250000D03*
X171750000Y-70750000D03*
D19*
X169450000Y-64999240D03*
X167550000Y-64999240D03*
X168500000Y-66998220D03*
D20*
X164500000Y-59400000D03*
X164500000Y-61600000D03*
D21*
X113250000Y-61000000D03*
X113250000Y-59500000D03*
X117250000Y-61000000D03*
X117250000Y-59500000D03*
D22*
X110750000Y-64750000D03*
X109250000Y-64750000D03*
D21*
X119250000Y-61000000D03*
X119250000Y-59500000D03*
X111250000Y-61000000D03*
X111250000Y-59500000D03*
D22*
X95750000Y-102250000D03*
X97250000Y-102250000D03*
X92250000Y-102250000D03*
X93750000Y-102250000D03*
X88750000Y-102250000D03*
X90250000Y-102250000D03*
X81750000Y-102250000D03*
X83250000Y-102250000D03*
X76750000Y-102250000D03*
X78250000Y-102250000D03*
D21*
X171750000Y-65250000D03*
X171750000Y-66750000D03*
X169000000Y-79250000D03*
X169000000Y-80750000D03*
X173000000Y-79250000D03*
X173000000Y-80750000D03*
D22*
X164750000Y-76250000D03*
X163250000Y-76250000D03*
X164750000Y-74250000D03*
X163250000Y-74250000D03*
X164750000Y-72250000D03*
X163250000Y-72250000D03*
X164750000Y-70250000D03*
X163250000Y-70250000D03*
D23*
X123350000Y-63250000D03*
X123350000Y-63750000D03*
X123350000Y-64250000D03*
X123350000Y-64750000D03*
X123350000Y-65250000D03*
X123350000Y-65750000D03*
X123350000Y-66250000D03*
X123350000Y-66750000D03*
X124650000Y-66750000D03*
X124650000Y-66250000D03*
X124650000Y-65750000D03*
X124650000Y-65250000D03*
X124650000Y-64750000D03*
X124650000Y-64250000D03*
X124650000Y-63750000D03*
X124650000Y-63250000D03*
X121600000Y-71250000D03*
X121600000Y-71750000D03*
X121600000Y-72250000D03*
X121600000Y-72750000D03*
X121600000Y-73250000D03*
X121600000Y-73750000D03*
X121600000Y-74250000D03*
X121600000Y-74750000D03*
X122900000Y-74750000D03*
X122900000Y-74250000D03*
X122900000Y-73750000D03*
X122900000Y-73250000D03*
X122900000Y-72750000D03*
X122900000Y-72250000D03*
X122900000Y-71750000D03*
X122900000Y-71250000D03*
X116350000Y-79250000D03*
X116350000Y-79750000D03*
X116350000Y-80250000D03*
X116350000Y-80750000D03*
X116350000Y-81250000D03*
X116350000Y-81750000D03*
X116350000Y-82250000D03*
X116350000Y-82750000D03*
X117650000Y-82750000D03*
X117650000Y-82250000D03*
X117650000Y-81750000D03*
X117650000Y-81250000D03*
X117650000Y-80750000D03*
X117650000Y-80250000D03*
X117650000Y-79750000D03*
X117650000Y-79250000D03*
D24*
X87000000Y-86250000D03*
D25*
X87000000Y-77100000D03*
D24*
X89540000Y-86250000D03*
X84460000Y-86250000D03*
D26*
X115525000Y-69750000D03*
X115525000Y-70250000D03*
X115525000Y-70750000D03*
X115525000Y-71250000D03*
X115525000Y-71750000D03*
X115525000Y-72250000D03*
X115525000Y-72750000D03*
X115525000Y-69250000D03*
X115525000Y-68750000D03*
X115525000Y-68250000D03*
X115525000Y-67750000D03*
X108475000Y-67250000D03*
X108475000Y-67750000D03*
X108475000Y-68250000D03*
X108475000Y-68750000D03*
X108475000Y-69250000D03*
X108475000Y-69750000D03*
X108475000Y-70250000D03*
X108475000Y-70750000D03*
X108475000Y-71250000D03*
X108475000Y-71750000D03*
X108475000Y-72250000D03*
X108475000Y-72750000D03*
D27*
X112250000Y-66475000D03*
X112750000Y-66475000D03*
X113250000Y-66475000D03*
X113750000Y-66475000D03*
X114250000Y-66475000D03*
X114750000Y-66475000D03*
X111750000Y-66475000D03*
X111250000Y-66475000D03*
X110750000Y-66475000D03*
X110250000Y-66475000D03*
X109750000Y-66475000D03*
X109250000Y-66475000D03*
X114750000Y-73525000D03*
X114250000Y-73525000D03*
X113725000Y-73525000D03*
X113250000Y-73525000D03*
X112750000Y-73525000D03*
X112250000Y-73525000D03*
X111750000Y-73525000D03*
X111250000Y-73525000D03*
X110750000Y-73525000D03*
X110250000Y-73525000D03*
X109750000Y-73525000D03*
X109250000Y-73525000D03*
D26*
X115525000Y-67250000D03*
D28*
X112000000Y-70000000D03*
D29*
X79605000Y-105975000D03*
X79605000Y-105325000D03*
X79605000Y-104675000D03*
X79605000Y-104025000D03*
X75395000Y-104025000D03*
X75395000Y-104675000D03*
X75395000Y-105325000D03*
X75395000Y-105975000D03*
D30*
X108349820Y-59550100D03*
X106150180Y-59550100D03*
X108349820Y-57949900D03*
X106150180Y-57949900D03*
D31*
X167550000Y-61600000D03*
X168500000Y-61600000D03*
X169450000Y-61600000D03*
X169450000Y-59400000D03*
X167550000Y-59400000D03*
D32*
X164500000Y-67135000D03*
X164500000Y-63865000D03*
D33*
X70250000Y-111300000D03*
X70250000Y-113200000D03*
M02*
