G04 #@! TF.FileFunction,Copper,L3,Inr,Signal*
%FSLAX46Y46*%
G04 Gerber Fmt 4.6, Leading zero omitted, Abs format (unit mm)*
G04 Created by KiCad (PCBNEW 4.0.5+dfsg1-4~bpo8+1) date Mon Sep 25 13:54:36 2017*
%MOMM*%
%LPD*%
G01*
G04 APERTURE LIST*
%ADD10C,0.100000*%
%ADD11C,1.600000*%
%ADD12C,4.000000*%
%ADD13C,2.000000*%
%ADD14R,1.850000X1.850000*%
%ADD15C,1.850000*%
%ADD16C,1.524000*%
%ADD17C,2.700020*%
%ADD18C,6.000000*%
%ADD19C,1.800000*%
%ADD20R,1.800000X1.800000*%
%ADD21C,0.600000*%
%ADD22C,0.300000*%
%ADD23C,0.200000*%
%ADD24C,0.254000*%
G04 APERTURE END LIST*
D10*
D11*
X63710000Y-86500000D03*
X63710000Y-84000000D03*
X63710000Y-82000000D03*
X63710000Y-79500000D03*
D12*
X61000000Y-89570000D03*
X61000000Y-76430000D03*
D13*
X60000000Y-99456000D03*
X60000000Y-105044000D03*
D14*
X88250000Y-63000000D03*
D15*
X90750000Y-63000000D03*
X93250000Y-63000000D03*
X95750000Y-63000000D03*
X98250000Y-63000000D03*
X100750000Y-63000000D03*
D16*
X61540000Y-65000000D03*
X59000000Y-65000000D03*
X59000000Y-63001020D03*
X61540000Y-63001020D03*
D17*
X66269480Y-60301000D03*
X54270520Y-60301000D03*
D18*
X179000000Y-61000000D03*
X179000000Y-89000000D03*
X78000000Y-61000000D03*
X78000000Y-119000000D03*
D19*
X60000000Y-116960000D03*
D20*
X60000000Y-119500000D03*
D21*
X87000000Y-70250000D03*
X92500000Y-92750000D03*
X105500000Y-69750000D03*
X114750000Y-64500000D03*
X111750000Y-64500000D03*
X162250000Y-72250000D03*
X162250000Y-76250000D03*
X162250000Y-84000000D03*
X140000000Y-84500000D03*
X169250000Y-83000000D03*
X94750000Y-107000000D03*
X91250000Y-107000000D03*
X87750000Y-107000000D03*
X82500000Y-107750000D03*
X72000000Y-105750000D03*
X82500000Y-86250000D03*
X99000000Y-84500000D03*
X103000000Y-78500000D03*
X102250000Y-67500000D03*
X100500000Y-72000000D03*
X100500000Y-69750000D03*
X117250000Y-65500000D03*
X112000000Y-70000000D03*
X104250000Y-58500000D03*
X114750000Y-65500000D03*
X115250000Y-62000000D03*
X105000000Y-64000000D03*
X110750000Y-62750000D03*
X107750000Y-61000000D03*
X171750000Y-72000000D03*
X168500000Y-63000000D03*
X161000000Y-62500000D03*
X164250000Y-84000000D03*
X166000000Y-74250000D03*
X165750000Y-70250000D03*
X107250000Y-72750000D03*
X150000000Y-82750000D03*
X146250000Y-78500000D03*
X132500000Y-61000000D03*
X141250000Y-61000000D03*
X132500000Y-69000000D03*
X141250000Y-69000000D03*
X132500000Y-77000000D03*
X141500000Y-77000000D03*
X106750000Y-68750000D03*
X104250000Y-75500000D03*
X115250000Y-57000000D03*
X70250000Y-109750000D03*
X72000000Y-104250000D03*
X72000000Y-98250000D03*
X167500000Y-58000000D03*
X164500000Y-58000000D03*
X161000000Y-58000000D03*
X111250000Y-57000000D03*
X113250000Y-57000000D03*
X119250000Y-57000000D03*
X155250000Y-83000000D03*
X162750000Y-79250000D03*
X159250000Y-83000000D03*
X162250000Y-78000000D03*
X154250000Y-78000000D03*
X158250000Y-78000000D03*
X116000000Y-66000000D03*
X98500000Y-102250000D03*
X171250000Y-60000000D03*
X108000000Y-74000000D03*
X111750000Y-65500000D03*
X80750000Y-106000000D03*
X156750000Y-60250000D03*
X132000000Y-57500000D03*
X127250000Y-61250000D03*
X127250000Y-62250000D03*
X156250000Y-61000000D03*
X135250000Y-58250000D03*
X127250000Y-63250000D03*
X155750000Y-61750000D03*
X138000000Y-58250000D03*
X127250000Y-64250000D03*
X141250000Y-59500000D03*
X155250000Y-62500000D03*
X127250000Y-65750000D03*
X154750000Y-63250000D03*
X132500000Y-62500000D03*
X127250000Y-66750000D03*
X154250000Y-64000000D03*
X133500000Y-63500000D03*
X127250000Y-67750000D03*
X153750000Y-64750000D03*
X132500000Y-64500000D03*
X127250000Y-68750000D03*
X153250000Y-65500000D03*
X138250000Y-63750000D03*
X125500000Y-69250000D03*
X152750000Y-66250000D03*
X136000000Y-65250000D03*
X125500000Y-70250000D03*
X152250000Y-67000000D03*
X137500000Y-65250000D03*
X125500000Y-71250000D03*
X141250000Y-66000000D03*
X151750000Y-67750000D03*
X125500000Y-72250000D03*
X141250000Y-67500000D03*
X151250000Y-68500000D03*
X125500000Y-73750000D03*
X150750000Y-69250000D03*
X131000000Y-70500000D03*
X150250000Y-70000000D03*
X125500000Y-74750000D03*
X133750000Y-71250000D03*
X125250000Y-75750000D03*
X149750000Y-70750000D03*
X138250000Y-72000000D03*
X123750000Y-76500000D03*
X149250000Y-71500000D03*
X143000000Y-71500000D03*
X120250000Y-77250000D03*
X148750000Y-72250000D03*
X142750000Y-72750000D03*
X120250000Y-78250000D03*
X141500000Y-74000000D03*
X148250000Y-73000000D03*
X120250000Y-79250000D03*
X147750000Y-73750000D03*
X140500000Y-74750000D03*
X120250000Y-80250000D03*
X141000000Y-75500000D03*
X147250000Y-74500000D03*
X120250000Y-81750000D03*
X146750000Y-75250000D03*
X132500000Y-78500000D03*
X120250000Y-82750000D03*
X134000000Y-80000000D03*
X146250000Y-76000000D03*
X145750000Y-76750000D03*
X120250000Y-83750000D03*
X136750000Y-80750000D03*
D22*
X72000000Y-104250000D02*
X71000000Y-104250000D01*
X70250000Y-105000000D02*
X70250000Y-109750000D01*
X71000000Y-104250000D02*
X70250000Y-105000000D01*
X72000000Y-98250000D02*
X72000000Y-104250000D01*
X161000000Y-58000000D02*
X141000000Y-58000000D01*
X107750000Y-63000000D02*
X100750000Y-63000000D01*
X110500000Y-60250000D02*
X107750000Y-63000000D01*
X120750000Y-60250000D02*
X110500000Y-60250000D01*
X121250000Y-59750000D02*
X120750000Y-60250000D01*
X121250000Y-57500000D02*
X121250000Y-59750000D01*
X122000000Y-56750000D02*
X121250000Y-57500000D01*
X139750000Y-56750000D02*
X122000000Y-56750000D01*
X141000000Y-58000000D02*
X139750000Y-56750000D01*
X164500000Y-58000000D02*
X167500000Y-58000000D01*
X164500000Y-58000000D02*
X161000000Y-58000000D01*
D23*
X140000000Y-73000000D02*
X118000000Y-73000000D01*
X140000000Y-73000000D02*
X154000000Y-59000000D01*
X154000000Y-59000000D02*
X170250000Y-59000000D01*
X170250000Y-59000000D02*
X171250000Y-60000000D01*
X117000000Y-74000000D02*
X108000000Y-74000000D01*
X118000000Y-73000000D02*
X117000000Y-74000000D01*
D24*
G36*
X67873000Y-57052606D02*
X67873000Y-59648968D01*
X67740170Y-59325286D01*
X67733731Y-59315650D01*
X67494163Y-59166119D01*
X66359283Y-60301000D01*
X67494163Y-61435881D01*
X67733731Y-61286350D01*
X67873000Y-60953223D01*
X67873000Y-91947394D01*
X67447394Y-92373000D01*
X53052606Y-92373000D01*
X52627000Y-91947394D01*
X52627000Y-91263543D01*
X59396259Y-91263543D01*
X59624926Y-91570660D01*
X60495217Y-91944587D01*
X61442356Y-91957004D01*
X62322151Y-91606022D01*
X62375074Y-91570660D01*
X62603741Y-91263543D01*
X61000000Y-89659803D01*
X59396259Y-91263543D01*
X52627000Y-91263543D01*
X52627000Y-90012356D01*
X58612996Y-90012356D01*
X58963978Y-90892151D01*
X58999340Y-90945074D01*
X59306457Y-91173741D01*
X60910197Y-89570000D01*
X61089803Y-89570000D01*
X62693543Y-91173741D01*
X63000660Y-90945074D01*
X63374587Y-90074783D01*
X63387004Y-89127644D01*
X63036022Y-88247849D01*
X63000660Y-88194926D01*
X62693543Y-87966259D01*
X61089803Y-89570000D01*
X60910197Y-89570000D01*
X59306457Y-87966259D01*
X58999340Y-88194926D01*
X58625413Y-89065217D01*
X58612996Y-90012356D01*
X52627000Y-90012356D01*
X52627000Y-87876457D01*
X59396259Y-87876457D01*
X61000000Y-89480197D01*
X62603741Y-87876457D01*
X62375074Y-87569340D01*
X61504783Y-87195413D01*
X60557644Y-87182996D01*
X59677849Y-87533978D01*
X59624926Y-87569340D01*
X59396259Y-87876457D01*
X52627000Y-87876457D01*
X52627000Y-86733885D01*
X62528796Y-86733885D01*
X62708213Y-87168109D01*
X63040144Y-87500619D01*
X63474054Y-87680794D01*
X63943885Y-87681204D01*
X64378109Y-87501787D01*
X64710619Y-87169856D01*
X64890794Y-86735946D01*
X64891204Y-86266115D01*
X64711787Y-85831891D01*
X64379856Y-85499381D01*
X63945946Y-85319206D01*
X63476115Y-85318796D01*
X63041891Y-85498213D01*
X62709381Y-85830144D01*
X62529206Y-86264054D01*
X62528796Y-86733885D01*
X52627000Y-86733885D01*
X52627000Y-82233885D01*
X62528796Y-82233885D01*
X62708213Y-82668109D01*
X63039813Y-83000287D01*
X62709381Y-83330144D01*
X62529206Y-83764054D01*
X62528796Y-84233885D01*
X62708213Y-84668109D01*
X63040144Y-85000619D01*
X63474054Y-85180794D01*
X63943885Y-85181204D01*
X64378109Y-85001787D01*
X64710619Y-84669856D01*
X64890794Y-84235946D01*
X64891204Y-83766115D01*
X64711787Y-83331891D01*
X64380187Y-82999713D01*
X64710619Y-82669856D01*
X64890794Y-82235946D01*
X64891204Y-81766115D01*
X64711787Y-81331891D01*
X64379856Y-80999381D01*
X63945946Y-80819206D01*
X63476115Y-80818796D01*
X63041891Y-80998213D01*
X62709381Y-81330144D01*
X62529206Y-81764054D01*
X62528796Y-82233885D01*
X52627000Y-82233885D01*
X52627000Y-79733885D01*
X62528796Y-79733885D01*
X62708213Y-80168109D01*
X63040144Y-80500619D01*
X63474054Y-80680794D01*
X63943885Y-80681204D01*
X64378109Y-80501787D01*
X64710619Y-80169856D01*
X64890794Y-79735946D01*
X64891204Y-79266115D01*
X64711787Y-78831891D01*
X64379856Y-78499381D01*
X63945946Y-78319206D01*
X63476115Y-78318796D01*
X63041891Y-78498213D01*
X62709381Y-78830144D01*
X62529206Y-79264054D01*
X62528796Y-79733885D01*
X52627000Y-79733885D01*
X52627000Y-78123543D01*
X59396259Y-78123543D01*
X59624926Y-78430660D01*
X60495217Y-78804587D01*
X61442356Y-78817004D01*
X62322151Y-78466022D01*
X62375074Y-78430660D01*
X62603741Y-78123543D01*
X61000000Y-76519803D01*
X59396259Y-78123543D01*
X52627000Y-78123543D01*
X52627000Y-76872356D01*
X58612996Y-76872356D01*
X58963978Y-77752151D01*
X58999340Y-77805074D01*
X59306457Y-78033741D01*
X60910197Y-76430000D01*
X61089803Y-76430000D01*
X62693543Y-78033741D01*
X63000660Y-77805074D01*
X63374587Y-76934783D01*
X63387004Y-75987644D01*
X63036022Y-75107849D01*
X63000660Y-75054926D01*
X62693543Y-74826259D01*
X61089803Y-76430000D01*
X60910197Y-76430000D01*
X59306457Y-74826259D01*
X58999340Y-75054926D01*
X58625413Y-75925217D01*
X58612996Y-76872356D01*
X52627000Y-76872356D01*
X52627000Y-74736457D01*
X59396259Y-74736457D01*
X61000000Y-76340197D01*
X62603741Y-74736457D01*
X62375074Y-74429340D01*
X61504783Y-74055413D01*
X60557644Y-74042996D01*
X59677849Y-74393978D01*
X59624926Y-74429340D01*
X59396259Y-74736457D01*
X52627000Y-74736457D01*
X52627000Y-63227379D01*
X57856802Y-63227379D01*
X58030446Y-63647632D01*
X58351697Y-63969443D01*
X58426178Y-64000370D01*
X58353388Y-64030446D01*
X58031577Y-64351697D01*
X57857199Y-64771646D01*
X57856802Y-65226359D01*
X58030446Y-65646612D01*
X58351697Y-65968423D01*
X58771646Y-66142801D01*
X59226359Y-66143198D01*
X59646612Y-65969554D01*
X59968423Y-65648303D01*
X60142801Y-65228354D01*
X60143198Y-64773641D01*
X59969554Y-64353388D01*
X59648303Y-64031577D01*
X59573822Y-64000650D01*
X59646612Y-63970574D01*
X59968423Y-63649323D01*
X60142801Y-63229374D01*
X60142802Y-63227379D01*
X60396802Y-63227379D01*
X60570446Y-63647632D01*
X60891697Y-63969443D01*
X60966178Y-64000370D01*
X60893388Y-64030446D01*
X60571577Y-64351697D01*
X60397199Y-64771646D01*
X60396802Y-65226359D01*
X60570446Y-65646612D01*
X60891697Y-65968423D01*
X61311646Y-66142801D01*
X61766359Y-66143198D01*
X62186612Y-65969554D01*
X62508423Y-65648303D01*
X62682801Y-65228354D01*
X62683198Y-64773641D01*
X62509554Y-64353388D01*
X62188303Y-64031577D01*
X62113822Y-64000650D01*
X62186612Y-63970574D01*
X62508423Y-63649323D01*
X62682801Y-63229374D01*
X62683198Y-62774661D01*
X62509554Y-62354408D01*
X62188303Y-62032597D01*
X61768354Y-61858219D01*
X61313641Y-61857822D01*
X60893388Y-62031466D01*
X60571577Y-62352717D01*
X60397199Y-62772666D01*
X60396802Y-63227379D01*
X60142802Y-63227379D01*
X60143198Y-62774661D01*
X59969554Y-62354408D01*
X59648303Y-62032597D01*
X59228354Y-61858219D01*
X58773641Y-61857822D01*
X58353388Y-62031466D01*
X58031577Y-62352717D01*
X57857199Y-62772666D01*
X57856802Y-63227379D01*
X52627000Y-63227379D01*
X52627000Y-61525683D01*
X53135639Y-61525683D01*
X53285170Y-61765251D01*
X53920519Y-62030869D01*
X54609153Y-62033130D01*
X55246234Y-61771690D01*
X55255870Y-61765251D01*
X55405401Y-61525683D01*
X65134599Y-61525683D01*
X65284130Y-61765251D01*
X65919479Y-62030869D01*
X66608113Y-62033130D01*
X67245194Y-61771690D01*
X67254830Y-61765251D01*
X67404361Y-61525683D01*
X66269480Y-60390803D01*
X65134599Y-61525683D01*
X55405401Y-61525683D01*
X54270520Y-60390803D01*
X53135639Y-61525683D01*
X52627000Y-61525683D01*
X52627000Y-60855559D01*
X52799830Y-61276714D01*
X52806269Y-61286350D01*
X53045837Y-61435881D01*
X54180717Y-60301000D01*
X54360323Y-60301000D01*
X55495203Y-61435881D01*
X55734771Y-61286350D01*
X56000389Y-60651001D01*
X56000426Y-60639633D01*
X64537350Y-60639633D01*
X64798790Y-61276714D01*
X64805229Y-61286350D01*
X65044797Y-61435881D01*
X66179677Y-60301000D01*
X65044797Y-59166119D01*
X64805229Y-59315650D01*
X64539611Y-59950999D01*
X64537350Y-60639633D01*
X56000426Y-60639633D01*
X56002650Y-59962367D01*
X55741210Y-59325286D01*
X55734771Y-59315650D01*
X55495203Y-59166119D01*
X54360323Y-60301000D01*
X54180717Y-60301000D01*
X53045837Y-59166119D01*
X52806269Y-59315650D01*
X52627000Y-59744455D01*
X52627000Y-59076317D01*
X53135639Y-59076317D01*
X54270520Y-60211197D01*
X55405401Y-59076317D01*
X65134599Y-59076317D01*
X66269480Y-60211197D01*
X67404361Y-59076317D01*
X67254830Y-58836749D01*
X66619481Y-58571131D01*
X65930847Y-58568870D01*
X65293766Y-58830310D01*
X65284130Y-58836749D01*
X65134599Y-59076317D01*
X55405401Y-59076317D01*
X55255870Y-58836749D01*
X54620521Y-58571131D01*
X53931887Y-58568870D01*
X53294806Y-58830310D01*
X53285170Y-58836749D01*
X53135639Y-59076317D01*
X52627000Y-59076317D01*
X52627000Y-57052606D01*
X53052606Y-56627000D01*
X67447394Y-56627000D01*
X67873000Y-57052606D01*
X67873000Y-57052606D01*
G37*
X67873000Y-57052606D02*
X67873000Y-59648968D01*
X67740170Y-59325286D01*
X67733731Y-59315650D01*
X67494163Y-59166119D01*
X66359283Y-60301000D01*
X67494163Y-61435881D01*
X67733731Y-61286350D01*
X67873000Y-60953223D01*
X67873000Y-91947394D01*
X67447394Y-92373000D01*
X53052606Y-92373000D01*
X52627000Y-91947394D01*
X52627000Y-91263543D01*
X59396259Y-91263543D01*
X59624926Y-91570660D01*
X60495217Y-91944587D01*
X61442356Y-91957004D01*
X62322151Y-91606022D01*
X62375074Y-91570660D01*
X62603741Y-91263543D01*
X61000000Y-89659803D01*
X59396259Y-91263543D01*
X52627000Y-91263543D01*
X52627000Y-90012356D01*
X58612996Y-90012356D01*
X58963978Y-90892151D01*
X58999340Y-90945074D01*
X59306457Y-91173741D01*
X60910197Y-89570000D01*
X61089803Y-89570000D01*
X62693543Y-91173741D01*
X63000660Y-90945074D01*
X63374587Y-90074783D01*
X63387004Y-89127644D01*
X63036022Y-88247849D01*
X63000660Y-88194926D01*
X62693543Y-87966259D01*
X61089803Y-89570000D01*
X60910197Y-89570000D01*
X59306457Y-87966259D01*
X58999340Y-88194926D01*
X58625413Y-89065217D01*
X58612996Y-90012356D01*
X52627000Y-90012356D01*
X52627000Y-87876457D01*
X59396259Y-87876457D01*
X61000000Y-89480197D01*
X62603741Y-87876457D01*
X62375074Y-87569340D01*
X61504783Y-87195413D01*
X60557644Y-87182996D01*
X59677849Y-87533978D01*
X59624926Y-87569340D01*
X59396259Y-87876457D01*
X52627000Y-87876457D01*
X52627000Y-86733885D01*
X62528796Y-86733885D01*
X62708213Y-87168109D01*
X63040144Y-87500619D01*
X63474054Y-87680794D01*
X63943885Y-87681204D01*
X64378109Y-87501787D01*
X64710619Y-87169856D01*
X64890794Y-86735946D01*
X64891204Y-86266115D01*
X64711787Y-85831891D01*
X64379856Y-85499381D01*
X63945946Y-85319206D01*
X63476115Y-85318796D01*
X63041891Y-85498213D01*
X62709381Y-85830144D01*
X62529206Y-86264054D01*
X62528796Y-86733885D01*
X52627000Y-86733885D01*
X52627000Y-82233885D01*
X62528796Y-82233885D01*
X62708213Y-82668109D01*
X63039813Y-83000287D01*
X62709381Y-83330144D01*
X62529206Y-83764054D01*
X62528796Y-84233885D01*
X62708213Y-84668109D01*
X63040144Y-85000619D01*
X63474054Y-85180794D01*
X63943885Y-85181204D01*
X64378109Y-85001787D01*
X64710619Y-84669856D01*
X64890794Y-84235946D01*
X64891204Y-83766115D01*
X64711787Y-83331891D01*
X64380187Y-82999713D01*
X64710619Y-82669856D01*
X64890794Y-82235946D01*
X64891204Y-81766115D01*
X64711787Y-81331891D01*
X64379856Y-80999381D01*
X63945946Y-80819206D01*
X63476115Y-80818796D01*
X63041891Y-80998213D01*
X62709381Y-81330144D01*
X62529206Y-81764054D01*
X62528796Y-82233885D01*
X52627000Y-82233885D01*
X52627000Y-79733885D01*
X62528796Y-79733885D01*
X62708213Y-80168109D01*
X63040144Y-80500619D01*
X63474054Y-80680794D01*
X63943885Y-80681204D01*
X64378109Y-80501787D01*
X64710619Y-80169856D01*
X64890794Y-79735946D01*
X64891204Y-79266115D01*
X64711787Y-78831891D01*
X64379856Y-78499381D01*
X63945946Y-78319206D01*
X63476115Y-78318796D01*
X63041891Y-78498213D01*
X62709381Y-78830144D01*
X62529206Y-79264054D01*
X62528796Y-79733885D01*
X52627000Y-79733885D01*
X52627000Y-78123543D01*
X59396259Y-78123543D01*
X59624926Y-78430660D01*
X60495217Y-78804587D01*
X61442356Y-78817004D01*
X62322151Y-78466022D01*
X62375074Y-78430660D01*
X62603741Y-78123543D01*
X61000000Y-76519803D01*
X59396259Y-78123543D01*
X52627000Y-78123543D01*
X52627000Y-76872356D01*
X58612996Y-76872356D01*
X58963978Y-77752151D01*
X58999340Y-77805074D01*
X59306457Y-78033741D01*
X60910197Y-76430000D01*
X61089803Y-76430000D01*
X62693543Y-78033741D01*
X63000660Y-77805074D01*
X63374587Y-76934783D01*
X63387004Y-75987644D01*
X63036022Y-75107849D01*
X63000660Y-75054926D01*
X62693543Y-74826259D01*
X61089803Y-76430000D01*
X60910197Y-76430000D01*
X59306457Y-74826259D01*
X58999340Y-75054926D01*
X58625413Y-75925217D01*
X58612996Y-76872356D01*
X52627000Y-76872356D01*
X52627000Y-74736457D01*
X59396259Y-74736457D01*
X61000000Y-76340197D01*
X62603741Y-74736457D01*
X62375074Y-74429340D01*
X61504783Y-74055413D01*
X60557644Y-74042996D01*
X59677849Y-74393978D01*
X59624926Y-74429340D01*
X59396259Y-74736457D01*
X52627000Y-74736457D01*
X52627000Y-63227379D01*
X57856802Y-63227379D01*
X58030446Y-63647632D01*
X58351697Y-63969443D01*
X58426178Y-64000370D01*
X58353388Y-64030446D01*
X58031577Y-64351697D01*
X57857199Y-64771646D01*
X57856802Y-65226359D01*
X58030446Y-65646612D01*
X58351697Y-65968423D01*
X58771646Y-66142801D01*
X59226359Y-66143198D01*
X59646612Y-65969554D01*
X59968423Y-65648303D01*
X60142801Y-65228354D01*
X60143198Y-64773641D01*
X59969554Y-64353388D01*
X59648303Y-64031577D01*
X59573822Y-64000650D01*
X59646612Y-63970574D01*
X59968423Y-63649323D01*
X60142801Y-63229374D01*
X60142802Y-63227379D01*
X60396802Y-63227379D01*
X60570446Y-63647632D01*
X60891697Y-63969443D01*
X60966178Y-64000370D01*
X60893388Y-64030446D01*
X60571577Y-64351697D01*
X60397199Y-64771646D01*
X60396802Y-65226359D01*
X60570446Y-65646612D01*
X60891697Y-65968423D01*
X61311646Y-66142801D01*
X61766359Y-66143198D01*
X62186612Y-65969554D01*
X62508423Y-65648303D01*
X62682801Y-65228354D01*
X62683198Y-64773641D01*
X62509554Y-64353388D01*
X62188303Y-64031577D01*
X62113822Y-64000650D01*
X62186612Y-63970574D01*
X62508423Y-63649323D01*
X62682801Y-63229374D01*
X62683198Y-62774661D01*
X62509554Y-62354408D01*
X62188303Y-62032597D01*
X61768354Y-61858219D01*
X61313641Y-61857822D01*
X60893388Y-62031466D01*
X60571577Y-62352717D01*
X60397199Y-62772666D01*
X60396802Y-63227379D01*
X60142802Y-63227379D01*
X60143198Y-62774661D01*
X59969554Y-62354408D01*
X59648303Y-62032597D01*
X59228354Y-61858219D01*
X58773641Y-61857822D01*
X58353388Y-62031466D01*
X58031577Y-62352717D01*
X57857199Y-62772666D01*
X57856802Y-63227379D01*
X52627000Y-63227379D01*
X52627000Y-61525683D01*
X53135639Y-61525683D01*
X53285170Y-61765251D01*
X53920519Y-62030869D01*
X54609153Y-62033130D01*
X55246234Y-61771690D01*
X55255870Y-61765251D01*
X55405401Y-61525683D01*
X65134599Y-61525683D01*
X65284130Y-61765251D01*
X65919479Y-62030869D01*
X66608113Y-62033130D01*
X67245194Y-61771690D01*
X67254830Y-61765251D01*
X67404361Y-61525683D01*
X66269480Y-60390803D01*
X65134599Y-61525683D01*
X55405401Y-61525683D01*
X54270520Y-60390803D01*
X53135639Y-61525683D01*
X52627000Y-61525683D01*
X52627000Y-60855559D01*
X52799830Y-61276714D01*
X52806269Y-61286350D01*
X53045837Y-61435881D01*
X54180717Y-60301000D01*
X54360323Y-60301000D01*
X55495203Y-61435881D01*
X55734771Y-61286350D01*
X56000389Y-60651001D01*
X56000426Y-60639633D01*
X64537350Y-60639633D01*
X64798790Y-61276714D01*
X64805229Y-61286350D01*
X65044797Y-61435881D01*
X66179677Y-60301000D01*
X65044797Y-59166119D01*
X64805229Y-59315650D01*
X64539611Y-59950999D01*
X64537350Y-60639633D01*
X56000426Y-60639633D01*
X56002650Y-59962367D01*
X55741210Y-59325286D01*
X55734771Y-59315650D01*
X55495203Y-59166119D01*
X54360323Y-60301000D01*
X54180717Y-60301000D01*
X53045837Y-59166119D01*
X52806269Y-59315650D01*
X52627000Y-59744455D01*
X52627000Y-59076317D01*
X53135639Y-59076317D01*
X54270520Y-60211197D01*
X55405401Y-59076317D01*
X65134599Y-59076317D01*
X66269480Y-60211197D01*
X67404361Y-59076317D01*
X67254830Y-58836749D01*
X66619481Y-58571131D01*
X65930847Y-58568870D01*
X65293766Y-58830310D01*
X65284130Y-58836749D01*
X65134599Y-59076317D01*
X55405401Y-59076317D01*
X55255870Y-58836749D01*
X54620521Y-58571131D01*
X53931887Y-58568870D01*
X53294806Y-58830310D01*
X53285170Y-58836749D01*
X53135639Y-59076317D01*
X52627000Y-59076317D01*
X52627000Y-57052606D01*
X53052606Y-56627000D01*
X67447394Y-56627000D01*
X67873000Y-57052606D01*
G36*
X110569118Y-56863946D02*
X110568882Y-57134865D01*
X110672339Y-57385252D01*
X110863741Y-57576987D01*
X111113946Y-57680882D01*
X111384865Y-57681118D01*
X111635252Y-57577661D01*
X111826987Y-57386259D01*
X111930882Y-57136054D01*
X111931118Y-56865135D01*
X111832723Y-56627000D01*
X112667507Y-56627000D01*
X112569118Y-56863946D01*
X112568882Y-57134865D01*
X112672339Y-57385252D01*
X112863741Y-57576987D01*
X113113946Y-57680882D01*
X113384865Y-57681118D01*
X113635252Y-57577661D01*
X113826987Y-57386259D01*
X113930882Y-57136054D01*
X113931118Y-56865135D01*
X113832723Y-56627000D01*
X114667507Y-56627000D01*
X114569118Y-56863946D01*
X114568882Y-57134865D01*
X114672339Y-57385252D01*
X114863741Y-57576987D01*
X115113946Y-57680882D01*
X115384865Y-57681118D01*
X115635252Y-57577661D01*
X115826987Y-57386259D01*
X115930882Y-57136054D01*
X115931118Y-56865135D01*
X115832723Y-56627000D01*
X118667507Y-56627000D01*
X118569118Y-56863946D01*
X118568882Y-57134865D01*
X118672339Y-57385252D01*
X118863741Y-57576987D01*
X119113946Y-57680882D01*
X119384865Y-57681118D01*
X119635252Y-57577661D01*
X119826987Y-57386259D01*
X119930882Y-57136054D01*
X119931118Y-56865135D01*
X119832723Y-56627000D01*
X121372052Y-56627000D01*
X120874526Y-57124526D01*
X120759420Y-57296795D01*
X120719000Y-57500000D01*
X120719000Y-59530052D01*
X120530052Y-59719000D01*
X110500000Y-59719000D01*
X110296795Y-59759420D01*
X110124526Y-59874526D01*
X110124524Y-59874529D01*
X107530052Y-62469000D01*
X101943689Y-62469000D01*
X101857818Y-62261177D01*
X101490755Y-61893473D01*
X101010919Y-61694227D01*
X100491360Y-61693774D01*
X100011177Y-61892182D01*
X99643473Y-62259245D01*
X99499893Y-62605023D01*
X99357818Y-62261177D01*
X98990755Y-61893473D01*
X98510919Y-61694227D01*
X97991360Y-61693774D01*
X97511177Y-61892182D01*
X97143473Y-62259245D01*
X96999893Y-62605023D01*
X96857818Y-62261177D01*
X96490755Y-61893473D01*
X96010919Y-61694227D01*
X95491360Y-61693774D01*
X95011177Y-61892182D01*
X94643473Y-62259245D01*
X94499893Y-62605023D01*
X94357818Y-62261177D01*
X93990755Y-61893473D01*
X93510919Y-61694227D01*
X92991360Y-61693774D01*
X92511177Y-61892182D01*
X92143473Y-62259245D01*
X91999893Y-62605023D01*
X91857818Y-62261177D01*
X91490755Y-61893473D01*
X91010919Y-61694227D01*
X90491360Y-61693774D01*
X90011177Y-61892182D01*
X89643473Y-62259245D01*
X89563464Y-62451927D01*
X89563464Y-62075000D01*
X89536897Y-61933810D01*
X89453454Y-61804135D01*
X89326134Y-61717141D01*
X89175000Y-61686536D01*
X87325000Y-61686536D01*
X87183810Y-61713103D01*
X87054135Y-61796546D01*
X86967141Y-61923866D01*
X86936536Y-62075000D01*
X86936536Y-63925000D01*
X86963103Y-64066190D01*
X87046546Y-64195865D01*
X87173866Y-64282859D01*
X87325000Y-64313464D01*
X89175000Y-64313464D01*
X89316190Y-64286897D01*
X89445865Y-64203454D01*
X89532859Y-64076134D01*
X89563464Y-63925000D01*
X89563464Y-63548311D01*
X89642182Y-63738823D01*
X90009245Y-64106527D01*
X90489081Y-64305773D01*
X91008640Y-64306226D01*
X91488823Y-64107818D01*
X91856527Y-63740755D01*
X92000107Y-63394977D01*
X92142182Y-63738823D01*
X92509245Y-64106527D01*
X92989081Y-64305773D01*
X93508640Y-64306226D01*
X93988823Y-64107818D01*
X94356527Y-63740755D01*
X94500107Y-63394977D01*
X94642182Y-63738823D01*
X95009245Y-64106527D01*
X95489081Y-64305773D01*
X96008640Y-64306226D01*
X96488823Y-64107818D01*
X96856527Y-63740755D01*
X97000107Y-63394977D01*
X97142182Y-63738823D01*
X97509245Y-64106527D01*
X97989081Y-64305773D01*
X98508640Y-64306226D01*
X98988823Y-64107818D01*
X99356527Y-63740755D01*
X99500107Y-63394977D01*
X99642182Y-63738823D01*
X100009245Y-64106527D01*
X100489081Y-64305773D01*
X101008640Y-64306226D01*
X101488823Y-64107818D01*
X101856527Y-63740755D01*
X101943625Y-63531000D01*
X104505898Y-63531000D01*
X104423013Y-63613741D01*
X104319118Y-63863946D01*
X104318882Y-64134865D01*
X104422339Y-64385252D01*
X104613741Y-64576987D01*
X104863946Y-64680882D01*
X105134865Y-64681118D01*
X105385252Y-64577661D01*
X105576987Y-64386259D01*
X105680882Y-64136054D01*
X105681118Y-63865135D01*
X105577661Y-63614748D01*
X105494058Y-63531000D01*
X107750000Y-63531000D01*
X107953205Y-63490580D01*
X108125474Y-63375474D01*
X108616082Y-62884865D01*
X110068882Y-62884865D01*
X110172339Y-63135252D01*
X110363741Y-63326987D01*
X110613946Y-63430882D01*
X110884865Y-63431118D01*
X111135252Y-63327661D01*
X111326987Y-63136259D01*
X111430882Y-62886054D01*
X111431118Y-62615135D01*
X111327661Y-62364748D01*
X111136259Y-62173013D01*
X111044390Y-62134865D01*
X114568882Y-62134865D01*
X114672339Y-62385252D01*
X114863741Y-62576987D01*
X115113946Y-62680882D01*
X115384865Y-62681118D01*
X115635252Y-62577661D01*
X115826987Y-62386259D01*
X115930882Y-62136054D01*
X115931118Y-61865135D01*
X115827661Y-61614748D01*
X115636259Y-61423013D01*
X115544390Y-61384865D01*
X126568882Y-61384865D01*
X126672339Y-61635252D01*
X126786920Y-61750032D01*
X126673013Y-61863741D01*
X126569118Y-62113946D01*
X126568882Y-62384865D01*
X126672339Y-62635252D01*
X126786920Y-62750032D01*
X126673013Y-62863741D01*
X126569118Y-63113946D01*
X126568882Y-63384865D01*
X126672339Y-63635252D01*
X126786920Y-63750032D01*
X126673013Y-63863741D01*
X126569118Y-64113946D01*
X126568882Y-64384865D01*
X126672339Y-64635252D01*
X126863741Y-64826987D01*
X127113946Y-64930882D01*
X127384865Y-64931118D01*
X127635252Y-64827661D01*
X127826987Y-64636259D01*
X127827565Y-64634865D01*
X131818882Y-64634865D01*
X131922339Y-64885252D01*
X132113741Y-65076987D01*
X132363946Y-65180882D01*
X132634865Y-65181118D01*
X132885252Y-65077661D01*
X133076987Y-64886259D01*
X133180882Y-64636054D01*
X133181118Y-64365135D01*
X133077661Y-64114748D01*
X132886259Y-63923013D01*
X132636054Y-63819118D01*
X132365135Y-63818882D01*
X132114748Y-63922339D01*
X131923013Y-64113741D01*
X131819118Y-64363946D01*
X131818882Y-64634865D01*
X127827565Y-64634865D01*
X127930882Y-64386054D01*
X127931118Y-64115135D01*
X127827661Y-63864748D01*
X127713080Y-63749968D01*
X127826987Y-63636259D01*
X127827565Y-63634865D01*
X132818882Y-63634865D01*
X132922339Y-63885252D01*
X133113741Y-64076987D01*
X133363946Y-64180882D01*
X133634865Y-64181118D01*
X133885252Y-64077661D01*
X134076987Y-63886259D01*
X134077565Y-63884865D01*
X137568882Y-63884865D01*
X137672339Y-64135252D01*
X137863741Y-64326987D01*
X138113946Y-64430882D01*
X138384865Y-64431118D01*
X138635252Y-64327661D01*
X138826987Y-64136259D01*
X138930882Y-63886054D01*
X138931118Y-63615135D01*
X138827661Y-63364748D01*
X138636259Y-63173013D01*
X138386054Y-63069118D01*
X138115135Y-63068882D01*
X137864748Y-63172339D01*
X137673013Y-63363741D01*
X137569118Y-63613946D01*
X137568882Y-63884865D01*
X134077565Y-63884865D01*
X134180882Y-63636054D01*
X134181118Y-63365135D01*
X134077661Y-63114748D01*
X133886259Y-62923013D01*
X133636054Y-62819118D01*
X133365135Y-62818882D01*
X133114748Y-62922339D01*
X132923013Y-63113741D01*
X132819118Y-63363946D01*
X132818882Y-63634865D01*
X127827565Y-63634865D01*
X127930882Y-63386054D01*
X127931118Y-63115135D01*
X127827661Y-62864748D01*
X127713080Y-62749968D01*
X127826987Y-62636259D01*
X127827565Y-62634865D01*
X131818882Y-62634865D01*
X131922339Y-62885252D01*
X132113741Y-63076987D01*
X132363946Y-63180882D01*
X132634865Y-63181118D01*
X132885252Y-63077661D01*
X133076987Y-62886259D01*
X133180882Y-62636054D01*
X133181118Y-62365135D01*
X133077661Y-62114748D01*
X132886259Y-61923013D01*
X132636054Y-61819118D01*
X132365135Y-61818882D01*
X132114748Y-61922339D01*
X131923013Y-62113741D01*
X131819118Y-62363946D01*
X131818882Y-62634865D01*
X127827565Y-62634865D01*
X127930882Y-62386054D01*
X127931118Y-62115135D01*
X127827661Y-61864748D01*
X127713080Y-61749968D01*
X127826987Y-61636259D01*
X127930882Y-61386054D01*
X127931100Y-61134865D01*
X131818882Y-61134865D01*
X131922339Y-61385252D01*
X132113741Y-61576987D01*
X132363946Y-61680882D01*
X132634865Y-61681118D01*
X132885252Y-61577661D01*
X133076987Y-61386259D01*
X133180882Y-61136054D01*
X133180883Y-61134865D01*
X140568882Y-61134865D01*
X140672339Y-61385252D01*
X140863741Y-61576987D01*
X141113946Y-61680882D01*
X141384865Y-61681118D01*
X141635252Y-61577661D01*
X141826987Y-61386259D01*
X141930882Y-61136054D01*
X141931118Y-60865135D01*
X141827661Y-60614748D01*
X141636259Y-60423013D01*
X141386054Y-60319118D01*
X141115135Y-60318882D01*
X140864748Y-60422339D01*
X140673013Y-60613741D01*
X140569118Y-60863946D01*
X140568882Y-61134865D01*
X133180883Y-61134865D01*
X133181118Y-60865135D01*
X133077661Y-60614748D01*
X132886259Y-60423013D01*
X132636054Y-60319118D01*
X132365135Y-60318882D01*
X132114748Y-60422339D01*
X131923013Y-60613741D01*
X131819118Y-60863946D01*
X131818882Y-61134865D01*
X127931100Y-61134865D01*
X127931118Y-61115135D01*
X127827661Y-60864748D01*
X127636259Y-60673013D01*
X127386054Y-60569118D01*
X127115135Y-60568882D01*
X126864748Y-60672339D01*
X126673013Y-60863741D01*
X126569118Y-61113946D01*
X126568882Y-61384865D01*
X115544390Y-61384865D01*
X115386054Y-61319118D01*
X115115135Y-61318882D01*
X114864748Y-61422339D01*
X114673013Y-61613741D01*
X114569118Y-61863946D01*
X114568882Y-62134865D01*
X111044390Y-62134865D01*
X110886054Y-62069118D01*
X110615135Y-62068882D01*
X110364748Y-62172339D01*
X110173013Y-62363741D01*
X110069118Y-62613946D01*
X110068882Y-62884865D01*
X108616082Y-62884865D01*
X110719947Y-60781000D01*
X120750000Y-60781000D01*
X120953205Y-60740580D01*
X121125474Y-60625474D01*
X121625474Y-60125474D01*
X121740580Y-59953205D01*
X121781001Y-59750000D01*
X121781000Y-59749995D01*
X121781000Y-59634865D01*
X140568882Y-59634865D01*
X140672339Y-59885252D01*
X140863741Y-60076987D01*
X141113946Y-60180882D01*
X141384865Y-60181118D01*
X141635252Y-60077661D01*
X141826987Y-59886259D01*
X141930882Y-59636054D01*
X141931118Y-59365135D01*
X141827661Y-59114748D01*
X141636259Y-58923013D01*
X141386054Y-58819118D01*
X141115135Y-58818882D01*
X140864748Y-58922339D01*
X140673013Y-59113741D01*
X140569118Y-59363946D01*
X140568882Y-59634865D01*
X121781000Y-59634865D01*
X121781000Y-58384865D01*
X134568882Y-58384865D01*
X134672339Y-58635252D01*
X134863741Y-58826987D01*
X135113946Y-58930882D01*
X135384865Y-58931118D01*
X135635252Y-58827661D01*
X135826987Y-58636259D01*
X135930882Y-58386054D01*
X135930883Y-58384865D01*
X137318882Y-58384865D01*
X137422339Y-58635252D01*
X137613741Y-58826987D01*
X137863946Y-58930882D01*
X138134865Y-58931118D01*
X138385252Y-58827661D01*
X138576987Y-58636259D01*
X138680882Y-58386054D01*
X138681118Y-58115135D01*
X138577661Y-57864748D01*
X138386259Y-57673013D01*
X138136054Y-57569118D01*
X137865135Y-57568882D01*
X137614748Y-57672339D01*
X137423013Y-57863741D01*
X137319118Y-58113946D01*
X137318882Y-58384865D01*
X135930883Y-58384865D01*
X135931118Y-58115135D01*
X135827661Y-57864748D01*
X135636259Y-57673013D01*
X135386054Y-57569118D01*
X135115135Y-57568882D01*
X134864748Y-57672339D01*
X134673013Y-57863741D01*
X134569118Y-58113946D01*
X134568882Y-58384865D01*
X121781000Y-58384865D01*
X121781000Y-57719948D01*
X122219948Y-57281000D01*
X131353560Y-57281000D01*
X131319118Y-57363946D01*
X131318882Y-57634865D01*
X131422339Y-57885252D01*
X131613741Y-58076987D01*
X131863946Y-58180882D01*
X132134865Y-58181118D01*
X132385252Y-58077661D01*
X132576987Y-57886259D01*
X132680882Y-57636054D01*
X132681118Y-57365135D01*
X132646354Y-57281000D01*
X139530052Y-57281000D01*
X140624526Y-58375474D01*
X140796795Y-58490580D01*
X141000000Y-58531000D01*
X153939672Y-58531000D01*
X153815929Y-58555614D01*
X153696743Y-58635252D01*
X153659882Y-58659882D01*
X139800764Y-72519000D01*
X138694015Y-72519000D01*
X138826987Y-72386259D01*
X138930882Y-72136054D01*
X138931118Y-71865135D01*
X138827661Y-71614748D01*
X138636259Y-71423013D01*
X138386054Y-71319118D01*
X138115135Y-71318882D01*
X137864748Y-71422339D01*
X137673013Y-71613741D01*
X137569118Y-71863946D01*
X137568882Y-72134865D01*
X137672339Y-72385252D01*
X137805855Y-72519000D01*
X126125678Y-72519000D01*
X126180882Y-72386054D01*
X126181118Y-72115135D01*
X126077661Y-71864748D01*
X125963080Y-71749968D01*
X126076987Y-71636259D01*
X126180882Y-71386054D01*
X126180883Y-71384865D01*
X133068882Y-71384865D01*
X133172339Y-71635252D01*
X133363741Y-71826987D01*
X133613946Y-71930882D01*
X133884865Y-71931118D01*
X134135252Y-71827661D01*
X134326987Y-71636259D01*
X134430882Y-71386054D01*
X134431118Y-71115135D01*
X134327661Y-70864748D01*
X134136259Y-70673013D01*
X133886054Y-70569118D01*
X133615135Y-70568882D01*
X133364748Y-70672339D01*
X133173013Y-70863741D01*
X133069118Y-71113946D01*
X133068882Y-71384865D01*
X126180883Y-71384865D01*
X126181118Y-71115135D01*
X126077661Y-70864748D01*
X125963080Y-70749968D01*
X126076987Y-70636259D01*
X126077565Y-70634865D01*
X130318882Y-70634865D01*
X130422339Y-70885252D01*
X130613741Y-71076987D01*
X130863946Y-71180882D01*
X131134865Y-71181118D01*
X131385252Y-71077661D01*
X131576987Y-70886259D01*
X131680882Y-70636054D01*
X131681118Y-70365135D01*
X131577661Y-70114748D01*
X131386259Y-69923013D01*
X131136054Y-69819118D01*
X130865135Y-69818882D01*
X130614748Y-69922339D01*
X130423013Y-70113741D01*
X130319118Y-70363946D01*
X130318882Y-70634865D01*
X126077565Y-70634865D01*
X126180882Y-70386054D01*
X126181118Y-70115135D01*
X126077661Y-69864748D01*
X125963080Y-69749968D01*
X126076987Y-69636259D01*
X126180882Y-69386054D01*
X126181118Y-69115135D01*
X126077661Y-68864748D01*
X125886259Y-68673013D01*
X125636054Y-68569118D01*
X125365135Y-68568882D01*
X125114748Y-68672339D01*
X124923013Y-68863741D01*
X124819118Y-69113946D01*
X124818882Y-69384865D01*
X124922339Y-69635252D01*
X125036920Y-69750032D01*
X124923013Y-69863741D01*
X124819118Y-70113946D01*
X124818882Y-70384865D01*
X124922339Y-70635252D01*
X125036920Y-70750032D01*
X124923013Y-70863741D01*
X124819118Y-71113946D01*
X124818882Y-71384865D01*
X124922339Y-71635252D01*
X125036920Y-71750032D01*
X124923013Y-71863741D01*
X124819118Y-72113946D01*
X124818882Y-72384865D01*
X124874305Y-72519000D01*
X118000000Y-72519000D01*
X117815930Y-72555613D01*
X117659882Y-72659881D01*
X116800764Y-73519000D01*
X108482079Y-73519000D01*
X108386259Y-73423013D01*
X108136054Y-73319118D01*
X107865135Y-73318882D01*
X107614748Y-73422339D01*
X107423013Y-73613741D01*
X107319118Y-73863946D01*
X107318882Y-74134865D01*
X107422339Y-74385252D01*
X107613741Y-74576987D01*
X107863946Y-74680882D01*
X108134865Y-74681118D01*
X108385252Y-74577661D01*
X108482081Y-74481000D01*
X117000000Y-74481000D01*
X117184071Y-74444386D01*
X117340118Y-74340118D01*
X118199237Y-73481000D01*
X124874322Y-73481000D01*
X124819118Y-73613946D01*
X124818882Y-73884865D01*
X124922339Y-74135252D01*
X125036920Y-74250032D01*
X124923013Y-74363741D01*
X124819118Y-74613946D01*
X124818882Y-74884865D01*
X124922339Y-75135252D01*
X124931732Y-75144662D01*
X124864748Y-75172339D01*
X124673013Y-75363741D01*
X124569118Y-75613946D01*
X124568882Y-75884865D01*
X124672339Y-76135252D01*
X124863741Y-76326987D01*
X125113946Y-76430882D01*
X125384865Y-76431118D01*
X125635252Y-76327661D01*
X125826987Y-76136259D01*
X125930882Y-75886054D01*
X125931118Y-75615135D01*
X125827661Y-75364748D01*
X125818268Y-75355338D01*
X125885252Y-75327661D01*
X126076987Y-75136259D01*
X126180882Y-74886054D01*
X126180883Y-74884865D01*
X139818882Y-74884865D01*
X139922339Y-75135252D01*
X140113741Y-75326987D01*
X140319076Y-75412250D01*
X140318882Y-75634865D01*
X140422339Y-75885252D01*
X140613741Y-76076987D01*
X140863946Y-76180882D01*
X141134865Y-76181118D01*
X141385252Y-76077661D01*
X141576987Y-75886259D01*
X141680882Y-75636054D01*
X141681118Y-75365135D01*
X141577661Y-75114748D01*
X141386259Y-74923013D01*
X141180924Y-74837750D01*
X141181118Y-74615135D01*
X141176045Y-74602858D01*
X141363946Y-74680882D01*
X141634865Y-74681118D01*
X141885252Y-74577661D01*
X142076987Y-74386259D01*
X142180882Y-74136054D01*
X142181118Y-73865135D01*
X142077661Y-73614748D01*
X141886259Y-73423013D01*
X141636054Y-73319118D01*
X141365135Y-73318882D01*
X141114748Y-73422339D01*
X140923013Y-73613741D01*
X140819118Y-73863946D01*
X140818882Y-74134865D01*
X140823955Y-74147142D01*
X140636054Y-74069118D01*
X140365135Y-74068882D01*
X140114748Y-74172339D01*
X139923013Y-74363741D01*
X139819118Y-74613946D01*
X139818882Y-74884865D01*
X126180883Y-74884865D01*
X126181118Y-74615135D01*
X126077661Y-74364748D01*
X125963080Y-74249968D01*
X126076987Y-74136259D01*
X126180882Y-73886054D01*
X126181118Y-73615135D01*
X126125695Y-73481000D01*
X140000000Y-73481000D01*
X140184071Y-73444386D01*
X140340118Y-73340118D01*
X142321126Y-71359110D01*
X142319118Y-71363946D01*
X142318882Y-71634865D01*
X142422339Y-71885252D01*
X142608420Y-72071657D01*
X142364748Y-72172339D01*
X142173013Y-72363741D01*
X142069118Y-72613946D01*
X142068882Y-72884865D01*
X142172339Y-73135252D01*
X142363741Y-73326987D01*
X142613946Y-73430882D01*
X142884865Y-73431118D01*
X143135252Y-73327661D01*
X143326987Y-73136259D01*
X143430882Y-72886054D01*
X143431118Y-72615135D01*
X143327661Y-72364748D01*
X143141580Y-72178343D01*
X143385252Y-72077661D01*
X143576987Y-71886259D01*
X143680882Y-71636054D01*
X143681118Y-71365135D01*
X143577661Y-71114748D01*
X143386259Y-70923013D01*
X143136054Y-70819118D01*
X142865135Y-70818882D01*
X142858692Y-70821544D01*
X154199236Y-59481000D01*
X170050764Y-59481000D01*
X170569000Y-59999237D01*
X170568882Y-60134865D01*
X170672339Y-60385252D01*
X170863741Y-60576987D01*
X171113946Y-60680882D01*
X171384865Y-60681118D01*
X171635252Y-60577661D01*
X171826987Y-60386259D01*
X171930882Y-60136054D01*
X171931118Y-59865135D01*
X171827661Y-59614748D01*
X171636259Y-59423013D01*
X171386054Y-59319118D01*
X171249235Y-59318999D01*
X170590118Y-58659882D01*
X170434071Y-58555614D01*
X170250000Y-58519000D01*
X167944015Y-58519000D01*
X168076987Y-58386259D01*
X168180882Y-58136054D01*
X168181118Y-57865135D01*
X168077661Y-57614748D01*
X167886259Y-57423013D01*
X167636054Y-57319118D01*
X167365135Y-57318882D01*
X167114748Y-57422339D01*
X167068006Y-57469000D01*
X164932166Y-57469000D01*
X164886259Y-57423013D01*
X164636054Y-57319118D01*
X164365135Y-57318882D01*
X164114748Y-57422339D01*
X164068006Y-57469000D01*
X161432166Y-57469000D01*
X161386259Y-57423013D01*
X161136054Y-57319118D01*
X160865135Y-57318882D01*
X160614748Y-57422339D01*
X160568006Y-57469000D01*
X141219948Y-57469000D01*
X140377948Y-56627000D01*
X182947394Y-56627000D01*
X183373000Y-57052606D01*
X183373000Y-100447394D01*
X182947394Y-100873000D01*
X114000000Y-100873000D01*
X113950590Y-100883006D01*
X113910197Y-100910197D01*
X112910197Y-101910197D01*
X112882334Y-101952211D01*
X112873000Y-102000000D01*
X112873000Y-122947394D01*
X112447394Y-123373000D01*
X53052606Y-123373000D01*
X52627000Y-122947394D01*
X52627000Y-118600000D01*
X58711536Y-118600000D01*
X58711536Y-120400000D01*
X58738103Y-120541190D01*
X58821546Y-120670865D01*
X58948866Y-120757859D01*
X59100000Y-120788464D01*
X60900000Y-120788464D01*
X61041190Y-120761897D01*
X61170865Y-120678454D01*
X61257859Y-120551134D01*
X61288464Y-120400000D01*
X61288464Y-119669572D01*
X74618414Y-119669572D01*
X75132056Y-120912681D01*
X76082317Y-121864601D01*
X77324527Y-122380412D01*
X78669572Y-122381586D01*
X79912681Y-121867944D01*
X80864601Y-120917683D01*
X81380412Y-119675473D01*
X81381586Y-118330428D01*
X80867944Y-117087319D01*
X79917683Y-116135399D01*
X78675473Y-115619588D01*
X77330428Y-115618414D01*
X76087319Y-116132056D01*
X75135399Y-117082317D01*
X74619588Y-118324527D01*
X74618414Y-119669572D01*
X61288464Y-119669572D01*
X61288464Y-118600000D01*
X61261897Y-118458810D01*
X61178454Y-118329135D01*
X61051134Y-118242141D01*
X60900000Y-118211536D01*
X60325534Y-118211536D01*
X60724680Y-118046612D01*
X61085345Y-117686575D01*
X61280777Y-117215924D01*
X61281222Y-116706311D01*
X61086612Y-116235320D01*
X60726575Y-115874655D01*
X60255924Y-115679223D01*
X59746311Y-115678778D01*
X59275320Y-115873388D01*
X58914655Y-116233425D01*
X58719223Y-116704076D01*
X58718778Y-117213689D01*
X58913388Y-117684680D01*
X59273425Y-118045345D01*
X59673656Y-118211536D01*
X59100000Y-118211536D01*
X58958810Y-118238103D01*
X58829135Y-118321546D01*
X58742141Y-118448866D01*
X58711536Y-118600000D01*
X52627000Y-118600000D01*
X52627000Y-109884865D01*
X69568882Y-109884865D01*
X69672339Y-110135252D01*
X69863741Y-110326987D01*
X70113946Y-110430882D01*
X70384865Y-110431118D01*
X70635252Y-110327661D01*
X70826987Y-110136259D01*
X70930882Y-109886054D01*
X70931118Y-109615135D01*
X70827661Y-109364748D01*
X70781000Y-109318006D01*
X70781000Y-107884865D01*
X81818882Y-107884865D01*
X81922339Y-108135252D01*
X82113741Y-108326987D01*
X82363946Y-108430882D01*
X82634865Y-108431118D01*
X82885252Y-108327661D01*
X83076987Y-108136259D01*
X83180882Y-107886054D01*
X83181118Y-107615135D01*
X83077661Y-107364748D01*
X82886259Y-107173013D01*
X82794390Y-107134865D01*
X87068882Y-107134865D01*
X87172339Y-107385252D01*
X87363741Y-107576987D01*
X87613946Y-107680882D01*
X87884865Y-107681118D01*
X88135252Y-107577661D01*
X88326987Y-107386259D01*
X88430882Y-107136054D01*
X88430883Y-107134865D01*
X90568882Y-107134865D01*
X90672339Y-107385252D01*
X90863741Y-107576987D01*
X91113946Y-107680882D01*
X91384865Y-107681118D01*
X91635252Y-107577661D01*
X91826987Y-107386259D01*
X91930882Y-107136054D01*
X91930883Y-107134865D01*
X94068882Y-107134865D01*
X94172339Y-107385252D01*
X94363741Y-107576987D01*
X94613946Y-107680882D01*
X94884865Y-107681118D01*
X95135252Y-107577661D01*
X95326987Y-107386259D01*
X95430882Y-107136054D01*
X95431118Y-106865135D01*
X95327661Y-106614748D01*
X95136259Y-106423013D01*
X94886054Y-106319118D01*
X94615135Y-106318882D01*
X94364748Y-106422339D01*
X94173013Y-106613741D01*
X94069118Y-106863946D01*
X94068882Y-107134865D01*
X91930883Y-107134865D01*
X91931118Y-106865135D01*
X91827661Y-106614748D01*
X91636259Y-106423013D01*
X91386054Y-106319118D01*
X91115135Y-106318882D01*
X90864748Y-106422339D01*
X90673013Y-106613741D01*
X90569118Y-106863946D01*
X90568882Y-107134865D01*
X88430883Y-107134865D01*
X88431118Y-106865135D01*
X88327661Y-106614748D01*
X88136259Y-106423013D01*
X87886054Y-106319118D01*
X87615135Y-106318882D01*
X87364748Y-106422339D01*
X87173013Y-106613741D01*
X87069118Y-106863946D01*
X87068882Y-107134865D01*
X82794390Y-107134865D01*
X82636054Y-107069118D01*
X82365135Y-107068882D01*
X82114748Y-107172339D01*
X81923013Y-107363741D01*
X81819118Y-107613946D01*
X81818882Y-107884865D01*
X70781000Y-107884865D01*
X70781000Y-105884865D01*
X71318882Y-105884865D01*
X71422339Y-106135252D01*
X71613741Y-106326987D01*
X71863946Y-106430882D01*
X72134865Y-106431118D01*
X72385252Y-106327661D01*
X72576987Y-106136259D01*
X72577565Y-106134865D01*
X80068882Y-106134865D01*
X80172339Y-106385252D01*
X80363741Y-106576987D01*
X80613946Y-106680882D01*
X80884865Y-106681118D01*
X81135252Y-106577661D01*
X81326987Y-106386259D01*
X81430882Y-106136054D01*
X81431118Y-105865135D01*
X81327661Y-105614748D01*
X81136259Y-105423013D01*
X80886054Y-105319118D01*
X80615135Y-105318882D01*
X80364748Y-105422339D01*
X80173013Y-105613741D01*
X80069118Y-105863946D01*
X80068882Y-106134865D01*
X72577565Y-106134865D01*
X72680882Y-105886054D01*
X72681118Y-105615135D01*
X72577661Y-105364748D01*
X72386259Y-105173013D01*
X72136054Y-105069118D01*
X71865135Y-105068882D01*
X71614748Y-105172339D01*
X71423013Y-105363741D01*
X71319118Y-105613946D01*
X71318882Y-105884865D01*
X70781000Y-105884865D01*
X70781000Y-105219948D01*
X71219948Y-104781000D01*
X71567834Y-104781000D01*
X71613741Y-104826987D01*
X71863946Y-104930882D01*
X72134865Y-104931118D01*
X72385252Y-104827661D01*
X72576987Y-104636259D01*
X72680882Y-104386054D01*
X72681118Y-104115135D01*
X72577661Y-103864748D01*
X72531000Y-103818006D01*
X72531000Y-102384865D01*
X97818882Y-102384865D01*
X97922339Y-102635252D01*
X98113741Y-102826987D01*
X98363946Y-102930882D01*
X98634865Y-102931118D01*
X98885252Y-102827661D01*
X99076987Y-102636259D01*
X99180882Y-102386054D01*
X99181118Y-102115135D01*
X99077661Y-101864748D01*
X98886259Y-101673013D01*
X98636054Y-101569118D01*
X98365135Y-101568882D01*
X98114748Y-101672339D01*
X97923013Y-101863741D01*
X97819118Y-102113946D01*
X97818882Y-102384865D01*
X72531000Y-102384865D01*
X72531000Y-98682166D01*
X72576987Y-98636259D01*
X72680882Y-98386054D01*
X72681118Y-98115135D01*
X72577661Y-97864748D01*
X72386259Y-97673013D01*
X72136054Y-97569118D01*
X71865135Y-97568882D01*
X71614748Y-97672339D01*
X71423013Y-97863741D01*
X71319118Y-98113946D01*
X71318882Y-98384865D01*
X71422339Y-98635252D01*
X71469000Y-98681994D01*
X71469000Y-103719000D01*
X71000000Y-103719000D01*
X70796795Y-103759420D01*
X70624526Y-103874526D01*
X69874526Y-104624526D01*
X69759420Y-104796795D01*
X69719000Y-105000000D01*
X69719000Y-109317834D01*
X69673013Y-109363741D01*
X69569118Y-109613946D01*
X69568882Y-109884865D01*
X52627000Y-109884865D01*
X52627000Y-105317493D01*
X58618761Y-105317493D01*
X58828563Y-105825251D01*
X59216705Y-106214072D01*
X59724097Y-106424759D01*
X60273493Y-106425239D01*
X60781251Y-106215437D01*
X61170072Y-105827295D01*
X61380759Y-105319903D01*
X61381239Y-104770507D01*
X61171437Y-104262749D01*
X60783295Y-103873928D01*
X60275903Y-103663241D01*
X59726507Y-103662761D01*
X59218749Y-103872563D01*
X58829928Y-104260705D01*
X58619241Y-104768097D01*
X58618761Y-105317493D01*
X52627000Y-105317493D01*
X52627000Y-99729493D01*
X58618761Y-99729493D01*
X58828563Y-100237251D01*
X59216705Y-100626072D01*
X59724097Y-100836759D01*
X60273493Y-100837239D01*
X60781251Y-100627437D01*
X61170072Y-100239295D01*
X61380759Y-99731903D01*
X61381239Y-99182507D01*
X61171437Y-98674749D01*
X60783295Y-98285928D01*
X60275903Y-98075241D01*
X59726507Y-98074761D01*
X59218749Y-98284563D01*
X58829928Y-98672705D01*
X58619241Y-99180097D01*
X58618761Y-99729493D01*
X52627000Y-99729493D01*
X52627000Y-93552606D01*
X53052606Y-93127000D01*
X68000000Y-93127000D01*
X68049410Y-93116994D01*
X68089803Y-93089803D01*
X68589803Y-92589803D01*
X68617666Y-92547789D01*
X68627000Y-92500000D01*
X68627000Y-89669572D01*
X175618414Y-89669572D01*
X176132056Y-90912681D01*
X177082317Y-91864601D01*
X178324527Y-92380412D01*
X179669572Y-92381586D01*
X180912681Y-91867944D01*
X181864601Y-90917683D01*
X182380412Y-89675473D01*
X182381586Y-88330428D01*
X181867944Y-87087319D01*
X180917683Y-86135399D01*
X179675473Y-85619588D01*
X178330428Y-85618414D01*
X177087319Y-86132056D01*
X176135399Y-87082317D01*
X175619588Y-88324527D01*
X175618414Y-89669572D01*
X68627000Y-89669572D01*
X68627000Y-86384865D01*
X81818882Y-86384865D01*
X81922339Y-86635252D01*
X82113741Y-86826987D01*
X82363946Y-86930882D01*
X82634865Y-86931118D01*
X82885252Y-86827661D01*
X83076987Y-86636259D01*
X83180882Y-86386054D01*
X83181118Y-86115135D01*
X83077661Y-85864748D01*
X82886259Y-85673013D01*
X82636054Y-85569118D01*
X82365135Y-85568882D01*
X82114748Y-85672339D01*
X81923013Y-85863741D01*
X81819118Y-86113946D01*
X81818882Y-86384865D01*
X68627000Y-86384865D01*
X68627000Y-84634865D01*
X98318882Y-84634865D01*
X98422339Y-84885252D01*
X98613741Y-85076987D01*
X98863946Y-85180882D01*
X99134865Y-85181118D01*
X99385252Y-85077661D01*
X99576987Y-84886259D01*
X99680882Y-84636054D01*
X99680883Y-84634865D01*
X139318882Y-84634865D01*
X139422339Y-84885252D01*
X139613741Y-85076987D01*
X139863946Y-85180882D01*
X140134865Y-85181118D01*
X140385252Y-85077661D01*
X140576987Y-84886259D01*
X140680882Y-84636054D01*
X140681118Y-84365135D01*
X140585974Y-84134865D01*
X163568882Y-84134865D01*
X163672339Y-84385252D01*
X163863741Y-84576987D01*
X164113946Y-84680882D01*
X164384865Y-84681118D01*
X164635252Y-84577661D01*
X164826987Y-84386259D01*
X164930882Y-84136054D01*
X164931118Y-83865135D01*
X164827661Y-83614748D01*
X164636259Y-83423013D01*
X164386054Y-83319118D01*
X164115135Y-83318882D01*
X163864748Y-83422339D01*
X163673013Y-83613741D01*
X163569118Y-83863946D01*
X163568882Y-84134865D01*
X140585974Y-84134865D01*
X140577661Y-84114748D01*
X140386259Y-83923013D01*
X140136054Y-83819118D01*
X139865135Y-83818882D01*
X139614748Y-83922339D01*
X139423013Y-84113741D01*
X139319118Y-84363946D01*
X139318882Y-84634865D01*
X99680883Y-84634865D01*
X99681118Y-84365135D01*
X99577661Y-84114748D01*
X99386259Y-83923013D01*
X99136054Y-83819118D01*
X98865135Y-83818882D01*
X98614748Y-83922339D01*
X98423013Y-84113741D01*
X98319118Y-84363946D01*
X98318882Y-84634865D01*
X68627000Y-84634865D01*
X68627000Y-81884865D01*
X119568882Y-81884865D01*
X119672339Y-82135252D01*
X119786920Y-82250032D01*
X119673013Y-82363741D01*
X119569118Y-82613946D01*
X119568882Y-82884865D01*
X119672339Y-83135252D01*
X119786920Y-83250032D01*
X119673013Y-83363741D01*
X119569118Y-83613946D01*
X119568882Y-83884865D01*
X119672339Y-84135252D01*
X119863741Y-84326987D01*
X120113946Y-84430882D01*
X120384865Y-84431118D01*
X120635252Y-84327661D01*
X120826987Y-84136259D01*
X120930882Y-83886054D01*
X120931118Y-83615135D01*
X120827661Y-83364748D01*
X120713080Y-83249968D01*
X120826987Y-83136259D01*
X120930882Y-82886054D01*
X120930883Y-82884865D01*
X149318882Y-82884865D01*
X149422339Y-83135252D01*
X149613741Y-83326987D01*
X149863946Y-83430882D01*
X150134865Y-83431118D01*
X150385252Y-83327661D01*
X150576987Y-83136259D01*
X150577565Y-83134865D01*
X154568882Y-83134865D01*
X154672339Y-83385252D01*
X154863741Y-83576987D01*
X155113946Y-83680882D01*
X155384865Y-83681118D01*
X155635252Y-83577661D01*
X155826987Y-83386259D01*
X155930882Y-83136054D01*
X155930883Y-83134865D01*
X158568882Y-83134865D01*
X158672339Y-83385252D01*
X158863741Y-83576987D01*
X159113946Y-83680882D01*
X159384865Y-83681118D01*
X159635252Y-83577661D01*
X159826987Y-83386259D01*
X159930882Y-83136054D01*
X159930883Y-83134865D01*
X168568882Y-83134865D01*
X168672339Y-83385252D01*
X168863741Y-83576987D01*
X169113946Y-83680882D01*
X169384865Y-83681118D01*
X169635252Y-83577661D01*
X169826987Y-83386259D01*
X169930882Y-83136054D01*
X169931118Y-82865135D01*
X169827661Y-82614748D01*
X169636259Y-82423013D01*
X169386054Y-82319118D01*
X169115135Y-82318882D01*
X168864748Y-82422339D01*
X168673013Y-82613741D01*
X168569118Y-82863946D01*
X168568882Y-83134865D01*
X159930883Y-83134865D01*
X159931118Y-82865135D01*
X159827661Y-82614748D01*
X159636259Y-82423013D01*
X159386054Y-82319118D01*
X159115135Y-82318882D01*
X158864748Y-82422339D01*
X158673013Y-82613741D01*
X158569118Y-82863946D01*
X158568882Y-83134865D01*
X155930883Y-83134865D01*
X155931118Y-82865135D01*
X155827661Y-82614748D01*
X155636259Y-82423013D01*
X155386054Y-82319118D01*
X155115135Y-82318882D01*
X154864748Y-82422339D01*
X154673013Y-82613741D01*
X154569118Y-82863946D01*
X154568882Y-83134865D01*
X150577565Y-83134865D01*
X150680882Y-82886054D01*
X150681118Y-82615135D01*
X150577661Y-82364748D01*
X150386259Y-82173013D01*
X150136054Y-82069118D01*
X149865135Y-82068882D01*
X149614748Y-82172339D01*
X149423013Y-82363741D01*
X149319118Y-82613946D01*
X149318882Y-82884865D01*
X120930883Y-82884865D01*
X120931118Y-82615135D01*
X120827661Y-82364748D01*
X120713080Y-82249968D01*
X120826987Y-82136259D01*
X120930882Y-81886054D01*
X120931118Y-81615135D01*
X120827661Y-81364748D01*
X120636259Y-81173013D01*
X120386054Y-81069118D01*
X120115135Y-81068882D01*
X119864748Y-81172339D01*
X119673013Y-81363741D01*
X119569118Y-81613946D01*
X119568882Y-81884865D01*
X68627000Y-81884865D01*
X68627000Y-78634865D01*
X102318882Y-78634865D01*
X102422339Y-78885252D01*
X102613741Y-79076987D01*
X102863946Y-79180882D01*
X103134865Y-79181118D01*
X103385252Y-79077661D01*
X103576987Y-78886259D01*
X103680882Y-78636054D01*
X103681118Y-78365135D01*
X103577661Y-78114748D01*
X103386259Y-77923013D01*
X103136054Y-77819118D01*
X102865135Y-77818882D01*
X102614748Y-77922339D01*
X102423013Y-78113741D01*
X102319118Y-78363946D01*
X102318882Y-78634865D01*
X68627000Y-78634865D01*
X68627000Y-77384865D01*
X119568882Y-77384865D01*
X119672339Y-77635252D01*
X119786920Y-77750032D01*
X119673013Y-77863741D01*
X119569118Y-78113946D01*
X119568882Y-78384865D01*
X119672339Y-78635252D01*
X119786920Y-78750032D01*
X119673013Y-78863741D01*
X119569118Y-79113946D01*
X119568882Y-79384865D01*
X119672339Y-79635252D01*
X119786920Y-79750032D01*
X119673013Y-79863741D01*
X119569118Y-80113946D01*
X119568882Y-80384865D01*
X119672339Y-80635252D01*
X119863741Y-80826987D01*
X120113946Y-80930882D01*
X120384865Y-80931118D01*
X120496806Y-80884865D01*
X136068882Y-80884865D01*
X136172339Y-81135252D01*
X136363741Y-81326987D01*
X136613946Y-81430882D01*
X136884865Y-81431118D01*
X137135252Y-81327661D01*
X137326987Y-81136259D01*
X137430882Y-80886054D01*
X137431118Y-80615135D01*
X137327661Y-80364748D01*
X137136259Y-80173013D01*
X136886054Y-80069118D01*
X136615135Y-80068882D01*
X136364748Y-80172339D01*
X136173013Y-80363741D01*
X136069118Y-80613946D01*
X136068882Y-80884865D01*
X120496806Y-80884865D01*
X120635252Y-80827661D01*
X120826987Y-80636259D01*
X120930882Y-80386054D01*
X120931100Y-80134865D01*
X133318882Y-80134865D01*
X133422339Y-80385252D01*
X133613741Y-80576987D01*
X133863946Y-80680882D01*
X134134865Y-80681118D01*
X134385252Y-80577661D01*
X134576987Y-80386259D01*
X134680882Y-80136054D01*
X134681118Y-79865135D01*
X134577661Y-79614748D01*
X134386259Y-79423013D01*
X134136054Y-79319118D01*
X133865135Y-79318882D01*
X133614748Y-79422339D01*
X133423013Y-79613741D01*
X133319118Y-79863946D01*
X133318882Y-80134865D01*
X120931100Y-80134865D01*
X120931118Y-80115135D01*
X120827661Y-79864748D01*
X120713080Y-79749968D01*
X120826987Y-79636259D01*
X120930882Y-79386054D01*
X120931118Y-79115135D01*
X120827661Y-78864748D01*
X120713080Y-78749968D01*
X120826987Y-78636259D01*
X120827565Y-78634865D01*
X131818882Y-78634865D01*
X131922339Y-78885252D01*
X132113741Y-79076987D01*
X132363946Y-79180882D01*
X132634865Y-79181118D01*
X132885252Y-79077661D01*
X133076987Y-78886259D01*
X133180882Y-78636054D01*
X133180883Y-78634865D01*
X145568882Y-78634865D01*
X145672339Y-78885252D01*
X145863741Y-79076987D01*
X146113946Y-79180882D01*
X146384865Y-79181118D01*
X146635252Y-79077661D01*
X146826987Y-78886259D01*
X146930882Y-78636054D01*
X146931118Y-78365135D01*
X146835974Y-78134865D01*
X153568882Y-78134865D01*
X153672339Y-78385252D01*
X153863741Y-78576987D01*
X154113946Y-78680882D01*
X154384865Y-78681118D01*
X154635252Y-78577661D01*
X154826987Y-78386259D01*
X154930882Y-78136054D01*
X154930883Y-78134865D01*
X157568882Y-78134865D01*
X157672339Y-78385252D01*
X157863741Y-78576987D01*
X158113946Y-78680882D01*
X158384865Y-78681118D01*
X158635252Y-78577661D01*
X158826987Y-78386259D01*
X158930882Y-78136054D01*
X158930883Y-78134865D01*
X161568882Y-78134865D01*
X161672339Y-78385252D01*
X161863741Y-78576987D01*
X162113946Y-78680882D01*
X162355979Y-78681093D01*
X162173013Y-78863741D01*
X162069118Y-79113946D01*
X162068882Y-79384865D01*
X162172339Y-79635252D01*
X162363741Y-79826987D01*
X162613946Y-79930882D01*
X162884865Y-79931118D01*
X163135252Y-79827661D01*
X163326987Y-79636259D01*
X163430882Y-79386054D01*
X163431118Y-79115135D01*
X163327661Y-78864748D01*
X163136259Y-78673013D01*
X162886054Y-78569118D01*
X162644021Y-78568907D01*
X162826987Y-78386259D01*
X162930882Y-78136054D01*
X162931118Y-77865135D01*
X162827661Y-77614748D01*
X162636259Y-77423013D01*
X162386054Y-77319118D01*
X162115135Y-77318882D01*
X161864748Y-77422339D01*
X161673013Y-77613741D01*
X161569118Y-77863946D01*
X161568882Y-78134865D01*
X158930883Y-78134865D01*
X158931118Y-77865135D01*
X158827661Y-77614748D01*
X158636259Y-77423013D01*
X158386054Y-77319118D01*
X158115135Y-77318882D01*
X157864748Y-77422339D01*
X157673013Y-77613741D01*
X157569118Y-77863946D01*
X157568882Y-78134865D01*
X154930883Y-78134865D01*
X154931118Y-77865135D01*
X154827661Y-77614748D01*
X154636259Y-77423013D01*
X154386054Y-77319118D01*
X154115135Y-77318882D01*
X153864748Y-77422339D01*
X153673013Y-77613741D01*
X153569118Y-77863946D01*
X153568882Y-78134865D01*
X146835974Y-78134865D01*
X146827661Y-78114748D01*
X146636259Y-77923013D01*
X146386054Y-77819118D01*
X146115135Y-77818882D01*
X145864748Y-77922339D01*
X145673013Y-78113741D01*
X145569118Y-78363946D01*
X145568882Y-78634865D01*
X133180883Y-78634865D01*
X133181118Y-78365135D01*
X133077661Y-78114748D01*
X132886259Y-77923013D01*
X132636054Y-77819118D01*
X132365135Y-77818882D01*
X132114748Y-77922339D01*
X131923013Y-78113741D01*
X131819118Y-78363946D01*
X131818882Y-78634865D01*
X120827565Y-78634865D01*
X120930882Y-78386054D01*
X120931118Y-78115135D01*
X120827661Y-77864748D01*
X120713080Y-77749968D01*
X120826987Y-77636259D01*
X120930882Y-77386054D01*
X120931118Y-77115135D01*
X120827661Y-76864748D01*
X120636259Y-76673013D01*
X120544390Y-76634865D01*
X123068882Y-76634865D01*
X123172339Y-76885252D01*
X123363741Y-77076987D01*
X123613946Y-77180882D01*
X123884865Y-77181118D01*
X123996806Y-77134865D01*
X131818882Y-77134865D01*
X131922339Y-77385252D01*
X132113741Y-77576987D01*
X132363946Y-77680882D01*
X132634865Y-77681118D01*
X132885252Y-77577661D01*
X133076987Y-77386259D01*
X133180882Y-77136054D01*
X133180883Y-77134865D01*
X140818882Y-77134865D01*
X140922339Y-77385252D01*
X141113741Y-77576987D01*
X141363946Y-77680882D01*
X141634865Y-77681118D01*
X141885252Y-77577661D01*
X142076987Y-77386259D01*
X142180882Y-77136054D01*
X142181100Y-76884865D01*
X145068882Y-76884865D01*
X145172339Y-77135252D01*
X145363741Y-77326987D01*
X145613946Y-77430882D01*
X145884865Y-77431118D01*
X146135252Y-77327661D01*
X146326987Y-77136259D01*
X146430882Y-76886054D01*
X146431077Y-76662024D01*
X146635252Y-76577661D01*
X146826987Y-76386259D01*
X146930882Y-76136054D01*
X146931077Y-75912024D01*
X147135252Y-75827661D01*
X147326987Y-75636259D01*
X147430882Y-75386054D01*
X147431077Y-75162024D01*
X147635252Y-75077661D01*
X147826987Y-74886259D01*
X147930882Y-74636054D01*
X147931077Y-74412024D01*
X147996807Y-74384865D01*
X165318882Y-74384865D01*
X165422339Y-74635252D01*
X165613741Y-74826987D01*
X165863946Y-74930882D01*
X166134865Y-74931118D01*
X166385252Y-74827661D01*
X166576987Y-74636259D01*
X166680882Y-74386054D01*
X166681118Y-74115135D01*
X166577661Y-73864748D01*
X166386259Y-73673013D01*
X166136054Y-73569118D01*
X165865135Y-73568882D01*
X165614748Y-73672339D01*
X165423013Y-73863741D01*
X165319118Y-74113946D01*
X165318882Y-74384865D01*
X147996807Y-74384865D01*
X148135252Y-74327661D01*
X148326987Y-74136259D01*
X148430882Y-73886054D01*
X148431077Y-73662024D01*
X148635252Y-73577661D01*
X148826987Y-73386259D01*
X148930882Y-73136054D01*
X148931077Y-72912024D01*
X149135252Y-72827661D01*
X149326987Y-72636259D01*
X149430882Y-72386054D01*
X149431077Y-72162024D01*
X149496807Y-72134865D01*
X171068882Y-72134865D01*
X171172339Y-72385252D01*
X171363741Y-72576987D01*
X171613946Y-72680882D01*
X171884865Y-72681118D01*
X172135252Y-72577661D01*
X172326987Y-72386259D01*
X172430882Y-72136054D01*
X172431118Y-71865135D01*
X172327661Y-71614748D01*
X172136259Y-71423013D01*
X171886054Y-71319118D01*
X171615135Y-71318882D01*
X171364748Y-71422339D01*
X171173013Y-71613741D01*
X171069118Y-71863946D01*
X171068882Y-72134865D01*
X149496807Y-72134865D01*
X149635252Y-72077661D01*
X149826987Y-71886259D01*
X149930882Y-71636054D01*
X149931077Y-71412024D01*
X150135252Y-71327661D01*
X150326987Y-71136259D01*
X150430882Y-70886054D01*
X150431077Y-70662024D01*
X150635252Y-70577661D01*
X150826987Y-70386259D01*
X150827565Y-70384865D01*
X165068882Y-70384865D01*
X165172339Y-70635252D01*
X165363741Y-70826987D01*
X165613946Y-70930882D01*
X165884865Y-70931118D01*
X166135252Y-70827661D01*
X166326987Y-70636259D01*
X166430882Y-70386054D01*
X166431118Y-70115135D01*
X166327661Y-69864748D01*
X166136259Y-69673013D01*
X165886054Y-69569118D01*
X165615135Y-69568882D01*
X165364748Y-69672339D01*
X165173013Y-69863741D01*
X165069118Y-70113946D01*
X165068882Y-70384865D01*
X150827565Y-70384865D01*
X150930882Y-70136054D01*
X150931077Y-69912024D01*
X151135252Y-69827661D01*
X151326987Y-69636259D01*
X151430882Y-69386054D01*
X151431077Y-69162024D01*
X151635252Y-69077661D01*
X151826987Y-68886259D01*
X151930882Y-68636054D01*
X151931077Y-68412024D01*
X152135252Y-68327661D01*
X152326987Y-68136259D01*
X152430882Y-67886054D01*
X152431077Y-67662024D01*
X152635252Y-67577661D01*
X152826987Y-67386259D01*
X152930882Y-67136054D01*
X152931077Y-66912024D01*
X153135252Y-66827661D01*
X153326987Y-66636259D01*
X153430882Y-66386054D01*
X153431077Y-66162024D01*
X153635252Y-66077661D01*
X153826987Y-65886259D01*
X153930882Y-65636054D01*
X153931077Y-65412024D01*
X154135252Y-65327661D01*
X154326987Y-65136259D01*
X154430882Y-64886054D01*
X154431077Y-64662024D01*
X154635252Y-64577661D01*
X154826987Y-64386259D01*
X154930882Y-64136054D01*
X154931077Y-63912024D01*
X155135252Y-63827661D01*
X155326987Y-63636259D01*
X155430882Y-63386054D01*
X155431077Y-63162024D01*
X155635252Y-63077661D01*
X155826987Y-62886259D01*
X155930882Y-62636054D01*
X155930883Y-62634865D01*
X160318882Y-62634865D01*
X160422339Y-62885252D01*
X160613741Y-63076987D01*
X160863946Y-63180882D01*
X161134865Y-63181118D01*
X161246806Y-63134865D01*
X167818882Y-63134865D01*
X167922339Y-63385252D01*
X168113741Y-63576987D01*
X168363946Y-63680882D01*
X168634865Y-63681118D01*
X168885252Y-63577661D01*
X169076987Y-63386259D01*
X169180882Y-63136054D01*
X169181118Y-62865135D01*
X169077661Y-62614748D01*
X168886259Y-62423013D01*
X168636054Y-62319118D01*
X168365135Y-62318882D01*
X168114748Y-62422339D01*
X167923013Y-62613741D01*
X167819118Y-62863946D01*
X167818882Y-63134865D01*
X161246806Y-63134865D01*
X161385252Y-63077661D01*
X161576987Y-62886259D01*
X161680882Y-62636054D01*
X161681118Y-62365135D01*
X161577661Y-62114748D01*
X161386259Y-61923013D01*
X161136054Y-61819118D01*
X160865135Y-61818882D01*
X160614748Y-61922339D01*
X160423013Y-62113741D01*
X160319118Y-62363946D01*
X160318882Y-62634865D01*
X155930883Y-62634865D01*
X155931077Y-62412024D01*
X156135252Y-62327661D01*
X156326987Y-62136259D01*
X156430882Y-61886054D01*
X156431070Y-61669572D01*
X175618414Y-61669572D01*
X176132056Y-62912681D01*
X177082317Y-63864601D01*
X178324527Y-64380412D01*
X179669572Y-64381586D01*
X180912681Y-63867944D01*
X181864601Y-62917683D01*
X182380412Y-61675473D01*
X182381586Y-60330428D01*
X181867944Y-59087319D01*
X180917683Y-58135399D01*
X179675473Y-57619588D01*
X178330428Y-57618414D01*
X177087319Y-58132056D01*
X176135399Y-59082317D01*
X175619588Y-60324527D01*
X175618414Y-61669572D01*
X156431070Y-61669572D01*
X156431077Y-61662024D01*
X156635252Y-61577661D01*
X156826987Y-61386259D01*
X156930882Y-61136054D01*
X156931077Y-60912024D01*
X157135252Y-60827661D01*
X157326987Y-60636259D01*
X157430882Y-60386054D01*
X157431118Y-60115135D01*
X157327661Y-59864748D01*
X157136259Y-59673013D01*
X156886054Y-59569118D01*
X156615135Y-59568882D01*
X156364748Y-59672339D01*
X156173013Y-59863741D01*
X156069118Y-60113946D01*
X156068923Y-60337976D01*
X155864748Y-60422339D01*
X155673013Y-60613741D01*
X155569118Y-60863946D01*
X155568923Y-61087976D01*
X155364748Y-61172339D01*
X155173013Y-61363741D01*
X155069118Y-61613946D01*
X155068923Y-61837976D01*
X154864748Y-61922339D01*
X154673013Y-62113741D01*
X154569118Y-62363946D01*
X154568923Y-62587976D01*
X154364748Y-62672339D01*
X154173013Y-62863741D01*
X154069118Y-63113946D01*
X154068923Y-63337976D01*
X153864748Y-63422339D01*
X153673013Y-63613741D01*
X153569118Y-63863946D01*
X153568923Y-64087976D01*
X153364748Y-64172339D01*
X153173013Y-64363741D01*
X153069118Y-64613946D01*
X153068923Y-64837976D01*
X152864748Y-64922339D01*
X152673013Y-65113741D01*
X152569118Y-65363946D01*
X152568923Y-65587976D01*
X152364748Y-65672339D01*
X152173013Y-65863741D01*
X152069118Y-66113946D01*
X152068923Y-66337976D01*
X151864748Y-66422339D01*
X151673013Y-66613741D01*
X151569118Y-66863946D01*
X151568923Y-67087976D01*
X151364748Y-67172339D01*
X151173013Y-67363741D01*
X151069118Y-67613946D01*
X151068923Y-67837976D01*
X150864748Y-67922339D01*
X150673013Y-68113741D01*
X150569118Y-68363946D01*
X150568923Y-68587976D01*
X150364748Y-68672339D01*
X150173013Y-68863741D01*
X150069118Y-69113946D01*
X150068923Y-69337976D01*
X149864748Y-69422339D01*
X149673013Y-69613741D01*
X149569118Y-69863946D01*
X149568923Y-70087976D01*
X149364748Y-70172339D01*
X149173013Y-70363741D01*
X149069118Y-70613946D01*
X149068923Y-70837976D01*
X148864748Y-70922339D01*
X148673013Y-71113741D01*
X148569118Y-71363946D01*
X148568923Y-71587976D01*
X148364748Y-71672339D01*
X148173013Y-71863741D01*
X148069118Y-72113946D01*
X148068923Y-72337976D01*
X147864748Y-72422339D01*
X147673013Y-72613741D01*
X147569118Y-72863946D01*
X147568923Y-73087976D01*
X147364748Y-73172339D01*
X147173013Y-73363741D01*
X147069118Y-73613946D01*
X147068923Y-73837976D01*
X146864748Y-73922339D01*
X146673013Y-74113741D01*
X146569118Y-74363946D01*
X146568923Y-74587976D01*
X146364748Y-74672339D01*
X146173013Y-74863741D01*
X146069118Y-75113946D01*
X146068923Y-75337976D01*
X145864748Y-75422339D01*
X145673013Y-75613741D01*
X145569118Y-75863946D01*
X145568923Y-76087976D01*
X145364748Y-76172339D01*
X145173013Y-76363741D01*
X145069118Y-76613946D01*
X145068882Y-76884865D01*
X142181100Y-76884865D01*
X142181118Y-76865135D01*
X142077661Y-76614748D01*
X141886259Y-76423013D01*
X141636054Y-76319118D01*
X141365135Y-76318882D01*
X141114748Y-76422339D01*
X140923013Y-76613741D01*
X140819118Y-76863946D01*
X140818882Y-77134865D01*
X133180883Y-77134865D01*
X133181118Y-76865135D01*
X133077661Y-76614748D01*
X132886259Y-76423013D01*
X132636054Y-76319118D01*
X132365135Y-76318882D01*
X132114748Y-76422339D01*
X131923013Y-76613741D01*
X131819118Y-76863946D01*
X131818882Y-77134865D01*
X123996806Y-77134865D01*
X124135252Y-77077661D01*
X124326987Y-76886259D01*
X124430882Y-76636054D01*
X124431118Y-76365135D01*
X124327661Y-76114748D01*
X124136259Y-75923013D01*
X123886054Y-75819118D01*
X123615135Y-75818882D01*
X123364748Y-75922339D01*
X123173013Y-76113741D01*
X123069118Y-76363946D01*
X123068882Y-76634865D01*
X120544390Y-76634865D01*
X120386054Y-76569118D01*
X120115135Y-76568882D01*
X119864748Y-76672339D01*
X119673013Y-76863741D01*
X119569118Y-77113946D01*
X119568882Y-77384865D01*
X68627000Y-77384865D01*
X68627000Y-75634865D01*
X103568882Y-75634865D01*
X103672339Y-75885252D01*
X103863741Y-76076987D01*
X104113946Y-76180882D01*
X104384865Y-76181118D01*
X104635252Y-76077661D01*
X104826987Y-75886259D01*
X104930882Y-75636054D01*
X104931118Y-75365135D01*
X104827661Y-75114748D01*
X104636259Y-74923013D01*
X104386054Y-74819118D01*
X104115135Y-74818882D01*
X103864748Y-74922339D01*
X103673013Y-75113741D01*
X103569118Y-75363946D01*
X103568882Y-75634865D01*
X68627000Y-75634865D01*
X68627000Y-72884865D01*
X106568882Y-72884865D01*
X106672339Y-73135252D01*
X106863741Y-73326987D01*
X107113946Y-73430882D01*
X107384865Y-73431118D01*
X107635252Y-73327661D01*
X107826987Y-73136259D01*
X107930882Y-72886054D01*
X107931118Y-72615135D01*
X107827661Y-72364748D01*
X107636259Y-72173013D01*
X107386054Y-72069118D01*
X107115135Y-72068882D01*
X106864748Y-72172339D01*
X106673013Y-72363741D01*
X106569118Y-72613946D01*
X106568882Y-72884865D01*
X68627000Y-72884865D01*
X68627000Y-72134865D01*
X99818882Y-72134865D01*
X99922339Y-72385252D01*
X100113741Y-72576987D01*
X100363946Y-72680882D01*
X100634865Y-72681118D01*
X100885252Y-72577661D01*
X101076987Y-72386259D01*
X101180882Y-72136054D01*
X101181118Y-71865135D01*
X101077661Y-71614748D01*
X100886259Y-71423013D01*
X100636054Y-71319118D01*
X100365135Y-71318882D01*
X100114748Y-71422339D01*
X99923013Y-71613741D01*
X99819118Y-71863946D01*
X99818882Y-72134865D01*
X68627000Y-72134865D01*
X68627000Y-69884865D01*
X99818882Y-69884865D01*
X99922339Y-70135252D01*
X100113741Y-70326987D01*
X100363946Y-70430882D01*
X100634865Y-70431118D01*
X100885252Y-70327661D01*
X101076987Y-70136259D01*
X101077565Y-70134865D01*
X111318882Y-70134865D01*
X111422339Y-70385252D01*
X111613741Y-70576987D01*
X111863946Y-70680882D01*
X112134865Y-70681118D01*
X112385252Y-70577661D01*
X112576987Y-70386259D01*
X112680882Y-70136054D01*
X112681118Y-69865135D01*
X112577661Y-69614748D01*
X112386259Y-69423013D01*
X112136054Y-69319118D01*
X111865135Y-69318882D01*
X111614748Y-69422339D01*
X111423013Y-69613741D01*
X111319118Y-69863946D01*
X111318882Y-70134865D01*
X101077565Y-70134865D01*
X101180882Y-69886054D01*
X101181118Y-69615135D01*
X101077661Y-69364748D01*
X100886259Y-69173013D01*
X100636054Y-69069118D01*
X100365135Y-69068882D01*
X100114748Y-69172339D01*
X99923013Y-69363741D01*
X99819118Y-69613946D01*
X99818882Y-69884865D01*
X68627000Y-69884865D01*
X68627000Y-68884865D01*
X106068882Y-68884865D01*
X106172339Y-69135252D01*
X106363741Y-69326987D01*
X106613946Y-69430882D01*
X106884865Y-69431118D01*
X107135252Y-69327661D01*
X107326987Y-69136259D01*
X107430882Y-68886054D01*
X107431118Y-68615135D01*
X107327661Y-68364748D01*
X107136259Y-68173013D01*
X106886054Y-68069118D01*
X106615135Y-68068882D01*
X106364748Y-68172339D01*
X106173013Y-68363741D01*
X106069118Y-68613946D01*
X106068882Y-68884865D01*
X68627000Y-68884865D01*
X68627000Y-67634865D01*
X101568882Y-67634865D01*
X101672339Y-67885252D01*
X101863741Y-68076987D01*
X102113946Y-68180882D01*
X102384865Y-68181118D01*
X102635252Y-68077661D01*
X102826987Y-67886259D01*
X102930882Y-67636054D01*
X102931118Y-67365135D01*
X102827661Y-67114748D01*
X102636259Y-66923013D01*
X102386054Y-66819118D01*
X102115135Y-66818882D01*
X101864748Y-66922339D01*
X101673013Y-67113741D01*
X101569118Y-67363946D01*
X101568882Y-67634865D01*
X68627000Y-67634865D01*
X68627000Y-65634865D01*
X111068882Y-65634865D01*
X111172339Y-65885252D01*
X111363741Y-66076987D01*
X111613946Y-66180882D01*
X111884865Y-66181118D01*
X112135252Y-66077661D01*
X112326987Y-65886259D01*
X112430882Y-65636054D01*
X112430883Y-65634865D01*
X114068882Y-65634865D01*
X114172339Y-65885252D01*
X114363741Y-66076987D01*
X114613946Y-66180882D01*
X114884865Y-66181118D01*
X115135252Y-66077661D01*
X115319092Y-65894141D01*
X115318882Y-66134865D01*
X115422339Y-66385252D01*
X115613741Y-66576987D01*
X115863946Y-66680882D01*
X116134865Y-66681118D01*
X116385252Y-66577661D01*
X116576987Y-66386259D01*
X116680882Y-66136054D01*
X116681093Y-65894021D01*
X116863741Y-66076987D01*
X117113946Y-66180882D01*
X117384865Y-66181118D01*
X117635252Y-66077661D01*
X117826987Y-65886259D01*
X117827565Y-65884865D01*
X126568882Y-65884865D01*
X126672339Y-66135252D01*
X126786920Y-66250032D01*
X126673013Y-66363741D01*
X126569118Y-66613946D01*
X126568882Y-66884865D01*
X126672339Y-67135252D01*
X126786920Y-67250032D01*
X126673013Y-67363741D01*
X126569118Y-67613946D01*
X126568882Y-67884865D01*
X126672339Y-68135252D01*
X126786920Y-68250032D01*
X126673013Y-68363741D01*
X126569118Y-68613946D01*
X126568882Y-68884865D01*
X126672339Y-69135252D01*
X126863741Y-69326987D01*
X127113946Y-69430882D01*
X127384865Y-69431118D01*
X127635252Y-69327661D01*
X127826987Y-69136259D01*
X127827565Y-69134865D01*
X131818882Y-69134865D01*
X131922339Y-69385252D01*
X132113741Y-69576987D01*
X132363946Y-69680882D01*
X132634865Y-69681118D01*
X132885252Y-69577661D01*
X133076987Y-69386259D01*
X133180882Y-69136054D01*
X133180883Y-69134865D01*
X140568882Y-69134865D01*
X140672339Y-69385252D01*
X140863741Y-69576987D01*
X141113946Y-69680882D01*
X141384865Y-69681118D01*
X141635252Y-69577661D01*
X141826987Y-69386259D01*
X141930882Y-69136054D01*
X141931118Y-68865135D01*
X141827661Y-68614748D01*
X141636259Y-68423013D01*
X141386054Y-68319118D01*
X141115135Y-68318882D01*
X140864748Y-68422339D01*
X140673013Y-68613741D01*
X140569118Y-68863946D01*
X140568882Y-69134865D01*
X133180883Y-69134865D01*
X133181118Y-68865135D01*
X133077661Y-68614748D01*
X132886259Y-68423013D01*
X132636054Y-68319118D01*
X132365135Y-68318882D01*
X132114748Y-68422339D01*
X131923013Y-68613741D01*
X131819118Y-68863946D01*
X131818882Y-69134865D01*
X127827565Y-69134865D01*
X127930882Y-68886054D01*
X127931118Y-68615135D01*
X127827661Y-68364748D01*
X127713080Y-68249968D01*
X127826987Y-68136259D01*
X127930882Y-67886054D01*
X127931100Y-67634865D01*
X140568882Y-67634865D01*
X140672339Y-67885252D01*
X140863741Y-68076987D01*
X141113946Y-68180882D01*
X141384865Y-68181118D01*
X141635252Y-68077661D01*
X141826987Y-67886259D01*
X141930882Y-67636054D01*
X141931118Y-67365135D01*
X141827661Y-67114748D01*
X141636259Y-66923013D01*
X141386054Y-66819118D01*
X141115135Y-66818882D01*
X140864748Y-66922339D01*
X140673013Y-67113741D01*
X140569118Y-67363946D01*
X140568882Y-67634865D01*
X127931100Y-67634865D01*
X127931118Y-67615135D01*
X127827661Y-67364748D01*
X127713080Y-67249968D01*
X127826987Y-67136259D01*
X127930882Y-66886054D01*
X127931118Y-66615135D01*
X127827661Y-66364748D01*
X127713080Y-66249968D01*
X127826987Y-66136259D01*
X127827565Y-66134865D01*
X140568882Y-66134865D01*
X140672339Y-66385252D01*
X140863741Y-66576987D01*
X141113946Y-66680882D01*
X141384865Y-66681118D01*
X141635252Y-66577661D01*
X141826987Y-66386259D01*
X141930882Y-66136054D01*
X141931118Y-65865135D01*
X141827661Y-65614748D01*
X141636259Y-65423013D01*
X141386054Y-65319118D01*
X141115135Y-65318882D01*
X140864748Y-65422339D01*
X140673013Y-65613741D01*
X140569118Y-65863946D01*
X140568882Y-66134865D01*
X127827565Y-66134865D01*
X127930882Y-65886054D01*
X127931118Y-65615135D01*
X127835974Y-65384865D01*
X135318882Y-65384865D01*
X135422339Y-65635252D01*
X135613741Y-65826987D01*
X135863946Y-65930882D01*
X136134865Y-65931118D01*
X136385252Y-65827661D01*
X136576987Y-65636259D01*
X136680882Y-65386054D01*
X136680883Y-65384865D01*
X136818882Y-65384865D01*
X136922339Y-65635252D01*
X137113741Y-65826987D01*
X137363946Y-65930882D01*
X137634865Y-65931118D01*
X137885252Y-65827661D01*
X138076987Y-65636259D01*
X138180882Y-65386054D01*
X138181118Y-65115135D01*
X138077661Y-64864748D01*
X137886259Y-64673013D01*
X137636054Y-64569118D01*
X137365135Y-64568882D01*
X137114748Y-64672339D01*
X136923013Y-64863741D01*
X136819118Y-65113946D01*
X136818882Y-65384865D01*
X136680883Y-65384865D01*
X136681118Y-65115135D01*
X136577661Y-64864748D01*
X136386259Y-64673013D01*
X136136054Y-64569118D01*
X135865135Y-64568882D01*
X135614748Y-64672339D01*
X135423013Y-64863741D01*
X135319118Y-65113946D01*
X135318882Y-65384865D01*
X127835974Y-65384865D01*
X127827661Y-65364748D01*
X127636259Y-65173013D01*
X127386054Y-65069118D01*
X127115135Y-65068882D01*
X126864748Y-65172339D01*
X126673013Y-65363741D01*
X126569118Y-65613946D01*
X126568882Y-65884865D01*
X117827565Y-65884865D01*
X117930882Y-65636054D01*
X117931118Y-65365135D01*
X117827661Y-65114748D01*
X117636259Y-64923013D01*
X117386054Y-64819118D01*
X117115135Y-64818882D01*
X116864748Y-64922339D01*
X116673013Y-65113741D01*
X116569118Y-65363946D01*
X116568907Y-65605979D01*
X116386259Y-65423013D01*
X116136054Y-65319118D01*
X115865135Y-65318882D01*
X115614748Y-65422339D01*
X115430908Y-65605859D01*
X115431118Y-65365135D01*
X115327661Y-65114748D01*
X115136259Y-64923013D01*
X114886054Y-64819118D01*
X114615135Y-64818882D01*
X114364748Y-64922339D01*
X114173013Y-65113741D01*
X114069118Y-65363946D01*
X114068882Y-65634865D01*
X112430883Y-65634865D01*
X112431118Y-65365135D01*
X112327661Y-65114748D01*
X112136259Y-64923013D01*
X111886054Y-64819118D01*
X111615135Y-64818882D01*
X111364748Y-64922339D01*
X111173013Y-65113741D01*
X111069118Y-65363946D01*
X111068882Y-65634865D01*
X68627000Y-65634865D01*
X68627000Y-61669572D01*
X74618414Y-61669572D01*
X75132056Y-62912681D01*
X76082317Y-63864601D01*
X77324527Y-64380412D01*
X78669572Y-64381586D01*
X79912681Y-63867944D01*
X80864601Y-62917683D01*
X81380412Y-61675473D01*
X81380883Y-61134865D01*
X107068882Y-61134865D01*
X107172339Y-61385252D01*
X107363741Y-61576987D01*
X107613946Y-61680882D01*
X107884865Y-61681118D01*
X108135252Y-61577661D01*
X108326987Y-61386259D01*
X108430882Y-61136054D01*
X108431118Y-60865135D01*
X108327661Y-60614748D01*
X108136259Y-60423013D01*
X107886054Y-60319118D01*
X107615135Y-60318882D01*
X107364748Y-60422339D01*
X107173013Y-60613741D01*
X107069118Y-60863946D01*
X107068882Y-61134865D01*
X81380883Y-61134865D01*
X81381586Y-60330428D01*
X80867944Y-59087319D01*
X80416279Y-58634865D01*
X103568882Y-58634865D01*
X103672339Y-58885252D01*
X103863741Y-59076987D01*
X104113946Y-59180882D01*
X104384865Y-59181118D01*
X104635252Y-59077661D01*
X104826987Y-58886259D01*
X104930882Y-58636054D01*
X104931118Y-58365135D01*
X104827661Y-58114748D01*
X104636259Y-57923013D01*
X104386054Y-57819118D01*
X104115135Y-57818882D01*
X103864748Y-57922339D01*
X103673013Y-58113741D01*
X103569118Y-58363946D01*
X103568882Y-58634865D01*
X80416279Y-58634865D01*
X79917683Y-58135399D01*
X78675473Y-57619588D01*
X77330428Y-57618414D01*
X76087319Y-58132056D01*
X75135399Y-59082317D01*
X74619588Y-60324527D01*
X74618414Y-61669572D01*
X68627000Y-61669572D01*
X68627000Y-57052606D01*
X69052606Y-56627000D01*
X110667507Y-56627000D01*
X110569118Y-56863946D01*
X110569118Y-56863946D01*
G37*
X110569118Y-56863946D02*
X110568882Y-57134865D01*
X110672339Y-57385252D01*
X110863741Y-57576987D01*
X111113946Y-57680882D01*
X111384865Y-57681118D01*
X111635252Y-57577661D01*
X111826987Y-57386259D01*
X111930882Y-57136054D01*
X111931118Y-56865135D01*
X111832723Y-56627000D01*
X112667507Y-56627000D01*
X112569118Y-56863946D01*
X112568882Y-57134865D01*
X112672339Y-57385252D01*
X112863741Y-57576987D01*
X113113946Y-57680882D01*
X113384865Y-57681118D01*
X113635252Y-57577661D01*
X113826987Y-57386259D01*
X113930882Y-57136054D01*
X113931118Y-56865135D01*
X113832723Y-56627000D01*
X114667507Y-56627000D01*
X114569118Y-56863946D01*
X114568882Y-57134865D01*
X114672339Y-57385252D01*
X114863741Y-57576987D01*
X115113946Y-57680882D01*
X115384865Y-57681118D01*
X115635252Y-57577661D01*
X115826987Y-57386259D01*
X115930882Y-57136054D01*
X115931118Y-56865135D01*
X115832723Y-56627000D01*
X118667507Y-56627000D01*
X118569118Y-56863946D01*
X118568882Y-57134865D01*
X118672339Y-57385252D01*
X118863741Y-57576987D01*
X119113946Y-57680882D01*
X119384865Y-57681118D01*
X119635252Y-57577661D01*
X119826987Y-57386259D01*
X119930882Y-57136054D01*
X119931118Y-56865135D01*
X119832723Y-56627000D01*
X121372052Y-56627000D01*
X120874526Y-57124526D01*
X120759420Y-57296795D01*
X120719000Y-57500000D01*
X120719000Y-59530052D01*
X120530052Y-59719000D01*
X110500000Y-59719000D01*
X110296795Y-59759420D01*
X110124526Y-59874526D01*
X110124524Y-59874529D01*
X107530052Y-62469000D01*
X101943689Y-62469000D01*
X101857818Y-62261177D01*
X101490755Y-61893473D01*
X101010919Y-61694227D01*
X100491360Y-61693774D01*
X100011177Y-61892182D01*
X99643473Y-62259245D01*
X99499893Y-62605023D01*
X99357818Y-62261177D01*
X98990755Y-61893473D01*
X98510919Y-61694227D01*
X97991360Y-61693774D01*
X97511177Y-61892182D01*
X97143473Y-62259245D01*
X96999893Y-62605023D01*
X96857818Y-62261177D01*
X96490755Y-61893473D01*
X96010919Y-61694227D01*
X95491360Y-61693774D01*
X95011177Y-61892182D01*
X94643473Y-62259245D01*
X94499893Y-62605023D01*
X94357818Y-62261177D01*
X93990755Y-61893473D01*
X93510919Y-61694227D01*
X92991360Y-61693774D01*
X92511177Y-61892182D01*
X92143473Y-62259245D01*
X91999893Y-62605023D01*
X91857818Y-62261177D01*
X91490755Y-61893473D01*
X91010919Y-61694227D01*
X90491360Y-61693774D01*
X90011177Y-61892182D01*
X89643473Y-62259245D01*
X89563464Y-62451927D01*
X89563464Y-62075000D01*
X89536897Y-61933810D01*
X89453454Y-61804135D01*
X89326134Y-61717141D01*
X89175000Y-61686536D01*
X87325000Y-61686536D01*
X87183810Y-61713103D01*
X87054135Y-61796546D01*
X86967141Y-61923866D01*
X86936536Y-62075000D01*
X86936536Y-63925000D01*
X86963103Y-64066190D01*
X87046546Y-64195865D01*
X87173866Y-64282859D01*
X87325000Y-64313464D01*
X89175000Y-64313464D01*
X89316190Y-64286897D01*
X89445865Y-64203454D01*
X89532859Y-64076134D01*
X89563464Y-63925000D01*
X89563464Y-63548311D01*
X89642182Y-63738823D01*
X90009245Y-64106527D01*
X90489081Y-64305773D01*
X91008640Y-64306226D01*
X91488823Y-64107818D01*
X91856527Y-63740755D01*
X92000107Y-63394977D01*
X92142182Y-63738823D01*
X92509245Y-64106527D01*
X92989081Y-64305773D01*
X93508640Y-64306226D01*
X93988823Y-64107818D01*
X94356527Y-63740755D01*
X94500107Y-63394977D01*
X94642182Y-63738823D01*
X95009245Y-64106527D01*
X95489081Y-64305773D01*
X96008640Y-64306226D01*
X96488823Y-64107818D01*
X96856527Y-63740755D01*
X97000107Y-63394977D01*
X97142182Y-63738823D01*
X97509245Y-64106527D01*
X97989081Y-64305773D01*
X98508640Y-64306226D01*
X98988823Y-64107818D01*
X99356527Y-63740755D01*
X99500107Y-63394977D01*
X99642182Y-63738823D01*
X100009245Y-64106527D01*
X100489081Y-64305773D01*
X101008640Y-64306226D01*
X101488823Y-64107818D01*
X101856527Y-63740755D01*
X101943625Y-63531000D01*
X104505898Y-63531000D01*
X104423013Y-63613741D01*
X104319118Y-63863946D01*
X104318882Y-64134865D01*
X104422339Y-64385252D01*
X104613741Y-64576987D01*
X104863946Y-64680882D01*
X105134865Y-64681118D01*
X105385252Y-64577661D01*
X105576987Y-64386259D01*
X105680882Y-64136054D01*
X105681118Y-63865135D01*
X105577661Y-63614748D01*
X105494058Y-63531000D01*
X107750000Y-63531000D01*
X107953205Y-63490580D01*
X108125474Y-63375474D01*
X108616082Y-62884865D01*
X110068882Y-62884865D01*
X110172339Y-63135252D01*
X110363741Y-63326987D01*
X110613946Y-63430882D01*
X110884865Y-63431118D01*
X111135252Y-63327661D01*
X111326987Y-63136259D01*
X111430882Y-62886054D01*
X111431118Y-62615135D01*
X111327661Y-62364748D01*
X111136259Y-62173013D01*
X111044390Y-62134865D01*
X114568882Y-62134865D01*
X114672339Y-62385252D01*
X114863741Y-62576987D01*
X115113946Y-62680882D01*
X115384865Y-62681118D01*
X115635252Y-62577661D01*
X115826987Y-62386259D01*
X115930882Y-62136054D01*
X115931118Y-61865135D01*
X115827661Y-61614748D01*
X115636259Y-61423013D01*
X115544390Y-61384865D01*
X126568882Y-61384865D01*
X126672339Y-61635252D01*
X126786920Y-61750032D01*
X126673013Y-61863741D01*
X126569118Y-62113946D01*
X126568882Y-62384865D01*
X126672339Y-62635252D01*
X126786920Y-62750032D01*
X126673013Y-62863741D01*
X126569118Y-63113946D01*
X126568882Y-63384865D01*
X126672339Y-63635252D01*
X126786920Y-63750032D01*
X126673013Y-63863741D01*
X126569118Y-64113946D01*
X126568882Y-64384865D01*
X126672339Y-64635252D01*
X126863741Y-64826987D01*
X127113946Y-64930882D01*
X127384865Y-64931118D01*
X127635252Y-64827661D01*
X127826987Y-64636259D01*
X127827565Y-64634865D01*
X131818882Y-64634865D01*
X131922339Y-64885252D01*
X132113741Y-65076987D01*
X132363946Y-65180882D01*
X132634865Y-65181118D01*
X132885252Y-65077661D01*
X133076987Y-64886259D01*
X133180882Y-64636054D01*
X133181118Y-64365135D01*
X133077661Y-64114748D01*
X132886259Y-63923013D01*
X132636054Y-63819118D01*
X132365135Y-63818882D01*
X132114748Y-63922339D01*
X131923013Y-64113741D01*
X131819118Y-64363946D01*
X131818882Y-64634865D01*
X127827565Y-64634865D01*
X127930882Y-64386054D01*
X127931118Y-64115135D01*
X127827661Y-63864748D01*
X127713080Y-63749968D01*
X127826987Y-63636259D01*
X127827565Y-63634865D01*
X132818882Y-63634865D01*
X132922339Y-63885252D01*
X133113741Y-64076987D01*
X133363946Y-64180882D01*
X133634865Y-64181118D01*
X133885252Y-64077661D01*
X134076987Y-63886259D01*
X134077565Y-63884865D01*
X137568882Y-63884865D01*
X137672339Y-64135252D01*
X137863741Y-64326987D01*
X138113946Y-64430882D01*
X138384865Y-64431118D01*
X138635252Y-64327661D01*
X138826987Y-64136259D01*
X138930882Y-63886054D01*
X138931118Y-63615135D01*
X138827661Y-63364748D01*
X138636259Y-63173013D01*
X138386054Y-63069118D01*
X138115135Y-63068882D01*
X137864748Y-63172339D01*
X137673013Y-63363741D01*
X137569118Y-63613946D01*
X137568882Y-63884865D01*
X134077565Y-63884865D01*
X134180882Y-63636054D01*
X134181118Y-63365135D01*
X134077661Y-63114748D01*
X133886259Y-62923013D01*
X133636054Y-62819118D01*
X133365135Y-62818882D01*
X133114748Y-62922339D01*
X132923013Y-63113741D01*
X132819118Y-63363946D01*
X132818882Y-63634865D01*
X127827565Y-63634865D01*
X127930882Y-63386054D01*
X127931118Y-63115135D01*
X127827661Y-62864748D01*
X127713080Y-62749968D01*
X127826987Y-62636259D01*
X127827565Y-62634865D01*
X131818882Y-62634865D01*
X131922339Y-62885252D01*
X132113741Y-63076987D01*
X132363946Y-63180882D01*
X132634865Y-63181118D01*
X132885252Y-63077661D01*
X133076987Y-62886259D01*
X133180882Y-62636054D01*
X133181118Y-62365135D01*
X133077661Y-62114748D01*
X132886259Y-61923013D01*
X132636054Y-61819118D01*
X132365135Y-61818882D01*
X132114748Y-61922339D01*
X131923013Y-62113741D01*
X131819118Y-62363946D01*
X131818882Y-62634865D01*
X127827565Y-62634865D01*
X127930882Y-62386054D01*
X127931118Y-62115135D01*
X127827661Y-61864748D01*
X127713080Y-61749968D01*
X127826987Y-61636259D01*
X127930882Y-61386054D01*
X127931100Y-61134865D01*
X131818882Y-61134865D01*
X131922339Y-61385252D01*
X132113741Y-61576987D01*
X132363946Y-61680882D01*
X132634865Y-61681118D01*
X132885252Y-61577661D01*
X133076987Y-61386259D01*
X133180882Y-61136054D01*
X133180883Y-61134865D01*
X140568882Y-61134865D01*
X140672339Y-61385252D01*
X140863741Y-61576987D01*
X141113946Y-61680882D01*
X141384865Y-61681118D01*
X141635252Y-61577661D01*
X141826987Y-61386259D01*
X141930882Y-61136054D01*
X141931118Y-60865135D01*
X141827661Y-60614748D01*
X141636259Y-60423013D01*
X141386054Y-60319118D01*
X141115135Y-60318882D01*
X140864748Y-60422339D01*
X140673013Y-60613741D01*
X140569118Y-60863946D01*
X140568882Y-61134865D01*
X133180883Y-61134865D01*
X133181118Y-60865135D01*
X133077661Y-60614748D01*
X132886259Y-60423013D01*
X132636054Y-60319118D01*
X132365135Y-60318882D01*
X132114748Y-60422339D01*
X131923013Y-60613741D01*
X131819118Y-60863946D01*
X131818882Y-61134865D01*
X127931100Y-61134865D01*
X127931118Y-61115135D01*
X127827661Y-60864748D01*
X127636259Y-60673013D01*
X127386054Y-60569118D01*
X127115135Y-60568882D01*
X126864748Y-60672339D01*
X126673013Y-60863741D01*
X126569118Y-61113946D01*
X126568882Y-61384865D01*
X115544390Y-61384865D01*
X115386054Y-61319118D01*
X115115135Y-61318882D01*
X114864748Y-61422339D01*
X114673013Y-61613741D01*
X114569118Y-61863946D01*
X114568882Y-62134865D01*
X111044390Y-62134865D01*
X110886054Y-62069118D01*
X110615135Y-62068882D01*
X110364748Y-62172339D01*
X110173013Y-62363741D01*
X110069118Y-62613946D01*
X110068882Y-62884865D01*
X108616082Y-62884865D01*
X110719947Y-60781000D01*
X120750000Y-60781000D01*
X120953205Y-60740580D01*
X121125474Y-60625474D01*
X121625474Y-60125474D01*
X121740580Y-59953205D01*
X121781001Y-59750000D01*
X121781000Y-59749995D01*
X121781000Y-59634865D01*
X140568882Y-59634865D01*
X140672339Y-59885252D01*
X140863741Y-60076987D01*
X141113946Y-60180882D01*
X141384865Y-60181118D01*
X141635252Y-60077661D01*
X141826987Y-59886259D01*
X141930882Y-59636054D01*
X141931118Y-59365135D01*
X141827661Y-59114748D01*
X141636259Y-58923013D01*
X141386054Y-58819118D01*
X141115135Y-58818882D01*
X140864748Y-58922339D01*
X140673013Y-59113741D01*
X140569118Y-59363946D01*
X140568882Y-59634865D01*
X121781000Y-59634865D01*
X121781000Y-58384865D01*
X134568882Y-58384865D01*
X134672339Y-58635252D01*
X134863741Y-58826987D01*
X135113946Y-58930882D01*
X135384865Y-58931118D01*
X135635252Y-58827661D01*
X135826987Y-58636259D01*
X135930882Y-58386054D01*
X135930883Y-58384865D01*
X137318882Y-58384865D01*
X137422339Y-58635252D01*
X137613741Y-58826987D01*
X137863946Y-58930882D01*
X138134865Y-58931118D01*
X138385252Y-58827661D01*
X138576987Y-58636259D01*
X138680882Y-58386054D01*
X138681118Y-58115135D01*
X138577661Y-57864748D01*
X138386259Y-57673013D01*
X138136054Y-57569118D01*
X137865135Y-57568882D01*
X137614748Y-57672339D01*
X137423013Y-57863741D01*
X137319118Y-58113946D01*
X137318882Y-58384865D01*
X135930883Y-58384865D01*
X135931118Y-58115135D01*
X135827661Y-57864748D01*
X135636259Y-57673013D01*
X135386054Y-57569118D01*
X135115135Y-57568882D01*
X134864748Y-57672339D01*
X134673013Y-57863741D01*
X134569118Y-58113946D01*
X134568882Y-58384865D01*
X121781000Y-58384865D01*
X121781000Y-57719948D01*
X122219948Y-57281000D01*
X131353560Y-57281000D01*
X131319118Y-57363946D01*
X131318882Y-57634865D01*
X131422339Y-57885252D01*
X131613741Y-58076987D01*
X131863946Y-58180882D01*
X132134865Y-58181118D01*
X132385252Y-58077661D01*
X132576987Y-57886259D01*
X132680882Y-57636054D01*
X132681118Y-57365135D01*
X132646354Y-57281000D01*
X139530052Y-57281000D01*
X140624526Y-58375474D01*
X140796795Y-58490580D01*
X141000000Y-58531000D01*
X153939672Y-58531000D01*
X153815929Y-58555614D01*
X153696743Y-58635252D01*
X153659882Y-58659882D01*
X139800764Y-72519000D01*
X138694015Y-72519000D01*
X138826987Y-72386259D01*
X138930882Y-72136054D01*
X138931118Y-71865135D01*
X138827661Y-71614748D01*
X138636259Y-71423013D01*
X138386054Y-71319118D01*
X138115135Y-71318882D01*
X137864748Y-71422339D01*
X137673013Y-71613741D01*
X137569118Y-71863946D01*
X137568882Y-72134865D01*
X137672339Y-72385252D01*
X137805855Y-72519000D01*
X126125678Y-72519000D01*
X126180882Y-72386054D01*
X126181118Y-72115135D01*
X126077661Y-71864748D01*
X125963080Y-71749968D01*
X126076987Y-71636259D01*
X126180882Y-71386054D01*
X126180883Y-71384865D01*
X133068882Y-71384865D01*
X133172339Y-71635252D01*
X133363741Y-71826987D01*
X133613946Y-71930882D01*
X133884865Y-71931118D01*
X134135252Y-71827661D01*
X134326987Y-71636259D01*
X134430882Y-71386054D01*
X134431118Y-71115135D01*
X134327661Y-70864748D01*
X134136259Y-70673013D01*
X133886054Y-70569118D01*
X133615135Y-70568882D01*
X133364748Y-70672339D01*
X133173013Y-70863741D01*
X133069118Y-71113946D01*
X133068882Y-71384865D01*
X126180883Y-71384865D01*
X126181118Y-71115135D01*
X126077661Y-70864748D01*
X125963080Y-70749968D01*
X126076987Y-70636259D01*
X126077565Y-70634865D01*
X130318882Y-70634865D01*
X130422339Y-70885252D01*
X130613741Y-71076987D01*
X130863946Y-71180882D01*
X131134865Y-71181118D01*
X131385252Y-71077661D01*
X131576987Y-70886259D01*
X131680882Y-70636054D01*
X131681118Y-70365135D01*
X131577661Y-70114748D01*
X131386259Y-69923013D01*
X131136054Y-69819118D01*
X130865135Y-69818882D01*
X130614748Y-69922339D01*
X130423013Y-70113741D01*
X130319118Y-70363946D01*
X130318882Y-70634865D01*
X126077565Y-70634865D01*
X126180882Y-70386054D01*
X126181118Y-70115135D01*
X126077661Y-69864748D01*
X125963080Y-69749968D01*
X126076987Y-69636259D01*
X126180882Y-69386054D01*
X126181118Y-69115135D01*
X126077661Y-68864748D01*
X125886259Y-68673013D01*
X125636054Y-68569118D01*
X125365135Y-68568882D01*
X125114748Y-68672339D01*
X124923013Y-68863741D01*
X124819118Y-69113946D01*
X124818882Y-69384865D01*
X124922339Y-69635252D01*
X125036920Y-69750032D01*
X124923013Y-69863741D01*
X124819118Y-70113946D01*
X124818882Y-70384865D01*
X124922339Y-70635252D01*
X125036920Y-70750032D01*
X124923013Y-70863741D01*
X124819118Y-71113946D01*
X124818882Y-71384865D01*
X124922339Y-71635252D01*
X125036920Y-71750032D01*
X124923013Y-71863741D01*
X124819118Y-72113946D01*
X124818882Y-72384865D01*
X124874305Y-72519000D01*
X118000000Y-72519000D01*
X117815930Y-72555613D01*
X117659882Y-72659881D01*
X116800764Y-73519000D01*
X108482079Y-73519000D01*
X108386259Y-73423013D01*
X108136054Y-73319118D01*
X107865135Y-73318882D01*
X107614748Y-73422339D01*
X107423013Y-73613741D01*
X107319118Y-73863946D01*
X107318882Y-74134865D01*
X107422339Y-74385252D01*
X107613741Y-74576987D01*
X107863946Y-74680882D01*
X108134865Y-74681118D01*
X108385252Y-74577661D01*
X108482081Y-74481000D01*
X117000000Y-74481000D01*
X117184071Y-74444386D01*
X117340118Y-74340118D01*
X118199237Y-73481000D01*
X124874322Y-73481000D01*
X124819118Y-73613946D01*
X124818882Y-73884865D01*
X124922339Y-74135252D01*
X125036920Y-74250032D01*
X124923013Y-74363741D01*
X124819118Y-74613946D01*
X124818882Y-74884865D01*
X124922339Y-75135252D01*
X124931732Y-75144662D01*
X124864748Y-75172339D01*
X124673013Y-75363741D01*
X124569118Y-75613946D01*
X124568882Y-75884865D01*
X124672339Y-76135252D01*
X124863741Y-76326987D01*
X125113946Y-76430882D01*
X125384865Y-76431118D01*
X125635252Y-76327661D01*
X125826987Y-76136259D01*
X125930882Y-75886054D01*
X125931118Y-75615135D01*
X125827661Y-75364748D01*
X125818268Y-75355338D01*
X125885252Y-75327661D01*
X126076987Y-75136259D01*
X126180882Y-74886054D01*
X126180883Y-74884865D01*
X139818882Y-74884865D01*
X139922339Y-75135252D01*
X140113741Y-75326987D01*
X140319076Y-75412250D01*
X140318882Y-75634865D01*
X140422339Y-75885252D01*
X140613741Y-76076987D01*
X140863946Y-76180882D01*
X141134865Y-76181118D01*
X141385252Y-76077661D01*
X141576987Y-75886259D01*
X141680882Y-75636054D01*
X141681118Y-75365135D01*
X141577661Y-75114748D01*
X141386259Y-74923013D01*
X141180924Y-74837750D01*
X141181118Y-74615135D01*
X141176045Y-74602858D01*
X141363946Y-74680882D01*
X141634865Y-74681118D01*
X141885252Y-74577661D01*
X142076987Y-74386259D01*
X142180882Y-74136054D01*
X142181118Y-73865135D01*
X142077661Y-73614748D01*
X141886259Y-73423013D01*
X141636054Y-73319118D01*
X141365135Y-73318882D01*
X141114748Y-73422339D01*
X140923013Y-73613741D01*
X140819118Y-73863946D01*
X140818882Y-74134865D01*
X140823955Y-74147142D01*
X140636054Y-74069118D01*
X140365135Y-74068882D01*
X140114748Y-74172339D01*
X139923013Y-74363741D01*
X139819118Y-74613946D01*
X139818882Y-74884865D01*
X126180883Y-74884865D01*
X126181118Y-74615135D01*
X126077661Y-74364748D01*
X125963080Y-74249968D01*
X126076987Y-74136259D01*
X126180882Y-73886054D01*
X126181118Y-73615135D01*
X126125695Y-73481000D01*
X140000000Y-73481000D01*
X140184071Y-73444386D01*
X140340118Y-73340118D01*
X142321126Y-71359110D01*
X142319118Y-71363946D01*
X142318882Y-71634865D01*
X142422339Y-71885252D01*
X142608420Y-72071657D01*
X142364748Y-72172339D01*
X142173013Y-72363741D01*
X142069118Y-72613946D01*
X142068882Y-72884865D01*
X142172339Y-73135252D01*
X142363741Y-73326987D01*
X142613946Y-73430882D01*
X142884865Y-73431118D01*
X143135252Y-73327661D01*
X143326987Y-73136259D01*
X143430882Y-72886054D01*
X143431118Y-72615135D01*
X143327661Y-72364748D01*
X143141580Y-72178343D01*
X143385252Y-72077661D01*
X143576987Y-71886259D01*
X143680882Y-71636054D01*
X143681118Y-71365135D01*
X143577661Y-71114748D01*
X143386259Y-70923013D01*
X143136054Y-70819118D01*
X142865135Y-70818882D01*
X142858692Y-70821544D01*
X154199236Y-59481000D01*
X170050764Y-59481000D01*
X170569000Y-59999237D01*
X170568882Y-60134865D01*
X170672339Y-60385252D01*
X170863741Y-60576987D01*
X171113946Y-60680882D01*
X171384865Y-60681118D01*
X171635252Y-60577661D01*
X171826987Y-60386259D01*
X171930882Y-60136054D01*
X171931118Y-59865135D01*
X171827661Y-59614748D01*
X171636259Y-59423013D01*
X171386054Y-59319118D01*
X171249235Y-59318999D01*
X170590118Y-58659882D01*
X170434071Y-58555614D01*
X170250000Y-58519000D01*
X167944015Y-58519000D01*
X168076987Y-58386259D01*
X168180882Y-58136054D01*
X168181118Y-57865135D01*
X168077661Y-57614748D01*
X167886259Y-57423013D01*
X167636054Y-57319118D01*
X167365135Y-57318882D01*
X167114748Y-57422339D01*
X167068006Y-57469000D01*
X164932166Y-57469000D01*
X164886259Y-57423013D01*
X164636054Y-57319118D01*
X164365135Y-57318882D01*
X164114748Y-57422339D01*
X164068006Y-57469000D01*
X161432166Y-57469000D01*
X161386259Y-57423013D01*
X161136054Y-57319118D01*
X160865135Y-57318882D01*
X160614748Y-57422339D01*
X160568006Y-57469000D01*
X141219948Y-57469000D01*
X140377948Y-56627000D01*
X182947394Y-56627000D01*
X183373000Y-57052606D01*
X183373000Y-100447394D01*
X182947394Y-100873000D01*
X114000000Y-100873000D01*
X113950590Y-100883006D01*
X113910197Y-100910197D01*
X112910197Y-101910197D01*
X112882334Y-101952211D01*
X112873000Y-102000000D01*
X112873000Y-122947394D01*
X112447394Y-123373000D01*
X53052606Y-123373000D01*
X52627000Y-122947394D01*
X52627000Y-118600000D01*
X58711536Y-118600000D01*
X58711536Y-120400000D01*
X58738103Y-120541190D01*
X58821546Y-120670865D01*
X58948866Y-120757859D01*
X59100000Y-120788464D01*
X60900000Y-120788464D01*
X61041190Y-120761897D01*
X61170865Y-120678454D01*
X61257859Y-120551134D01*
X61288464Y-120400000D01*
X61288464Y-119669572D01*
X74618414Y-119669572D01*
X75132056Y-120912681D01*
X76082317Y-121864601D01*
X77324527Y-122380412D01*
X78669572Y-122381586D01*
X79912681Y-121867944D01*
X80864601Y-120917683D01*
X81380412Y-119675473D01*
X81381586Y-118330428D01*
X80867944Y-117087319D01*
X79917683Y-116135399D01*
X78675473Y-115619588D01*
X77330428Y-115618414D01*
X76087319Y-116132056D01*
X75135399Y-117082317D01*
X74619588Y-118324527D01*
X74618414Y-119669572D01*
X61288464Y-119669572D01*
X61288464Y-118600000D01*
X61261897Y-118458810D01*
X61178454Y-118329135D01*
X61051134Y-118242141D01*
X60900000Y-118211536D01*
X60325534Y-118211536D01*
X60724680Y-118046612D01*
X61085345Y-117686575D01*
X61280777Y-117215924D01*
X61281222Y-116706311D01*
X61086612Y-116235320D01*
X60726575Y-115874655D01*
X60255924Y-115679223D01*
X59746311Y-115678778D01*
X59275320Y-115873388D01*
X58914655Y-116233425D01*
X58719223Y-116704076D01*
X58718778Y-117213689D01*
X58913388Y-117684680D01*
X59273425Y-118045345D01*
X59673656Y-118211536D01*
X59100000Y-118211536D01*
X58958810Y-118238103D01*
X58829135Y-118321546D01*
X58742141Y-118448866D01*
X58711536Y-118600000D01*
X52627000Y-118600000D01*
X52627000Y-109884865D01*
X69568882Y-109884865D01*
X69672339Y-110135252D01*
X69863741Y-110326987D01*
X70113946Y-110430882D01*
X70384865Y-110431118D01*
X70635252Y-110327661D01*
X70826987Y-110136259D01*
X70930882Y-109886054D01*
X70931118Y-109615135D01*
X70827661Y-109364748D01*
X70781000Y-109318006D01*
X70781000Y-107884865D01*
X81818882Y-107884865D01*
X81922339Y-108135252D01*
X82113741Y-108326987D01*
X82363946Y-108430882D01*
X82634865Y-108431118D01*
X82885252Y-108327661D01*
X83076987Y-108136259D01*
X83180882Y-107886054D01*
X83181118Y-107615135D01*
X83077661Y-107364748D01*
X82886259Y-107173013D01*
X82794390Y-107134865D01*
X87068882Y-107134865D01*
X87172339Y-107385252D01*
X87363741Y-107576987D01*
X87613946Y-107680882D01*
X87884865Y-107681118D01*
X88135252Y-107577661D01*
X88326987Y-107386259D01*
X88430882Y-107136054D01*
X88430883Y-107134865D01*
X90568882Y-107134865D01*
X90672339Y-107385252D01*
X90863741Y-107576987D01*
X91113946Y-107680882D01*
X91384865Y-107681118D01*
X91635252Y-107577661D01*
X91826987Y-107386259D01*
X91930882Y-107136054D01*
X91930883Y-107134865D01*
X94068882Y-107134865D01*
X94172339Y-107385252D01*
X94363741Y-107576987D01*
X94613946Y-107680882D01*
X94884865Y-107681118D01*
X95135252Y-107577661D01*
X95326987Y-107386259D01*
X95430882Y-107136054D01*
X95431118Y-106865135D01*
X95327661Y-106614748D01*
X95136259Y-106423013D01*
X94886054Y-106319118D01*
X94615135Y-106318882D01*
X94364748Y-106422339D01*
X94173013Y-106613741D01*
X94069118Y-106863946D01*
X94068882Y-107134865D01*
X91930883Y-107134865D01*
X91931118Y-106865135D01*
X91827661Y-106614748D01*
X91636259Y-106423013D01*
X91386054Y-106319118D01*
X91115135Y-106318882D01*
X90864748Y-106422339D01*
X90673013Y-106613741D01*
X90569118Y-106863946D01*
X90568882Y-107134865D01*
X88430883Y-107134865D01*
X88431118Y-106865135D01*
X88327661Y-106614748D01*
X88136259Y-106423013D01*
X87886054Y-106319118D01*
X87615135Y-106318882D01*
X87364748Y-106422339D01*
X87173013Y-106613741D01*
X87069118Y-106863946D01*
X87068882Y-107134865D01*
X82794390Y-107134865D01*
X82636054Y-107069118D01*
X82365135Y-107068882D01*
X82114748Y-107172339D01*
X81923013Y-107363741D01*
X81819118Y-107613946D01*
X81818882Y-107884865D01*
X70781000Y-107884865D01*
X70781000Y-105884865D01*
X71318882Y-105884865D01*
X71422339Y-106135252D01*
X71613741Y-106326987D01*
X71863946Y-106430882D01*
X72134865Y-106431118D01*
X72385252Y-106327661D01*
X72576987Y-106136259D01*
X72577565Y-106134865D01*
X80068882Y-106134865D01*
X80172339Y-106385252D01*
X80363741Y-106576987D01*
X80613946Y-106680882D01*
X80884865Y-106681118D01*
X81135252Y-106577661D01*
X81326987Y-106386259D01*
X81430882Y-106136054D01*
X81431118Y-105865135D01*
X81327661Y-105614748D01*
X81136259Y-105423013D01*
X80886054Y-105319118D01*
X80615135Y-105318882D01*
X80364748Y-105422339D01*
X80173013Y-105613741D01*
X80069118Y-105863946D01*
X80068882Y-106134865D01*
X72577565Y-106134865D01*
X72680882Y-105886054D01*
X72681118Y-105615135D01*
X72577661Y-105364748D01*
X72386259Y-105173013D01*
X72136054Y-105069118D01*
X71865135Y-105068882D01*
X71614748Y-105172339D01*
X71423013Y-105363741D01*
X71319118Y-105613946D01*
X71318882Y-105884865D01*
X70781000Y-105884865D01*
X70781000Y-105219948D01*
X71219948Y-104781000D01*
X71567834Y-104781000D01*
X71613741Y-104826987D01*
X71863946Y-104930882D01*
X72134865Y-104931118D01*
X72385252Y-104827661D01*
X72576987Y-104636259D01*
X72680882Y-104386054D01*
X72681118Y-104115135D01*
X72577661Y-103864748D01*
X72531000Y-103818006D01*
X72531000Y-102384865D01*
X97818882Y-102384865D01*
X97922339Y-102635252D01*
X98113741Y-102826987D01*
X98363946Y-102930882D01*
X98634865Y-102931118D01*
X98885252Y-102827661D01*
X99076987Y-102636259D01*
X99180882Y-102386054D01*
X99181118Y-102115135D01*
X99077661Y-101864748D01*
X98886259Y-101673013D01*
X98636054Y-101569118D01*
X98365135Y-101568882D01*
X98114748Y-101672339D01*
X97923013Y-101863741D01*
X97819118Y-102113946D01*
X97818882Y-102384865D01*
X72531000Y-102384865D01*
X72531000Y-98682166D01*
X72576987Y-98636259D01*
X72680882Y-98386054D01*
X72681118Y-98115135D01*
X72577661Y-97864748D01*
X72386259Y-97673013D01*
X72136054Y-97569118D01*
X71865135Y-97568882D01*
X71614748Y-97672339D01*
X71423013Y-97863741D01*
X71319118Y-98113946D01*
X71318882Y-98384865D01*
X71422339Y-98635252D01*
X71469000Y-98681994D01*
X71469000Y-103719000D01*
X71000000Y-103719000D01*
X70796795Y-103759420D01*
X70624526Y-103874526D01*
X69874526Y-104624526D01*
X69759420Y-104796795D01*
X69719000Y-105000000D01*
X69719000Y-109317834D01*
X69673013Y-109363741D01*
X69569118Y-109613946D01*
X69568882Y-109884865D01*
X52627000Y-109884865D01*
X52627000Y-105317493D01*
X58618761Y-105317493D01*
X58828563Y-105825251D01*
X59216705Y-106214072D01*
X59724097Y-106424759D01*
X60273493Y-106425239D01*
X60781251Y-106215437D01*
X61170072Y-105827295D01*
X61380759Y-105319903D01*
X61381239Y-104770507D01*
X61171437Y-104262749D01*
X60783295Y-103873928D01*
X60275903Y-103663241D01*
X59726507Y-103662761D01*
X59218749Y-103872563D01*
X58829928Y-104260705D01*
X58619241Y-104768097D01*
X58618761Y-105317493D01*
X52627000Y-105317493D01*
X52627000Y-99729493D01*
X58618761Y-99729493D01*
X58828563Y-100237251D01*
X59216705Y-100626072D01*
X59724097Y-100836759D01*
X60273493Y-100837239D01*
X60781251Y-100627437D01*
X61170072Y-100239295D01*
X61380759Y-99731903D01*
X61381239Y-99182507D01*
X61171437Y-98674749D01*
X60783295Y-98285928D01*
X60275903Y-98075241D01*
X59726507Y-98074761D01*
X59218749Y-98284563D01*
X58829928Y-98672705D01*
X58619241Y-99180097D01*
X58618761Y-99729493D01*
X52627000Y-99729493D01*
X52627000Y-93552606D01*
X53052606Y-93127000D01*
X68000000Y-93127000D01*
X68049410Y-93116994D01*
X68089803Y-93089803D01*
X68589803Y-92589803D01*
X68617666Y-92547789D01*
X68627000Y-92500000D01*
X68627000Y-89669572D01*
X175618414Y-89669572D01*
X176132056Y-90912681D01*
X177082317Y-91864601D01*
X178324527Y-92380412D01*
X179669572Y-92381586D01*
X180912681Y-91867944D01*
X181864601Y-90917683D01*
X182380412Y-89675473D01*
X182381586Y-88330428D01*
X181867944Y-87087319D01*
X180917683Y-86135399D01*
X179675473Y-85619588D01*
X178330428Y-85618414D01*
X177087319Y-86132056D01*
X176135399Y-87082317D01*
X175619588Y-88324527D01*
X175618414Y-89669572D01*
X68627000Y-89669572D01*
X68627000Y-86384865D01*
X81818882Y-86384865D01*
X81922339Y-86635252D01*
X82113741Y-86826987D01*
X82363946Y-86930882D01*
X82634865Y-86931118D01*
X82885252Y-86827661D01*
X83076987Y-86636259D01*
X83180882Y-86386054D01*
X83181118Y-86115135D01*
X83077661Y-85864748D01*
X82886259Y-85673013D01*
X82636054Y-85569118D01*
X82365135Y-85568882D01*
X82114748Y-85672339D01*
X81923013Y-85863741D01*
X81819118Y-86113946D01*
X81818882Y-86384865D01*
X68627000Y-86384865D01*
X68627000Y-84634865D01*
X98318882Y-84634865D01*
X98422339Y-84885252D01*
X98613741Y-85076987D01*
X98863946Y-85180882D01*
X99134865Y-85181118D01*
X99385252Y-85077661D01*
X99576987Y-84886259D01*
X99680882Y-84636054D01*
X99680883Y-84634865D01*
X139318882Y-84634865D01*
X139422339Y-84885252D01*
X139613741Y-85076987D01*
X139863946Y-85180882D01*
X140134865Y-85181118D01*
X140385252Y-85077661D01*
X140576987Y-84886259D01*
X140680882Y-84636054D01*
X140681118Y-84365135D01*
X140585974Y-84134865D01*
X163568882Y-84134865D01*
X163672339Y-84385252D01*
X163863741Y-84576987D01*
X164113946Y-84680882D01*
X164384865Y-84681118D01*
X164635252Y-84577661D01*
X164826987Y-84386259D01*
X164930882Y-84136054D01*
X164931118Y-83865135D01*
X164827661Y-83614748D01*
X164636259Y-83423013D01*
X164386054Y-83319118D01*
X164115135Y-83318882D01*
X163864748Y-83422339D01*
X163673013Y-83613741D01*
X163569118Y-83863946D01*
X163568882Y-84134865D01*
X140585974Y-84134865D01*
X140577661Y-84114748D01*
X140386259Y-83923013D01*
X140136054Y-83819118D01*
X139865135Y-83818882D01*
X139614748Y-83922339D01*
X139423013Y-84113741D01*
X139319118Y-84363946D01*
X139318882Y-84634865D01*
X99680883Y-84634865D01*
X99681118Y-84365135D01*
X99577661Y-84114748D01*
X99386259Y-83923013D01*
X99136054Y-83819118D01*
X98865135Y-83818882D01*
X98614748Y-83922339D01*
X98423013Y-84113741D01*
X98319118Y-84363946D01*
X98318882Y-84634865D01*
X68627000Y-84634865D01*
X68627000Y-81884865D01*
X119568882Y-81884865D01*
X119672339Y-82135252D01*
X119786920Y-82250032D01*
X119673013Y-82363741D01*
X119569118Y-82613946D01*
X119568882Y-82884865D01*
X119672339Y-83135252D01*
X119786920Y-83250032D01*
X119673013Y-83363741D01*
X119569118Y-83613946D01*
X119568882Y-83884865D01*
X119672339Y-84135252D01*
X119863741Y-84326987D01*
X120113946Y-84430882D01*
X120384865Y-84431118D01*
X120635252Y-84327661D01*
X120826987Y-84136259D01*
X120930882Y-83886054D01*
X120931118Y-83615135D01*
X120827661Y-83364748D01*
X120713080Y-83249968D01*
X120826987Y-83136259D01*
X120930882Y-82886054D01*
X120930883Y-82884865D01*
X149318882Y-82884865D01*
X149422339Y-83135252D01*
X149613741Y-83326987D01*
X149863946Y-83430882D01*
X150134865Y-83431118D01*
X150385252Y-83327661D01*
X150576987Y-83136259D01*
X150577565Y-83134865D01*
X154568882Y-83134865D01*
X154672339Y-83385252D01*
X154863741Y-83576987D01*
X155113946Y-83680882D01*
X155384865Y-83681118D01*
X155635252Y-83577661D01*
X155826987Y-83386259D01*
X155930882Y-83136054D01*
X155930883Y-83134865D01*
X158568882Y-83134865D01*
X158672339Y-83385252D01*
X158863741Y-83576987D01*
X159113946Y-83680882D01*
X159384865Y-83681118D01*
X159635252Y-83577661D01*
X159826987Y-83386259D01*
X159930882Y-83136054D01*
X159930883Y-83134865D01*
X168568882Y-83134865D01*
X168672339Y-83385252D01*
X168863741Y-83576987D01*
X169113946Y-83680882D01*
X169384865Y-83681118D01*
X169635252Y-83577661D01*
X169826987Y-83386259D01*
X169930882Y-83136054D01*
X169931118Y-82865135D01*
X169827661Y-82614748D01*
X169636259Y-82423013D01*
X169386054Y-82319118D01*
X169115135Y-82318882D01*
X168864748Y-82422339D01*
X168673013Y-82613741D01*
X168569118Y-82863946D01*
X168568882Y-83134865D01*
X159930883Y-83134865D01*
X159931118Y-82865135D01*
X159827661Y-82614748D01*
X159636259Y-82423013D01*
X159386054Y-82319118D01*
X159115135Y-82318882D01*
X158864748Y-82422339D01*
X158673013Y-82613741D01*
X158569118Y-82863946D01*
X158568882Y-83134865D01*
X155930883Y-83134865D01*
X155931118Y-82865135D01*
X155827661Y-82614748D01*
X155636259Y-82423013D01*
X155386054Y-82319118D01*
X155115135Y-82318882D01*
X154864748Y-82422339D01*
X154673013Y-82613741D01*
X154569118Y-82863946D01*
X154568882Y-83134865D01*
X150577565Y-83134865D01*
X150680882Y-82886054D01*
X150681118Y-82615135D01*
X150577661Y-82364748D01*
X150386259Y-82173013D01*
X150136054Y-82069118D01*
X149865135Y-82068882D01*
X149614748Y-82172339D01*
X149423013Y-82363741D01*
X149319118Y-82613946D01*
X149318882Y-82884865D01*
X120930883Y-82884865D01*
X120931118Y-82615135D01*
X120827661Y-82364748D01*
X120713080Y-82249968D01*
X120826987Y-82136259D01*
X120930882Y-81886054D01*
X120931118Y-81615135D01*
X120827661Y-81364748D01*
X120636259Y-81173013D01*
X120386054Y-81069118D01*
X120115135Y-81068882D01*
X119864748Y-81172339D01*
X119673013Y-81363741D01*
X119569118Y-81613946D01*
X119568882Y-81884865D01*
X68627000Y-81884865D01*
X68627000Y-78634865D01*
X102318882Y-78634865D01*
X102422339Y-78885252D01*
X102613741Y-79076987D01*
X102863946Y-79180882D01*
X103134865Y-79181118D01*
X103385252Y-79077661D01*
X103576987Y-78886259D01*
X103680882Y-78636054D01*
X103681118Y-78365135D01*
X103577661Y-78114748D01*
X103386259Y-77923013D01*
X103136054Y-77819118D01*
X102865135Y-77818882D01*
X102614748Y-77922339D01*
X102423013Y-78113741D01*
X102319118Y-78363946D01*
X102318882Y-78634865D01*
X68627000Y-78634865D01*
X68627000Y-77384865D01*
X119568882Y-77384865D01*
X119672339Y-77635252D01*
X119786920Y-77750032D01*
X119673013Y-77863741D01*
X119569118Y-78113946D01*
X119568882Y-78384865D01*
X119672339Y-78635252D01*
X119786920Y-78750032D01*
X119673013Y-78863741D01*
X119569118Y-79113946D01*
X119568882Y-79384865D01*
X119672339Y-79635252D01*
X119786920Y-79750032D01*
X119673013Y-79863741D01*
X119569118Y-80113946D01*
X119568882Y-80384865D01*
X119672339Y-80635252D01*
X119863741Y-80826987D01*
X120113946Y-80930882D01*
X120384865Y-80931118D01*
X120496806Y-80884865D01*
X136068882Y-80884865D01*
X136172339Y-81135252D01*
X136363741Y-81326987D01*
X136613946Y-81430882D01*
X136884865Y-81431118D01*
X137135252Y-81327661D01*
X137326987Y-81136259D01*
X137430882Y-80886054D01*
X137431118Y-80615135D01*
X137327661Y-80364748D01*
X137136259Y-80173013D01*
X136886054Y-80069118D01*
X136615135Y-80068882D01*
X136364748Y-80172339D01*
X136173013Y-80363741D01*
X136069118Y-80613946D01*
X136068882Y-80884865D01*
X120496806Y-80884865D01*
X120635252Y-80827661D01*
X120826987Y-80636259D01*
X120930882Y-80386054D01*
X120931100Y-80134865D01*
X133318882Y-80134865D01*
X133422339Y-80385252D01*
X133613741Y-80576987D01*
X133863946Y-80680882D01*
X134134865Y-80681118D01*
X134385252Y-80577661D01*
X134576987Y-80386259D01*
X134680882Y-80136054D01*
X134681118Y-79865135D01*
X134577661Y-79614748D01*
X134386259Y-79423013D01*
X134136054Y-79319118D01*
X133865135Y-79318882D01*
X133614748Y-79422339D01*
X133423013Y-79613741D01*
X133319118Y-79863946D01*
X133318882Y-80134865D01*
X120931100Y-80134865D01*
X120931118Y-80115135D01*
X120827661Y-79864748D01*
X120713080Y-79749968D01*
X120826987Y-79636259D01*
X120930882Y-79386054D01*
X120931118Y-79115135D01*
X120827661Y-78864748D01*
X120713080Y-78749968D01*
X120826987Y-78636259D01*
X120827565Y-78634865D01*
X131818882Y-78634865D01*
X131922339Y-78885252D01*
X132113741Y-79076987D01*
X132363946Y-79180882D01*
X132634865Y-79181118D01*
X132885252Y-79077661D01*
X133076987Y-78886259D01*
X133180882Y-78636054D01*
X133180883Y-78634865D01*
X145568882Y-78634865D01*
X145672339Y-78885252D01*
X145863741Y-79076987D01*
X146113946Y-79180882D01*
X146384865Y-79181118D01*
X146635252Y-79077661D01*
X146826987Y-78886259D01*
X146930882Y-78636054D01*
X146931118Y-78365135D01*
X146835974Y-78134865D01*
X153568882Y-78134865D01*
X153672339Y-78385252D01*
X153863741Y-78576987D01*
X154113946Y-78680882D01*
X154384865Y-78681118D01*
X154635252Y-78577661D01*
X154826987Y-78386259D01*
X154930882Y-78136054D01*
X154930883Y-78134865D01*
X157568882Y-78134865D01*
X157672339Y-78385252D01*
X157863741Y-78576987D01*
X158113946Y-78680882D01*
X158384865Y-78681118D01*
X158635252Y-78577661D01*
X158826987Y-78386259D01*
X158930882Y-78136054D01*
X158930883Y-78134865D01*
X161568882Y-78134865D01*
X161672339Y-78385252D01*
X161863741Y-78576987D01*
X162113946Y-78680882D01*
X162355979Y-78681093D01*
X162173013Y-78863741D01*
X162069118Y-79113946D01*
X162068882Y-79384865D01*
X162172339Y-79635252D01*
X162363741Y-79826987D01*
X162613946Y-79930882D01*
X162884865Y-79931118D01*
X163135252Y-79827661D01*
X163326987Y-79636259D01*
X163430882Y-79386054D01*
X163431118Y-79115135D01*
X163327661Y-78864748D01*
X163136259Y-78673013D01*
X162886054Y-78569118D01*
X162644021Y-78568907D01*
X162826987Y-78386259D01*
X162930882Y-78136054D01*
X162931118Y-77865135D01*
X162827661Y-77614748D01*
X162636259Y-77423013D01*
X162386054Y-77319118D01*
X162115135Y-77318882D01*
X161864748Y-77422339D01*
X161673013Y-77613741D01*
X161569118Y-77863946D01*
X161568882Y-78134865D01*
X158930883Y-78134865D01*
X158931118Y-77865135D01*
X158827661Y-77614748D01*
X158636259Y-77423013D01*
X158386054Y-77319118D01*
X158115135Y-77318882D01*
X157864748Y-77422339D01*
X157673013Y-77613741D01*
X157569118Y-77863946D01*
X157568882Y-78134865D01*
X154930883Y-78134865D01*
X154931118Y-77865135D01*
X154827661Y-77614748D01*
X154636259Y-77423013D01*
X154386054Y-77319118D01*
X154115135Y-77318882D01*
X153864748Y-77422339D01*
X153673013Y-77613741D01*
X153569118Y-77863946D01*
X153568882Y-78134865D01*
X146835974Y-78134865D01*
X146827661Y-78114748D01*
X146636259Y-77923013D01*
X146386054Y-77819118D01*
X146115135Y-77818882D01*
X145864748Y-77922339D01*
X145673013Y-78113741D01*
X145569118Y-78363946D01*
X145568882Y-78634865D01*
X133180883Y-78634865D01*
X133181118Y-78365135D01*
X133077661Y-78114748D01*
X132886259Y-77923013D01*
X132636054Y-77819118D01*
X132365135Y-77818882D01*
X132114748Y-77922339D01*
X131923013Y-78113741D01*
X131819118Y-78363946D01*
X131818882Y-78634865D01*
X120827565Y-78634865D01*
X120930882Y-78386054D01*
X120931118Y-78115135D01*
X120827661Y-77864748D01*
X120713080Y-77749968D01*
X120826987Y-77636259D01*
X120930882Y-77386054D01*
X120931118Y-77115135D01*
X120827661Y-76864748D01*
X120636259Y-76673013D01*
X120544390Y-76634865D01*
X123068882Y-76634865D01*
X123172339Y-76885252D01*
X123363741Y-77076987D01*
X123613946Y-77180882D01*
X123884865Y-77181118D01*
X123996806Y-77134865D01*
X131818882Y-77134865D01*
X131922339Y-77385252D01*
X132113741Y-77576987D01*
X132363946Y-77680882D01*
X132634865Y-77681118D01*
X132885252Y-77577661D01*
X133076987Y-77386259D01*
X133180882Y-77136054D01*
X133180883Y-77134865D01*
X140818882Y-77134865D01*
X140922339Y-77385252D01*
X141113741Y-77576987D01*
X141363946Y-77680882D01*
X141634865Y-77681118D01*
X141885252Y-77577661D01*
X142076987Y-77386259D01*
X142180882Y-77136054D01*
X142181100Y-76884865D01*
X145068882Y-76884865D01*
X145172339Y-77135252D01*
X145363741Y-77326987D01*
X145613946Y-77430882D01*
X145884865Y-77431118D01*
X146135252Y-77327661D01*
X146326987Y-77136259D01*
X146430882Y-76886054D01*
X146431077Y-76662024D01*
X146635252Y-76577661D01*
X146826987Y-76386259D01*
X146930882Y-76136054D01*
X146931077Y-75912024D01*
X147135252Y-75827661D01*
X147326987Y-75636259D01*
X147430882Y-75386054D01*
X147431077Y-75162024D01*
X147635252Y-75077661D01*
X147826987Y-74886259D01*
X147930882Y-74636054D01*
X147931077Y-74412024D01*
X147996807Y-74384865D01*
X165318882Y-74384865D01*
X165422339Y-74635252D01*
X165613741Y-74826987D01*
X165863946Y-74930882D01*
X166134865Y-74931118D01*
X166385252Y-74827661D01*
X166576987Y-74636259D01*
X166680882Y-74386054D01*
X166681118Y-74115135D01*
X166577661Y-73864748D01*
X166386259Y-73673013D01*
X166136054Y-73569118D01*
X165865135Y-73568882D01*
X165614748Y-73672339D01*
X165423013Y-73863741D01*
X165319118Y-74113946D01*
X165318882Y-74384865D01*
X147996807Y-74384865D01*
X148135252Y-74327661D01*
X148326987Y-74136259D01*
X148430882Y-73886054D01*
X148431077Y-73662024D01*
X148635252Y-73577661D01*
X148826987Y-73386259D01*
X148930882Y-73136054D01*
X148931077Y-72912024D01*
X149135252Y-72827661D01*
X149326987Y-72636259D01*
X149430882Y-72386054D01*
X149431077Y-72162024D01*
X149496807Y-72134865D01*
X171068882Y-72134865D01*
X171172339Y-72385252D01*
X171363741Y-72576987D01*
X171613946Y-72680882D01*
X171884865Y-72681118D01*
X172135252Y-72577661D01*
X172326987Y-72386259D01*
X172430882Y-72136054D01*
X172431118Y-71865135D01*
X172327661Y-71614748D01*
X172136259Y-71423013D01*
X171886054Y-71319118D01*
X171615135Y-71318882D01*
X171364748Y-71422339D01*
X171173013Y-71613741D01*
X171069118Y-71863946D01*
X171068882Y-72134865D01*
X149496807Y-72134865D01*
X149635252Y-72077661D01*
X149826987Y-71886259D01*
X149930882Y-71636054D01*
X149931077Y-71412024D01*
X150135252Y-71327661D01*
X150326987Y-71136259D01*
X150430882Y-70886054D01*
X150431077Y-70662024D01*
X150635252Y-70577661D01*
X150826987Y-70386259D01*
X150827565Y-70384865D01*
X165068882Y-70384865D01*
X165172339Y-70635252D01*
X165363741Y-70826987D01*
X165613946Y-70930882D01*
X165884865Y-70931118D01*
X166135252Y-70827661D01*
X166326987Y-70636259D01*
X166430882Y-70386054D01*
X166431118Y-70115135D01*
X166327661Y-69864748D01*
X166136259Y-69673013D01*
X165886054Y-69569118D01*
X165615135Y-69568882D01*
X165364748Y-69672339D01*
X165173013Y-69863741D01*
X165069118Y-70113946D01*
X165068882Y-70384865D01*
X150827565Y-70384865D01*
X150930882Y-70136054D01*
X150931077Y-69912024D01*
X151135252Y-69827661D01*
X151326987Y-69636259D01*
X151430882Y-69386054D01*
X151431077Y-69162024D01*
X151635252Y-69077661D01*
X151826987Y-68886259D01*
X151930882Y-68636054D01*
X151931077Y-68412024D01*
X152135252Y-68327661D01*
X152326987Y-68136259D01*
X152430882Y-67886054D01*
X152431077Y-67662024D01*
X152635252Y-67577661D01*
X152826987Y-67386259D01*
X152930882Y-67136054D01*
X152931077Y-66912024D01*
X153135252Y-66827661D01*
X153326987Y-66636259D01*
X153430882Y-66386054D01*
X153431077Y-66162024D01*
X153635252Y-66077661D01*
X153826987Y-65886259D01*
X153930882Y-65636054D01*
X153931077Y-65412024D01*
X154135252Y-65327661D01*
X154326987Y-65136259D01*
X154430882Y-64886054D01*
X154431077Y-64662024D01*
X154635252Y-64577661D01*
X154826987Y-64386259D01*
X154930882Y-64136054D01*
X154931077Y-63912024D01*
X155135252Y-63827661D01*
X155326987Y-63636259D01*
X155430882Y-63386054D01*
X155431077Y-63162024D01*
X155635252Y-63077661D01*
X155826987Y-62886259D01*
X155930882Y-62636054D01*
X155930883Y-62634865D01*
X160318882Y-62634865D01*
X160422339Y-62885252D01*
X160613741Y-63076987D01*
X160863946Y-63180882D01*
X161134865Y-63181118D01*
X161246806Y-63134865D01*
X167818882Y-63134865D01*
X167922339Y-63385252D01*
X168113741Y-63576987D01*
X168363946Y-63680882D01*
X168634865Y-63681118D01*
X168885252Y-63577661D01*
X169076987Y-63386259D01*
X169180882Y-63136054D01*
X169181118Y-62865135D01*
X169077661Y-62614748D01*
X168886259Y-62423013D01*
X168636054Y-62319118D01*
X168365135Y-62318882D01*
X168114748Y-62422339D01*
X167923013Y-62613741D01*
X167819118Y-62863946D01*
X167818882Y-63134865D01*
X161246806Y-63134865D01*
X161385252Y-63077661D01*
X161576987Y-62886259D01*
X161680882Y-62636054D01*
X161681118Y-62365135D01*
X161577661Y-62114748D01*
X161386259Y-61923013D01*
X161136054Y-61819118D01*
X160865135Y-61818882D01*
X160614748Y-61922339D01*
X160423013Y-62113741D01*
X160319118Y-62363946D01*
X160318882Y-62634865D01*
X155930883Y-62634865D01*
X155931077Y-62412024D01*
X156135252Y-62327661D01*
X156326987Y-62136259D01*
X156430882Y-61886054D01*
X156431070Y-61669572D01*
X175618414Y-61669572D01*
X176132056Y-62912681D01*
X177082317Y-63864601D01*
X178324527Y-64380412D01*
X179669572Y-64381586D01*
X180912681Y-63867944D01*
X181864601Y-62917683D01*
X182380412Y-61675473D01*
X182381586Y-60330428D01*
X181867944Y-59087319D01*
X180917683Y-58135399D01*
X179675473Y-57619588D01*
X178330428Y-57618414D01*
X177087319Y-58132056D01*
X176135399Y-59082317D01*
X175619588Y-60324527D01*
X175618414Y-61669572D01*
X156431070Y-61669572D01*
X156431077Y-61662024D01*
X156635252Y-61577661D01*
X156826987Y-61386259D01*
X156930882Y-61136054D01*
X156931077Y-60912024D01*
X157135252Y-60827661D01*
X157326987Y-60636259D01*
X157430882Y-60386054D01*
X157431118Y-60115135D01*
X157327661Y-59864748D01*
X157136259Y-59673013D01*
X156886054Y-59569118D01*
X156615135Y-59568882D01*
X156364748Y-59672339D01*
X156173013Y-59863741D01*
X156069118Y-60113946D01*
X156068923Y-60337976D01*
X155864748Y-60422339D01*
X155673013Y-60613741D01*
X155569118Y-60863946D01*
X155568923Y-61087976D01*
X155364748Y-61172339D01*
X155173013Y-61363741D01*
X155069118Y-61613946D01*
X155068923Y-61837976D01*
X154864748Y-61922339D01*
X154673013Y-62113741D01*
X154569118Y-62363946D01*
X154568923Y-62587976D01*
X154364748Y-62672339D01*
X154173013Y-62863741D01*
X154069118Y-63113946D01*
X154068923Y-63337976D01*
X153864748Y-63422339D01*
X153673013Y-63613741D01*
X153569118Y-63863946D01*
X153568923Y-64087976D01*
X153364748Y-64172339D01*
X153173013Y-64363741D01*
X153069118Y-64613946D01*
X153068923Y-64837976D01*
X152864748Y-64922339D01*
X152673013Y-65113741D01*
X152569118Y-65363946D01*
X152568923Y-65587976D01*
X152364748Y-65672339D01*
X152173013Y-65863741D01*
X152069118Y-66113946D01*
X152068923Y-66337976D01*
X151864748Y-66422339D01*
X151673013Y-66613741D01*
X151569118Y-66863946D01*
X151568923Y-67087976D01*
X151364748Y-67172339D01*
X151173013Y-67363741D01*
X151069118Y-67613946D01*
X151068923Y-67837976D01*
X150864748Y-67922339D01*
X150673013Y-68113741D01*
X150569118Y-68363946D01*
X150568923Y-68587976D01*
X150364748Y-68672339D01*
X150173013Y-68863741D01*
X150069118Y-69113946D01*
X150068923Y-69337976D01*
X149864748Y-69422339D01*
X149673013Y-69613741D01*
X149569118Y-69863946D01*
X149568923Y-70087976D01*
X149364748Y-70172339D01*
X149173013Y-70363741D01*
X149069118Y-70613946D01*
X149068923Y-70837976D01*
X148864748Y-70922339D01*
X148673013Y-71113741D01*
X148569118Y-71363946D01*
X148568923Y-71587976D01*
X148364748Y-71672339D01*
X148173013Y-71863741D01*
X148069118Y-72113946D01*
X148068923Y-72337976D01*
X147864748Y-72422339D01*
X147673013Y-72613741D01*
X147569118Y-72863946D01*
X147568923Y-73087976D01*
X147364748Y-73172339D01*
X147173013Y-73363741D01*
X147069118Y-73613946D01*
X147068923Y-73837976D01*
X146864748Y-73922339D01*
X146673013Y-74113741D01*
X146569118Y-74363946D01*
X146568923Y-74587976D01*
X146364748Y-74672339D01*
X146173013Y-74863741D01*
X146069118Y-75113946D01*
X146068923Y-75337976D01*
X145864748Y-75422339D01*
X145673013Y-75613741D01*
X145569118Y-75863946D01*
X145568923Y-76087976D01*
X145364748Y-76172339D01*
X145173013Y-76363741D01*
X145069118Y-76613946D01*
X145068882Y-76884865D01*
X142181100Y-76884865D01*
X142181118Y-76865135D01*
X142077661Y-76614748D01*
X141886259Y-76423013D01*
X141636054Y-76319118D01*
X141365135Y-76318882D01*
X141114748Y-76422339D01*
X140923013Y-76613741D01*
X140819118Y-76863946D01*
X140818882Y-77134865D01*
X133180883Y-77134865D01*
X133181118Y-76865135D01*
X133077661Y-76614748D01*
X132886259Y-76423013D01*
X132636054Y-76319118D01*
X132365135Y-76318882D01*
X132114748Y-76422339D01*
X131923013Y-76613741D01*
X131819118Y-76863946D01*
X131818882Y-77134865D01*
X123996806Y-77134865D01*
X124135252Y-77077661D01*
X124326987Y-76886259D01*
X124430882Y-76636054D01*
X124431118Y-76365135D01*
X124327661Y-76114748D01*
X124136259Y-75923013D01*
X123886054Y-75819118D01*
X123615135Y-75818882D01*
X123364748Y-75922339D01*
X123173013Y-76113741D01*
X123069118Y-76363946D01*
X123068882Y-76634865D01*
X120544390Y-76634865D01*
X120386054Y-76569118D01*
X120115135Y-76568882D01*
X119864748Y-76672339D01*
X119673013Y-76863741D01*
X119569118Y-77113946D01*
X119568882Y-77384865D01*
X68627000Y-77384865D01*
X68627000Y-75634865D01*
X103568882Y-75634865D01*
X103672339Y-75885252D01*
X103863741Y-76076987D01*
X104113946Y-76180882D01*
X104384865Y-76181118D01*
X104635252Y-76077661D01*
X104826987Y-75886259D01*
X104930882Y-75636054D01*
X104931118Y-75365135D01*
X104827661Y-75114748D01*
X104636259Y-74923013D01*
X104386054Y-74819118D01*
X104115135Y-74818882D01*
X103864748Y-74922339D01*
X103673013Y-75113741D01*
X103569118Y-75363946D01*
X103568882Y-75634865D01*
X68627000Y-75634865D01*
X68627000Y-72884865D01*
X106568882Y-72884865D01*
X106672339Y-73135252D01*
X106863741Y-73326987D01*
X107113946Y-73430882D01*
X107384865Y-73431118D01*
X107635252Y-73327661D01*
X107826987Y-73136259D01*
X107930882Y-72886054D01*
X107931118Y-72615135D01*
X107827661Y-72364748D01*
X107636259Y-72173013D01*
X107386054Y-72069118D01*
X107115135Y-72068882D01*
X106864748Y-72172339D01*
X106673013Y-72363741D01*
X106569118Y-72613946D01*
X106568882Y-72884865D01*
X68627000Y-72884865D01*
X68627000Y-72134865D01*
X99818882Y-72134865D01*
X99922339Y-72385252D01*
X100113741Y-72576987D01*
X100363946Y-72680882D01*
X100634865Y-72681118D01*
X100885252Y-72577661D01*
X101076987Y-72386259D01*
X101180882Y-72136054D01*
X101181118Y-71865135D01*
X101077661Y-71614748D01*
X100886259Y-71423013D01*
X100636054Y-71319118D01*
X100365135Y-71318882D01*
X100114748Y-71422339D01*
X99923013Y-71613741D01*
X99819118Y-71863946D01*
X99818882Y-72134865D01*
X68627000Y-72134865D01*
X68627000Y-69884865D01*
X99818882Y-69884865D01*
X99922339Y-70135252D01*
X100113741Y-70326987D01*
X100363946Y-70430882D01*
X100634865Y-70431118D01*
X100885252Y-70327661D01*
X101076987Y-70136259D01*
X101077565Y-70134865D01*
X111318882Y-70134865D01*
X111422339Y-70385252D01*
X111613741Y-70576987D01*
X111863946Y-70680882D01*
X112134865Y-70681118D01*
X112385252Y-70577661D01*
X112576987Y-70386259D01*
X112680882Y-70136054D01*
X112681118Y-69865135D01*
X112577661Y-69614748D01*
X112386259Y-69423013D01*
X112136054Y-69319118D01*
X111865135Y-69318882D01*
X111614748Y-69422339D01*
X111423013Y-69613741D01*
X111319118Y-69863946D01*
X111318882Y-70134865D01*
X101077565Y-70134865D01*
X101180882Y-69886054D01*
X101181118Y-69615135D01*
X101077661Y-69364748D01*
X100886259Y-69173013D01*
X100636054Y-69069118D01*
X100365135Y-69068882D01*
X100114748Y-69172339D01*
X99923013Y-69363741D01*
X99819118Y-69613946D01*
X99818882Y-69884865D01*
X68627000Y-69884865D01*
X68627000Y-68884865D01*
X106068882Y-68884865D01*
X106172339Y-69135252D01*
X106363741Y-69326987D01*
X106613946Y-69430882D01*
X106884865Y-69431118D01*
X107135252Y-69327661D01*
X107326987Y-69136259D01*
X107430882Y-68886054D01*
X107431118Y-68615135D01*
X107327661Y-68364748D01*
X107136259Y-68173013D01*
X106886054Y-68069118D01*
X106615135Y-68068882D01*
X106364748Y-68172339D01*
X106173013Y-68363741D01*
X106069118Y-68613946D01*
X106068882Y-68884865D01*
X68627000Y-68884865D01*
X68627000Y-67634865D01*
X101568882Y-67634865D01*
X101672339Y-67885252D01*
X101863741Y-68076987D01*
X102113946Y-68180882D01*
X102384865Y-68181118D01*
X102635252Y-68077661D01*
X102826987Y-67886259D01*
X102930882Y-67636054D01*
X102931118Y-67365135D01*
X102827661Y-67114748D01*
X102636259Y-66923013D01*
X102386054Y-66819118D01*
X102115135Y-66818882D01*
X101864748Y-66922339D01*
X101673013Y-67113741D01*
X101569118Y-67363946D01*
X101568882Y-67634865D01*
X68627000Y-67634865D01*
X68627000Y-65634865D01*
X111068882Y-65634865D01*
X111172339Y-65885252D01*
X111363741Y-66076987D01*
X111613946Y-66180882D01*
X111884865Y-66181118D01*
X112135252Y-66077661D01*
X112326987Y-65886259D01*
X112430882Y-65636054D01*
X112430883Y-65634865D01*
X114068882Y-65634865D01*
X114172339Y-65885252D01*
X114363741Y-66076987D01*
X114613946Y-66180882D01*
X114884865Y-66181118D01*
X115135252Y-66077661D01*
X115319092Y-65894141D01*
X115318882Y-66134865D01*
X115422339Y-66385252D01*
X115613741Y-66576987D01*
X115863946Y-66680882D01*
X116134865Y-66681118D01*
X116385252Y-66577661D01*
X116576987Y-66386259D01*
X116680882Y-66136054D01*
X116681093Y-65894021D01*
X116863741Y-66076987D01*
X117113946Y-66180882D01*
X117384865Y-66181118D01*
X117635252Y-66077661D01*
X117826987Y-65886259D01*
X117827565Y-65884865D01*
X126568882Y-65884865D01*
X126672339Y-66135252D01*
X126786920Y-66250032D01*
X126673013Y-66363741D01*
X126569118Y-66613946D01*
X126568882Y-66884865D01*
X126672339Y-67135252D01*
X126786920Y-67250032D01*
X126673013Y-67363741D01*
X126569118Y-67613946D01*
X126568882Y-67884865D01*
X126672339Y-68135252D01*
X126786920Y-68250032D01*
X126673013Y-68363741D01*
X126569118Y-68613946D01*
X126568882Y-68884865D01*
X126672339Y-69135252D01*
X126863741Y-69326987D01*
X127113946Y-69430882D01*
X127384865Y-69431118D01*
X127635252Y-69327661D01*
X127826987Y-69136259D01*
X127827565Y-69134865D01*
X131818882Y-69134865D01*
X131922339Y-69385252D01*
X132113741Y-69576987D01*
X132363946Y-69680882D01*
X132634865Y-69681118D01*
X132885252Y-69577661D01*
X133076987Y-69386259D01*
X133180882Y-69136054D01*
X133180883Y-69134865D01*
X140568882Y-69134865D01*
X140672339Y-69385252D01*
X140863741Y-69576987D01*
X141113946Y-69680882D01*
X141384865Y-69681118D01*
X141635252Y-69577661D01*
X141826987Y-69386259D01*
X141930882Y-69136054D01*
X141931118Y-68865135D01*
X141827661Y-68614748D01*
X141636259Y-68423013D01*
X141386054Y-68319118D01*
X141115135Y-68318882D01*
X140864748Y-68422339D01*
X140673013Y-68613741D01*
X140569118Y-68863946D01*
X140568882Y-69134865D01*
X133180883Y-69134865D01*
X133181118Y-68865135D01*
X133077661Y-68614748D01*
X132886259Y-68423013D01*
X132636054Y-68319118D01*
X132365135Y-68318882D01*
X132114748Y-68422339D01*
X131923013Y-68613741D01*
X131819118Y-68863946D01*
X131818882Y-69134865D01*
X127827565Y-69134865D01*
X127930882Y-68886054D01*
X127931118Y-68615135D01*
X127827661Y-68364748D01*
X127713080Y-68249968D01*
X127826987Y-68136259D01*
X127930882Y-67886054D01*
X127931100Y-67634865D01*
X140568882Y-67634865D01*
X140672339Y-67885252D01*
X140863741Y-68076987D01*
X141113946Y-68180882D01*
X141384865Y-68181118D01*
X141635252Y-68077661D01*
X141826987Y-67886259D01*
X141930882Y-67636054D01*
X141931118Y-67365135D01*
X141827661Y-67114748D01*
X141636259Y-66923013D01*
X141386054Y-66819118D01*
X141115135Y-66818882D01*
X140864748Y-66922339D01*
X140673013Y-67113741D01*
X140569118Y-67363946D01*
X140568882Y-67634865D01*
X127931100Y-67634865D01*
X127931118Y-67615135D01*
X127827661Y-67364748D01*
X127713080Y-67249968D01*
X127826987Y-67136259D01*
X127930882Y-66886054D01*
X127931118Y-66615135D01*
X127827661Y-66364748D01*
X127713080Y-66249968D01*
X127826987Y-66136259D01*
X127827565Y-66134865D01*
X140568882Y-66134865D01*
X140672339Y-66385252D01*
X140863741Y-66576987D01*
X141113946Y-66680882D01*
X141384865Y-66681118D01*
X141635252Y-66577661D01*
X141826987Y-66386259D01*
X141930882Y-66136054D01*
X141931118Y-65865135D01*
X141827661Y-65614748D01*
X141636259Y-65423013D01*
X141386054Y-65319118D01*
X141115135Y-65318882D01*
X140864748Y-65422339D01*
X140673013Y-65613741D01*
X140569118Y-65863946D01*
X140568882Y-66134865D01*
X127827565Y-66134865D01*
X127930882Y-65886054D01*
X127931118Y-65615135D01*
X127835974Y-65384865D01*
X135318882Y-65384865D01*
X135422339Y-65635252D01*
X135613741Y-65826987D01*
X135863946Y-65930882D01*
X136134865Y-65931118D01*
X136385252Y-65827661D01*
X136576987Y-65636259D01*
X136680882Y-65386054D01*
X136680883Y-65384865D01*
X136818882Y-65384865D01*
X136922339Y-65635252D01*
X137113741Y-65826987D01*
X137363946Y-65930882D01*
X137634865Y-65931118D01*
X137885252Y-65827661D01*
X138076987Y-65636259D01*
X138180882Y-65386054D01*
X138181118Y-65115135D01*
X138077661Y-64864748D01*
X137886259Y-64673013D01*
X137636054Y-64569118D01*
X137365135Y-64568882D01*
X137114748Y-64672339D01*
X136923013Y-64863741D01*
X136819118Y-65113946D01*
X136818882Y-65384865D01*
X136680883Y-65384865D01*
X136681118Y-65115135D01*
X136577661Y-64864748D01*
X136386259Y-64673013D01*
X136136054Y-64569118D01*
X135865135Y-64568882D01*
X135614748Y-64672339D01*
X135423013Y-64863741D01*
X135319118Y-65113946D01*
X135318882Y-65384865D01*
X127835974Y-65384865D01*
X127827661Y-65364748D01*
X127636259Y-65173013D01*
X127386054Y-65069118D01*
X127115135Y-65068882D01*
X126864748Y-65172339D01*
X126673013Y-65363741D01*
X126569118Y-65613946D01*
X126568882Y-65884865D01*
X117827565Y-65884865D01*
X117930882Y-65636054D01*
X117931118Y-65365135D01*
X117827661Y-65114748D01*
X117636259Y-64923013D01*
X117386054Y-64819118D01*
X117115135Y-64818882D01*
X116864748Y-64922339D01*
X116673013Y-65113741D01*
X116569118Y-65363946D01*
X116568907Y-65605979D01*
X116386259Y-65423013D01*
X116136054Y-65319118D01*
X115865135Y-65318882D01*
X115614748Y-65422339D01*
X115430908Y-65605859D01*
X115431118Y-65365135D01*
X115327661Y-65114748D01*
X115136259Y-64923013D01*
X114886054Y-64819118D01*
X114615135Y-64818882D01*
X114364748Y-64922339D01*
X114173013Y-65113741D01*
X114069118Y-65363946D01*
X114068882Y-65634865D01*
X112430883Y-65634865D01*
X112431118Y-65365135D01*
X112327661Y-65114748D01*
X112136259Y-64923013D01*
X111886054Y-64819118D01*
X111615135Y-64818882D01*
X111364748Y-64922339D01*
X111173013Y-65113741D01*
X111069118Y-65363946D01*
X111068882Y-65634865D01*
X68627000Y-65634865D01*
X68627000Y-61669572D01*
X74618414Y-61669572D01*
X75132056Y-62912681D01*
X76082317Y-63864601D01*
X77324527Y-64380412D01*
X78669572Y-64381586D01*
X79912681Y-63867944D01*
X80864601Y-62917683D01*
X81380412Y-61675473D01*
X81380883Y-61134865D01*
X107068882Y-61134865D01*
X107172339Y-61385252D01*
X107363741Y-61576987D01*
X107613946Y-61680882D01*
X107884865Y-61681118D01*
X108135252Y-61577661D01*
X108326987Y-61386259D01*
X108430882Y-61136054D01*
X108431118Y-60865135D01*
X108327661Y-60614748D01*
X108136259Y-60423013D01*
X107886054Y-60319118D01*
X107615135Y-60318882D01*
X107364748Y-60422339D01*
X107173013Y-60613741D01*
X107069118Y-60863946D01*
X107068882Y-61134865D01*
X81380883Y-61134865D01*
X81381586Y-60330428D01*
X80867944Y-59087319D01*
X80416279Y-58634865D01*
X103568882Y-58634865D01*
X103672339Y-58885252D01*
X103863741Y-59076987D01*
X104113946Y-59180882D01*
X104384865Y-59181118D01*
X104635252Y-59077661D01*
X104826987Y-58886259D01*
X104930882Y-58636054D01*
X104931118Y-58365135D01*
X104827661Y-58114748D01*
X104636259Y-57923013D01*
X104386054Y-57819118D01*
X104115135Y-57818882D01*
X103864748Y-57922339D01*
X103673013Y-58113741D01*
X103569118Y-58363946D01*
X103568882Y-58634865D01*
X80416279Y-58634865D01*
X79917683Y-58135399D01*
X78675473Y-57619588D01*
X77330428Y-57618414D01*
X76087319Y-58132056D01*
X75135399Y-59082317D01*
X74619588Y-60324527D01*
X74618414Y-61669572D01*
X68627000Y-61669572D01*
X68627000Y-57052606D01*
X69052606Y-56627000D01*
X110667507Y-56627000D01*
X110569118Y-56863946D01*
M02*
