M48
;DRILL file {KiCad 4.0.5+dfsg1-4} date Wed Jan 10 10:44:26 2018
;FORMAT={-:-/ absolute / inch / decimal}
FMAT,2
INCH,TZ
T1C0.012
T2C0.033
T3C0.040
T4C0.126
%
G90
G05
M72
T1
X2.9134Y-4.1535
X3.0118Y-2.9528
X3.061Y-2.874
X3.2087Y-2.5591
X3.2579Y-2.2933
X3.2874Y-3.4843
X3.3071Y-2.9528
X3.4646Y-3.4055
X3.4646Y-3.5827
X3.4941Y-2.3228
X3.5039Y-2.7953
X3.5039Y-2.9528
X3.563Y-2.7756
X3.563Y-3.4843
X3.5728Y-3.7008
X3.6811Y-2.3819
X3.6811Y-3.7008
X3.7205Y-2.4606
X3.7205Y-2.5591
X3.7598Y-4.1535
X3.8189Y-4.0945
X3.8386Y-3.1102
X3.9272Y-2.2441
X3.9272Y-2.5197
X3.9764Y-2.4409
X3.9764Y-2.5689
X3.9764Y-2.6378
X3.9764Y-2.7165
X4.0354Y-2.4409
X4.0748Y-2.4016
X4.1339Y-2.7756
X4.2323Y-2.6181
X4.2323Y-3.5236
X4.2717Y-3.0315
X4.2913Y-2.4606
X4.3012Y-2.5394
X4.3996Y-2.4902
X4.4094Y-2.7559
X4.4488Y-3.4547
X4.5079Y-3.7303
X4.5177Y-2.5787
X4.5866Y-3.8583
X4.6063Y-2.6181
X4.6654Y-3.7697
X4.6949Y-3.4252
X4.7343Y-3.0413
X4.7343Y-3.0807
X4.7343Y-3.1201
X4.7343Y-3.1594
X4.7343Y-3.2185
X4.7343Y-3.2579
X4.7343Y-3.2972
X4.8031Y-2.4409
X4.872Y-3.0118
X4.9016Y-3.7598
X4.9311Y-2.9823
X4.9409Y-2.7264
X4.9409Y-2.7657
X4.9409Y-2.8051
X4.9409Y-2.8445
X4.9409Y-2.9035
X4.9409Y-2.9429
X5.0098Y-2.4114
X5.0098Y-2.4508
X5.0098Y-2.4902
X5.0098Y-2.5295
X5.0098Y-2.5886
X5.0098Y-2.628
X5.0098Y-2.6673
X5.0098Y-2.7067
X5.0787Y-3.7598
X5.1575Y-2.7756
X5.1969Y-2.2638
X5.2165Y-2.4016
X5.2165Y-2.4606
X5.2165Y-2.5394
X5.2165Y-2.7165
X5.2165Y-3.0315
X5.2165Y-3.0906
X5.2559Y-2.5
X5.2559Y-3.7598
X5.2657Y-2.8051
X5.2756Y-3.1496
X5.3248Y-2.2933
X5.3543Y-2.5689
X5.374Y-3.189
X5.4134Y-2.5689
X5.4134Y-3.5236
X5.4331Y-2.2933
X5.4429Y-2.5098
X5.4429Y-2.8346
X5.5315Y-2.9429
X5.5315Y-3.4154
X5.561Y-2.3425
X5.561Y-2.4016
X5.561Y-2.5984
X5.561Y-2.6575
X5.561Y-2.7165
X5.561Y-2.9724
X5.5709Y-2.9134
X5.5709Y-3.0315
X5.6201Y-2.8642
X5.6299Y-2.815
X5.6496Y-3.1693
X5.6693Y-3.1299
X5.689Y-3.0906
X5.7087Y-3.0512
X5.7283Y-3.0118
X5.7283Y-3.3661
X5.748Y-2.9724
X5.8366Y-3.3957
X5.9252Y-3.3957
X5.9449Y-3.1102
X5.9646Y-3.0709
X5.9843Y-3.0315
X6.0039Y-2.9921
X6.0236Y-2.9528
X6.0335Y-3.376
X6.0433Y-2.9134
X6.063Y-2.874
X6.0827Y-2.8346
X6.1024Y-2.7953
X6.122Y-2.7559
X6.1417Y-2.7165
X6.1909Y-3.376
X6.2402Y-3.0906
X6.2598Y-3.0512
X6.2795Y-3.0118
X6.2992Y-2.9724
X6.3189Y-2.313
X6.3189Y-2.9331
X6.3386Y-2.5591
X6.3386Y-2.8937
X6.3484Y-3.376
X6.4173Y-3.0512
X6.4469Y-3.4055
X6.5748Y-2.4508
X6.752Y-3.0512
X6.9291Y-2.8937
X6.9882Y-3.189
T2
X3.9449Y-4.4882
X4.2441Y-4.4882
T3
X3.1531Y-3.1299
X3.1531Y-3.2299
X3.2531Y-3.1299
X3.2531Y-3.2299
X3.2858Y-3.852
X3.2858Y-3.952
X3.2858Y-4.052
X3.2858Y-4.152
X3.2858Y-4.252
X3.3531Y-3.1299
X3.3531Y-3.2299
X3.3858Y-3.852
X3.3858Y-3.952
X3.3858Y-4.052
X3.3858Y-4.152
X3.3858Y-4.252
X3.4531Y-3.1299
X3.4531Y-3.2299
X3.5531Y-3.1299
X3.5531Y-3.2299
T4
X3.0709Y-2.4016
X3.0709Y-4.685
X7.0472Y-2.4016
X7.0472Y-3.5039
T0
M30
